<svg version="1" xmlns="http://www.w3.org/2000/svg" width="933.333" height="933.333" viewBox="0 0 700.000000 700.000000"><path d="M318.5 31.5c-143.6 14.3-259.9 122.8-284 265-12.2 72.2 1.1 148.4 36.8 210.8 15.1 26.5 30.2 46.3 52.2 68.3 31.9 32 64.9 54.1 105.6 70.7 91.8 37.5 196.2 30.2 281.9-19.6 23.5-13.7 44.4-30 65.1-50.6 39-39.1 65.7-83.9 80.9-135.8 13.4-45.6 16.5-95.3 8.9-141.6C644.1 164.8 540.1 59.1 406.7 35c-26.6-4.8-61.1-6.2-88.2-3.5zm163.6 92.1c4.5 4 0 10.6-33.8 49.5-30.9 35.6-46.5 55.1-49.6 61.8-1.5 3.6-1.8 5.8-1.4 11.5.4 6.5 1.5 9.4 13.7 35.6 26.7 57.7 102.1 231.2 109.7 252.3 4.8 13.5 4 26.2-1.7 29.2-6.2 3.2-12.2 1.2-19.3-6.4-5.8-6.2-5.3-5.1-31.2-67.1-23.9-56.9-42.4-100.1-52.6-122.7-10.4-23-30.8-63.7-36.2-72-4-6.3-5.2-7.3-8.7-8.3-9.6-2.6-11.8-.4-38.8 39.5-27.5 40.5-50.7 78.9-76.3 126.1-11.4 21.1-34.3 67-43.4 86.9-8.7 19.2-19.2 36.4-23.2 38.1-4.5 1.9-6.8 1.7-9.8-.8-5.7-5-3.3-20.3 7.6-49.7 11.1-29.5 20.1-47.8 46.7-94.1 32.7-57.1 56.8-95.9 82-132.3 10.3-15 20.4-29.9 22.4-33.2 10.7-17.8 10.7-29.5-.2-50.2-6.8-12.9-12.1-20.6-29.5-42.2-8.4-10.4-16-20.8-16.9-23.1-2.1-5.2-2.1-12.3 0-14 .8-.8 5-1.5 9.3-1.8 15.2-.9 22.1 4.4 43.9 33.3C366.9 199 369 201 376.5 201c2.1 0 5.3-.7 7.2-1.6 2-1 12.3-11.3 25.7-25.8 32.3-35 48.1-48.6 60.1-51.7 4.4-1.2 10.4-.3 12.6 1.7zm-109 329.8c27 5.8 47.8 32.4 58.7 75.1 4.1 16.1 4.6 20 3.2 27.4-1.5 8.2-2.6 10.4-6.2 12.5-4.6 2.8-8.8 1.5-14-4.3-3.4-3.8-6-8.8-12.2-23.7-12.5-30-16.6-37.5-26-47.2-7.5-7.9-11.4-9.7-21.1-9.7-7 0-8.7.4-13.3 2.9-6.8 3.8-13.2 10.7-17.1 18.5-1.7 3.3-6.6 17.7-11 31.9-8.3 27.2-9.6 30.5-13.1 33.7-2.7 2.4-8.9 2.5-12.6.1-4.6-3.1-5.7-7.6-5.1-21.1 2.1-47.8 25.7-88.9 55.2-96.1 6.9-1.7 26.6-1.7 34.6 0z"/></svg>