<svg xmlns="http://www.w3.org/2000/svg" version="1" viewBox="0 0 512 512"><linearGradient id="a" x1="42" x2="518" y1="465" y2="-11" gradientUnits="userSpaceOnUse"><stop offset="0" stop-color="#08c"/><stop offset="1" stop-color="#66ffe5"/></linearGradient><path fill="url(#a)" d="M124 373l4-16 22-52 23-40 32-50 23-33c3-5 6-9 8-15 3-7 1-15-2-22-6-12-14-22-22-32l-8-11c-3-3-4-6-4-10 0-3 1-4 4-5 6-1 13 1 18 5l6 5 15 20 7 9c5 5 10 5 15 1l9-10c11-12 22-24 35-34 4-3 9-7 15-6 4 0 6 2 4 6l-4 7-36 42-13 17c-4 5-5 12-2 18l17 36 22 49 39 93c3 6 6 12 5 19 0 3-1 6-4 7-3 2-6 1-9-1-5-4-8-10-11-15l-22-54c-15-35-30-71-48-104l-4-8c-3-4-10-4-13-1l-6 8-33 52-21 36c-16 26-28 54-41 82l-7 12c-3 3-5 4-8 3-4-1-3-4-4-7v-1h-1z"/><linearGradient id="b" x1="86" x2="550" y1="511" y2="47" gradientUnits="userSpaceOnUse"><stop offset="0" stop-color="#08c"/><stop offset="1" stop-color="#66ffe5"/></linearGradient><path fill="url(#b)" d="M249 297c12 0 20 5 28 14 11 14 16 30 20 47l-1 12c-1 5-7 7-11 4l-5-8-10-23c-3-8-8-15-13-21-8-8-18-6-24-1-6 4-10 11-12 18a2703 2703 0 0 1-11 33c-2 3-5 5-9 4-3-1-5-3-5-7a78 78 0 0 1 24-62c5-6 12-8 20-9l9-1z"/><linearGradient id="c" x1="145" x2="624" y1="605" y2="125" gradientUnits="userSpaceOnUse"><stop offset="0" stop-color="#08c"/><stop offset="1" stop-color="#66ffe5"/></linearGradient><path fill="url(#c)" d="M469 296c6 0 10-4 10-10v-12c0-5-4-10-10-10s-10 5-10 10v12c0 6 5 10 10 10z"/><linearGradient id="d" x1="159" x2="639" y1="622" y2="142" gradientUnits="userSpaceOnUse"><stop offset="0" stop-color="#08c"/><stop offset="1" stop-color="#66ffe5"/></linearGradient><path fill="url(#d)" d="M469 328c6 0 10-4 10-10v-12c0-6-4-10-10-10s-10 4-10 10v12c0 6 5 10 10 10z"/><linearGradient id="e" x1="177" x2="630" y1="604" y2="151" gradientUnits="userSpaceOnUse"><stop offset="0" stop-color="#08c"/><stop offset="1" stop-color="#66ffe5"/></linearGradient><path fill="url(#e)" d="M479 306h12c6 0 10-4 10-10s-4-10-10-10h-12c-5 0-10 5-10 10s5 10 10 10z"/><linearGradient id="f" x1="163" x2="615" y1="587" y2="134" gradientUnits="userSpaceOnUse"><stop offset="0" stop-color="#08c"/><stop offset="1" stop-color="#66ffe5"/></linearGradient><path fill="url(#f)" d="M447 306h13c5 0 10-4 10-10s-5-10-10-10h-13c-5 0-10 5-10 10s5 10 10 10z"/><g><linearGradient id="g" x1="-43" x2="437" y1="364" y2="-115" gradientUnits="userSpaceOnUse"><stop offset="0" stop-color="#08c"/><stop offset="1" stop-color="#66ffe5"/></linearGradient><path fill="url(#g)" d="M41 296c6 0 10-4 10-10v-12c0-5-4-10-10-10s-10 5-10 10v12c0 6 5 10 10 10z"/><linearGradient id="h" x1="-28" x2="452" y1="381" y2="-98" gradientUnits="userSpaceOnUse"><stop offset="0" stop-color="#08c"/><stop offset="1" stop-color="#66ffe5"/></linearGradient><path fill="url(#h)" d="M41 328c6 0 10-4 10-10v-12c0-6-4-10-10-10s-10 4-10 10v12c0 6 5 10 10 10z"/><linearGradient id="i" x1="-24" x2="429" y1="377" y2="-76" gradientUnits="userSpaceOnUse"><stop offset="0" stop-color="#08c"/><stop offset="1" stop-color="#66ffe5"/></linearGradient><path fill="url(#i)" d="M51 306h12c6 0 10-4 10-10s-4-10-10-10H51c-5 0-10 5-10 10s5 10 10 10z"/><linearGradient id="j" x1="-38" x2="414" y1="360" y2="-93" gradientUnits="userSpaceOnUse"><stop offset="0" stop-color="#08c"/><stop offset="1" stop-color="#66ffe5"/></linearGradient><path fill="url(#j)" d="M19 306h13c5 0 10-4 10-10s-5-10-10-10H19c-5 0-10 5-10 10s5 10 10 10z"/></g><g><linearGradient id="k" x1="-67" x2="412" y1="348" y2="-131" gradientUnits="userSpaceOnUse"><stop offset="0" stop-color="#08c"/><stop offset="1" stop-color="#66ffe5"/></linearGradient><path fill="url(#k)" d="M256 41c6 0 10-4 10-10V19c0-6-4-10-10-10s-10 4-10 10v12c0 6 5 10 10 10z"/><linearGradient id="l" x1="-53" x2="427" y1="365" y2="-114" gradientUnits="userSpaceOnUse"><stop offset="0" stop-color="#08c"/><stop offset="1" stop-color="#66ffe5"/></linearGradient><path fill="url(#l)" d="M256 73c6 0 10-5 10-10V51c0-6-4-10-10-10s-10 4-10 10v12c0 5 5 10 10 10z"/><linearGradient id="m" x1="-35" x2="418" y1="347" y2="-105" gradientUnits="userSpaceOnUse"><stop offset="0" stop-color="#08c"/><stop offset="1" stop-color="#66ffe5"/></linearGradient><path fill="url(#m)" d="M266 51h12c6 0 10-5 10-10s-4-10-10-10h-12c-6 0-10 4-10 10s4 10 10 10z"/><linearGradient id="n" x1="-50" x2="403" y1="331" y2="-122" gradientUnits="userSpaceOnUse"><stop offset="0" stop-color="#08c"/><stop offset="1" stop-color="#66ffe5"/></linearGradient><path fill="url(#n)" d="M234 51h12c6 0 10-5 10-10s-4-10-10-10h-12c-5 0-10 4-10 10s5 10 10 10z"/></g><g><linearGradient id="o" x1="-56" x2="397" y1="330" y2="-123" gradientUnits="userSpaceOnUse"><stop offset="0" stop-color="#08c"/><stop offset="1" stop-color="#66ffe5"/></linearGradient><path fill="url(#o)" d="M113 145c0 5 5 10 10 10h13c5 0 10-5 10-10s-5-10-10-10h-13c-5 0-10 4-10 10z"/><linearGradient id="p" x1="-80" x2="372" y1="303" y2="-150" gradientUnits="userSpaceOnUse"><stop offset="0" stop-color="#08c"/><stop offset="1" stop-color="#66ffe5"/></linearGradient><path fill="url(#p)" d="M62 145c0 5 4 10 10 10h12c6 0 10-5 10-10s-4-10-10-10H72c-6 0-10 4-10 10z"/><linearGradient id="q" x1="-66" x2="413" y1="340" y2="-139" gradientUnits="userSpaceOnUse"><stop offset="0" stop-color="#08c"/><stop offset="1" stop-color="#66ffe5"/></linearGradient><path fill="url(#q)" d="M94 164v12c0 6 4 11 10 11s10-5 10-10v-13c0-5-5-10-10-10s-10 5-10 10z"/><linearGradient id="r" x1="-90" x2="389" y1="313" y2="-167" gradientUnits="userSpaceOnUse"><stop offset="0" stop-color="#08c"/><stop offset="1" stop-color="#66ffe5"/></linearGradient><path fill="url(#r)" d="M94 113v12c0 5 4 10 10 10s10-5 10-10v-12c0-6-5-10-10-10-6 0-10 4-10 10z"/></g><g><linearGradient id="s" x1="86" x2="539" y1="491" y2="38" gradientUnits="userSpaceOnUse"><stop offset="0" stop-color="#08c"/><stop offset="1" stop-color="#66ffe5"/></linearGradient><path fill="url(#s)" d="M417 144c0 6 5 10 10 10h13c5 0 10-4 10-10s-5-10-10-10h-13c-5 0-10 5-10 10z"/><linearGradient id="t" x1="62" x2="515" y1="464" y2="11" gradientUnits="userSpaceOnUse"><stop offset="0" stop-color="#08c"/><stop offset="1" stop-color="#66ffe5"/></linearGradient><path fill="url(#t)" d="M366 144c0 6 4 10 10 10h12c5 0 10-4 10-10s-5-10-10-10h-13c-5 0-9 5-9 10z"/><linearGradient id="u" x1="66" x2="546" y1="511" y2="31" gradientUnits="userSpaceOnUse"><stop offset="0" stop-color="#08c"/><stop offset="1" stop-color="#66ffe5"/></linearGradient><path fill="url(#u)" d="M398 164v12c0 6 4 10 10 10s10-4 10-10v-12c0-6-5-10-10-10s-10 4-10 10z"/><linearGradient id="v" x1="42" x2="522" y1="483" y2="4" gradientUnits="userSpaceOnUse"><stop offset="0" stop-color="#08c"/><stop offset="1" stop-color="#66ffe5"/></linearGradient><path fill="url(#v)" d="M398 112v12c0 6 4 11 10 11s10-5 10-10v-13c0-5-5-10-10-10s-10 5-10 10z"/></g><linearGradient id="w" x1="12" x2="511" y1="476" y2="476" gradientUnits="userSpaceOnUse"><stop offset="0" stop-color="#08c"/><stop offset="1" stop-color="#66ffe5"/></linearGradient><path fill="none" stroke="url(#w)" stroke-linecap="round" stroke-miterlimit="10" stroke-width="21" d="M22 500c122-38 334-75 478-23"/><linearGradient id="x" x1="8" x2="505" y1="440" y2="440" gradientUnits="userSpaceOnUse"><stop offset="0" stop-color="#08c"/><stop offset="1" stop-color="#66ffe5"/></linearGradient><path fill="none" stroke="url(#x)" stroke-linecap="round" stroke-miterlimit="10" stroke-width="21" d="M19 470c112-50 310-80 476-44"/></svg>