<svg xmlns="http://www.w3.org/2000/svg" id="Capa_1" version="1" viewBox="0 0 512 512"><style>.st0{stroke-width:3}.st0,.st1,.st2{fill:#fff;stroke:#fff;stroke-miterlimit:10}.st2{fill:none;stroke-width:21;stroke-linecap:round}</style><path d="M124 373l4-16 22-52 23-40 32-50 23-33c3-5 6-9 8-15 3-7 1-15-2-22-6-12-14-22-22-32l-8-11c-3-3-4-6-4-10 0-3 1-4 4-5 6-1 13 1 18 5l6 5 15 20 7 9c5 5 10 5 15 1l9-10c11-12 22-24 35-34 4-3 9-7 15-6 4 0 6 2 4 6l-4 7-36 42-13 17c-4 5-5 12-2 18l17 36 22 49 39 93c3 6 6 12 5 19 0 3-1 6-4 7-3 2-6 1-9-1-5-4-8-10-11-15l-22-54c-15-35-30-71-48-104l-4-8c-3-4-10-4-13-1l-6 8-33 52-21 36c-16 26-28 54-41 82l-7 12c-3 3-5 4-8 3-4-1-3-4-4-7v-1h-1z" class="st0"/><path d="M249 297c12 0 20 5 28 14 11 14 16 30 20 47l-1 12c-1 5-7 7-11 4l-5-8-10-23c-3-8-8-15-13-21-8-8-18-6-24-1-6 4-10 11-12 18a2703 2703 0 0 1-11 33c-2 3-5 5-9 4-3-1-5-3-5-7a78 78 0 0 1 24-62c5-6 12-8 20-9l9-1z" class="st0"/><path d="M469 296c6 0 10-4 10-10v-12c0-5-4-10-10-10s-10 5-10 10v12c0 6 5 10 10 10zM469 328c6 0 10-4 10-10v-12c0-6-4-10-10-10s-10 4-10 10v12c0 6 5 10 10 10z" class="st1"/><path d="M479 306h12c6 0 10-4 10-10s-4-10-10-10h-12c-5 0-10 5-10 10s5 10 10 10z" class="st1"/><path d="M447 306h13c5 0 10-4 10-10s-5-10-10-10h-13c-5 0-10 5-10 10s5 10 10 10zM41 296c6 0 10-4 10-10v-12c0-5-4-10-10-10s-10 5-10 10v12c0 6 5 10 10 10zM41 328c6 0 10-4 10-10v-12c0-6-4-10-10-10s-10 4-10 10v12c0 6 5 10 10 10z" class="st1"/><path d="M51 306h12c6 0 10-4 10-10s-4-10-10-10H51c-5 0-10 5-10 10s5 10 10 10z" class="st1"/><path d="M19 306h13c5 0 10-4 10-10s-5-10-10-10H19c-5 0-10 5-10 10s5 10 10 10z" class="st1"/><g><path d="M256 41c6 0 10-4 10-10V19c0-6-4-10-10-10s-10 4-10 10v12c0 6 5 10 10 10zM256 73c6 0 10-5 10-10V51c0-6-4-10-10-10s-10 4-10 10v12c0 5 5 10 10 10z" class="st1"/><path d="M266 51h12c6 0 10-5 10-10s-4-10-10-10h-12c-6 0-10 4-10 10s4 10 10 10zM234 51h12c6 0 10-5 10-10s-4-10-10-10h-12c-5 0-10 4-10 10s5 10 10 10z" class="st1"/></g><g><path d="M113 145c0 5 5 10 10 10h13c5 0 10-5 10-10s-5-10-10-10h-13c-5 0-10 4-10 10zM62 145c0 5 4 10 10 10h12c6 0 10-5 10-10s-4-10-10-10H72c-6 0-10 4-10 10zM94 164v12c0 6 4 11 10 11s10-5 10-10v-13c0-5-5-10-10-10s-10 5-10 10zM94 113v12c0 5 4 10 10 10s10-5 10-10v-12c0-6-5-10-10-10-6 0-10 4-10 10z" class="st1"/></g><g><path d="M417 144c0 6 5 10 10 10h13c5 0 10-4 10-10s-5-10-10-10h-13c-5 0-10 5-10 10zM366 144c0 6 4 10 10 10h12c5 0 10-4 10-10s-5-10-10-10h-13c-5 0-9 5-9 10zM398 164v12c0 6 4 10 10 10s10-4 10-10v-12c0-6-5-10-10-10s-10 4-10 10zM398 112v12c0 6 4 11 10 11s10-5 10-10v-13c0-5-5-10-10-10s-10 5-10 10z" class="st1"/></g><path d="M22 500c122-38 334-75 478-23M19 470c112-50 310-80 476-44" class="st2"/></svg>