<svg xmlns="http://www.w3.org/2000/svg" viewBox="0 0 455.9 455.9"><linearGradient id="a" x1="-48.77" x2="462.23" y1="-13.955" y2="483.045" gradientUnits="userSpaceOnUse"><stop offset="0" stop-color="#66cc91"/><stop offset="1" stop-color="#e5ff66"/></linearGradient><path fill="url(#a)" d="M321.2 257.6c15.5-20.5 23.7-44.9 23.7-70.6 0-31.6-12.4-61.2-34.9-83.3-22.5-22.2-52.3-34.1-83.8-33.7-30.6.4-59.4 12.7-81.2 34.6-21.7 21.9-33.9 50.7-34.1 81.3-.2 26.2 8 51.1 23.9 71.9 25.7 33.8 39.9 75.1 39.9 116.5v45.2c0 20.1 16.3 36.4 36.4 36.4H245c20.1 0 36.4-16.3 36.4-36.4v-45.2c-.1-41.9 13.6-82.2 39.8-116.7zm-174.5-8.9c-13.8-18.1-21-39.8-20.8-62.7.5-54.9 45.6-100.3 100.5-101 27.6-.4 53.5 10 73.1 29.4 19.6 19.3 30.4 45.1 30.4 72.6 0 22.4-7.1 43.7-20.7 61.6-27.6 36.4-42.5 78.8-43.1 122.9h-76.5c-.6-43.7-15.7-87.2-42.9-122.8zm43 165.7v-6.1l76.6 8.8v2.4c0 1.3-.1 2.5-.3 3.7l-76.3-8.8zm0-21.2v-6.8h76.6V402l-76.6-8.8zm21.4 47.7c-8.1 0-15.1-4.5-18.7-11.1l64.6 7.4c-3.4 2.3-7.5 3.7-12 3.7h-33.9z"/><linearGradient id="b" x1="-57.444" x2="453.555" y1="-5.036" y2="491.964" gradientUnits="userSpaceOnUse"><stop offset="0" stop-color="#66cc91"/><stop offset="1" stop-color="#e5ff66"/></linearGradient><path fill="url(#b)" d="M153.8 198.2c-.6-3.9-.9-8-.8-12 0-4.1-3.3-7.5-7.4-7.6-4.1 0-7.5 3.3-7.6 7.4 0 4.8.3 9.6 1 14.3.6 3.7 3.8 6.4 7.4 6.4.4 0 .7 0 1.1-.1 4.1-.5 6.9-4.3 6.3-8.4z"/><linearGradient id="c" x1="-78.643" x2="432.357" y1="16.76" y2="513.76" gradientUnits="userSpaceOnUse"><stop offset="0" stop-color="#66cc91"/><stop offset="1" stop-color="#e5ff66"/></linearGradient><path fill="url(#c)" d="M197.9 312.1c.8 0 1.6-.1 2.3-.4 3.9-1.3 6.1-5.5 4.8-9.5-8.3-25.3-20.7-48.8-36.8-70-2.7-3.5-5-7.2-7-11.1-1.9-3.7-6.4-5.1-10.1-3.2-3.7 1.9-5.1 6.4-3.2 10.1 2.4 4.6 5.2 9.1 8.4 13.3 15.1 19.8 26.7 41.9 34.5 65.6 1 3.2 4 5.2 7.1 5.2z"/><linearGradient id="d" x1="-.817" x2="510.183" y1="-63.259" y2="433.741" gradientUnits="userSpaceOnUse"><stop offset="0" stop-color="#66cc91"/><stop offset="1" stop-color="#e5ff66"/></linearGradient><path fill="url(#d)" d="M306.7 212.6c-3.8-1.6-8.2.1-9.9 3.9-2.4 5.5-5.5 10.8-9.1 15.6-2.5 3.3-1.9 8 1.4 10.5 1.4 1 2.9 1.5 4.5 1.5 2.3 0 4.5-1 6-3 4.4-5.8 8.1-12.1 11-18.8 1.7-3.6 0-8-3.9-9.7z"/><linearGradient id="e" x1="32.116" x2="543.116" y1="-97.119" y2="399.881" gradientUnits="userSpaceOnUse"><stop offset="0" stop-color="#66cc91"/><stop offset="1" stop-color="#e5ff66"/></linearGradient><path fill="url(#e)" d="M227.9 111.9c41.4 0 75 33.6 75 75 0 2.4-.1 4.7-.3 7-.4 4.1 2.7 7.8 6.8 8.2h.7c3.8 0 7.1-2.9 7.5-6.8.3-2.8.4-5.6.4-8.4 0-49.6-40.4-90-90-90-4.1 0-7.5 3.4-7.5 7.5s3.3 7.5 7.4 7.5z"/><linearGradient id="f" x1="64.524" x2="575.524" y1="-130.44" y2="366.56" gradientUnits="userSpaceOnUse"><stop offset="0" stop-color="#66cc91"/><stop offset="1" stop-color="#e5ff66"/></linearGradient><path fill="url(#f)" d="M227.9 57c4.1 0 7.5-3.4 7.5-7.5v-42c0-4.1-3.4-7.5-7.5-7.5s-7.5 3.4-7.5 7.5v42c0 4.1 3.4 7.5 7.5 7.5z"/><linearGradient id="g" x1="15.004" x2="526.004" y1="-79.525" y2="417.475" gradientUnits="userSpaceOnUse"><stop offset="0" stop-color="#66cc91"/><stop offset="1" stop-color="#e5ff66"/></linearGradient><path fill="url(#g)" d="M152.1 71.8c1.4 2.4 3.9 3.8 6.5 3.8 1.3 0 2.6-.3 3.7-1 3.6-2.1 4.8-6.7 2.7-10.2L144 28c-2.1-3.6-6.7-4.8-10.2-2.7-3.6 2.1-4.8 6.7-2.7 10.2l21 36.3z"/><linearGradient id="h" x1="12.016" x2="523.016" y1="-76.453" y2="420.547" gradientUnits="userSpaceOnUse"><stop offset="0" stop-color="#66cc91"/><stop offset="1" stop-color="#e5ff66"/></linearGradient><path fill="url(#h)" d="M388.2 272.1l-36.4-21c-3.6-2.1-8.2-.8-10.2 2.7-2.1 3.6-.8 8.2 2.7 10.2l36.4 21c1.2.7 2.5 1 3.7 1 2.6 0 5.1-1.3 6.5-3.8 2.1-3.4.9-8-2.7-10.1z"/><linearGradient id="i" x1="-42.648" x2="468.353" y1="-20.25" y2="476.75" gradientUnits="userSpaceOnUse"><stop offset="0" stop-color="#66cc91"/><stop offset="1" stop-color="#e5ff66"/></linearGradient><path fill="url(#i)" d="M67.7 104.4l36.4 21c1.2.7 2.5 1 3.7 1 2.6 0 5.1-1.3 6.5-3.8 2.1-3.6.8-8.2-2.7-10.2l-36.4-21c-3.6-2.1-8.2-.8-10.2 2.7-2.2 3.6-.9 8.2 2.7 10.3z"/><linearGradient id="j" x1="62.336" x2="573.336" y1="-128.191" y2="368.809" gradientUnits="userSpaceOnUse"><stop offset="0" stop-color="#66cc91"/><stop offset="1" stop-color="#e5ff66"/></linearGradient><path fill="url(#j)" d="M408.7 180.7h-42c-4.1 0-7.5 3.4-7.5 7.5s3.4 7.5 7.5 7.5h42c4.1 0 7.5-3.4 7.5-7.5s-3.4-7.5-7.5-7.5z"/><linearGradient id="k" x1="-92.968" x2="418.032" y1="31.488" y2="528.488" gradientUnits="userSpaceOnUse"><stop offset="0" stop-color="#66cc91"/><stop offset="1" stop-color="#e5ff66"/></linearGradient><path fill="url(#k)" d="M96.7 188.2c0-4.1-3.4-7.5-7.5-7.5h-42c-4.1 0-7.5 3.4-7.5 7.5s3.4 7.5 7.5 7.5h42c4.1 0 7.5-3.3 7.5-7.5z"/><linearGradient id="l" x1="91.86" x2="602.86" y1="-158.546" y2="338.454" gradientUnits="userSpaceOnUse"><stop offset="0" stop-color="#66cc91"/><stop offset="1" stop-color="#e5ff66"/></linearGradient><path fill="url(#l)" d="M348.1 126.4c1.3 0 2.6-.3 3.7-1l36.4-21c3.6-2.1 4.8-6.7 2.7-10.2-2.1-3.6-6.7-4.8-10.2-2.7l-36.4 21c-3.6 2.1-4.8 6.7-2.7 10.2 1.4 2.3 3.9 3.7 6.5 3.7z"/><linearGradient id="m" x1="-122.492" x2="388.508" y1="61.844" y2="558.844" gradientUnits="userSpaceOnUse"><stop offset="0" stop-color="#66cc91"/><stop offset="1" stop-color="#e5ff66"/></linearGradient><path fill="url(#m)" d="M104 251.1l-36.4 21c-3.6 2.1-4.8 6.7-2.7 10.2 1.4 2.4 3.9 3.8 6.5 3.8 1.3 0 2.6-.3 3.7-1l36.4-21c3.6-2.1 4.8-6.7 2.7-10.2-2-3.6-6.6-4.8-10.2-2.8z"/><linearGradient id="n" x1="92.661" x2="603.661" y1="-159.37" y2="337.63" gradientUnits="userSpaceOnUse"><stop offset="0" stop-color="#66cc91"/><stop offset="1" stop-color="#e5ff66"/></linearGradient><path fill="url(#n)" d="M293.6 74.6c1.2.7 2.5 1 3.7 1 2.6 0 5.1-1.3 6.5-3.8l21-36.4c2.1-3.6.8-8.2-2.7-10.2-3.6-2.1-8.2-.8-10.2 2.7l-21 36.4c-2.1 3.6-.9 8.2 2.7 10.3z"/></svg>