<?xml version="1.0" encoding="utf-8"?>
<!-- Generator: Adobe Illustrator 23.0.3, SVG Export Plug-In . SVG Version: 6.00 Build 0)  -->
<svg version="1.1" id="Capa_1" xmlns="http://www.w3.org/2000/svg" xmlns:xlink="http://www.w3.org/1999/xlink" x="0px" y="0px"
	 viewBox="0 0 512 512" style="enable-background:new 0 0 512 512;" xml:space="preserve">
<style type="text/css">
	.st0{fill:url(#SVGID_1_);}
	.st1{fill:url(#SVGID_2_);}
	.st2{fill:url(#SVGID_3_);}
	.st3{fill:url(#SVGID_4_);}
	.st4{fill:url(#SVGID_5_);}
	.st5{fill:url(#SVGID_6_);}
	.st6{fill:url(#SVGID_7_);}
	.st7{fill:url(#SVGID_8_);}
	.st8{fill:url(#SVGID_9_);}
	.st9{fill:url(#SVGID_10_);}
	.st10{fill:url(#SVGID_11_);}
	.st11{fill:url(#SVGID_12_);}
	.st12{fill:url(#SVGID_13_);}
	.st13{fill:url(#SVGID_14_);}
	.st14{fill:url(#SVGID_15_);}
	.st15{fill:url(#SVGID_16_);}
	.st16{fill:url(#SVGID_17_);}
	.st17{fill:url(#SVGID_18_);}
	.st18{fill:url(#SVGID_19_);}
	.st19{fill:url(#SVGID_20_);}
	.st20{fill:url(#SVGID_21_);}
	.st21{fill:url(#SVGID_22_);}
	.st22{fill:none;stroke:url(#SVGID_23_);stroke-width:21;stroke-linecap:round;stroke-miterlimit:10;}
	.st23{fill:none;stroke:url(#SVGID_24_);stroke-width:21;stroke-linecap:round;stroke-miterlimit:10;}
</style>
<g>
	<g>
		<linearGradient id="SVGID_1_" gradientUnits="userSpaceOnUse" x1="41.7159" y1="465.1358" x2="517.8831" y2="-11.0314">
			<stop  offset="0" style="stop-color:#0088CC"/>
			<stop  offset="1" style="stop-color:#66FFE5"/>
		</linearGradient>
		<path class="st0" d="M124.3,373c1.2-5.3,1.8-10.9,3.9-15.8c7.1-17.4,14.4-34.8,22.2-52c6.3-14,14.8-26.8,23-39.7
			c10.5-16.7,20.7-33.7,31.4-50.4c7.3-11.2,15.4-22,22.8-33.1c3.2-4.7,6.2-9.5,8.3-14.7c3.2-7.6,0.9-15.1-2.3-22.2
			c-5.2-11.8-13.3-21.7-21.2-31.8c-2.9-3.7-6-7.3-8.9-11.1c-2.2-3-3.9-6.3-3.7-10.3c0.1-2.7,1.4-4,3.9-4.5
			c6.7-1.3,12.9,0.3,18.3,4.3c2.2,1.6,4.2,3.5,5.9,5.7c5,6.3,9.7,12.8,14.6,19.2c2.4,3.2,4.8,6.5,7.5,9.4c4.5,4.9,10.2,5.4,15.3,1
			c3.3-2.8,5.9-6.5,8.8-9.7c10.9-11.9,21.5-24.1,34.4-34.1c4.7-3.6,9.5-6.8,15.8-6.3c3.9,0.3,5.5,2.1,4,5.7c-1.1,2.6-2.6,5-4.4,7.1
			c-12,14-24.2,27.8-36.2,41.8c-4.7,5.5-8.9,11.3-13.1,17.2c-4.1,5.7-4.2,11.9-1.4,18.1c5.5,12,11.2,23.9,16.6,36
			c7.4,16.3,14.8,32.7,21.8,49.2c13.3,30.9,26.4,62,39.5,93c2.6,6,5.5,11.9,4.9,18.8c-0.3,3.1-0.7,6.2-3.9,7.5c-3,1.3-6,0.7-8.8-1.3
			c-5.4-3.9-8.3-9.6-10.9-15.5c-7.6-17.8-14.9-35.8-22.5-53.6c-15-35.2-29.7-70.5-47.7-104.3c-1.3-2.5-3-4.8-4.4-7.2
			c-2.4-4.5-9.4-4.3-12.4-1c-2.2,2.5-4.7,4.9-6.5,7.8c-11.2,17.3-22.6,34.5-33.4,52c-7.2,11.6-13.6,23.8-20.7,35.5
			c-15.6,26.3-28,54.5-40.8,82.3c-2,4.3-4.8,8.2-7.4,12c-2.2,3.2-4.9,4-8.1,2.9c-3.2-1-3-4-3.6-6.5c-0.1-0.4,0-0.9,0-1.4
			C124.7,373,124.4,373,124.3,373z"/>
		<linearGradient id="SVGID_2_" gradientUnits="userSpaceOnUse" x1="86.1992" y1="510.616" x2="549.7158" y2="47.0994">
			<stop  offset="0" style="stop-color:#0088CC"/>
			<stop  offset="1" style="stop-color:#66FFE5"/>
		</linearGradient>
		<path class="st1" d="M249,297.1c11.7-0.3,20.4,4.7,27.7,13.8c11.2,14,16.6,30.2,19.9,47.3c0.7,3.9-0.1,8.2-0.9,12.1
			c-0.9,4.5-6.5,6.6-10.2,3.7c-2.5-2-4.5-4.8-5.8-7.7c-3.4-7.6-6.2-15.5-9.5-23.2c-3.3-7.8-7.7-14.8-13.5-21
			c-7.3-7.7-17.5-6.2-23.8-1.5c-6.3,4.5-9.8,10.9-12.1,18.1c-2.7,8.9-5.4,17.7-8.2,26.6c-0.7,2.3-1.8,4.6-2.9,6.8
			c-1.7,3.2-4.8,4.6-8.2,3.9c-3.6-0.7-5.5-2.9-6-6.8c-1-7.5,0.5-14.9,1.8-22.2c2.8-15.8,11.2-28.7,22-40.1c5.5-5.8,13.1-8,21-8.9
			C243.1,297.5,246,297.3,249,297.1z"/>
	</g>
	<g>
		<linearGradient id="SVGID_3_" gradientUnits="userSpaceOnUse" x1="144.7674" y1="604.8326" x2="624.3152" y2="125.2848">
			<stop  offset="0" style="stop-color:#0088CC"/>
			<stop  offset="1" style="stop-color:#66FFE5"/>
		</linearGradient>
		<path class="st2" d="M469.4,296.4c5.5,0,10-4.5,10-10V274c0-5.5-4.5-10-10-10s-10,4.5-10,10v12.4
			C459.4,292,463.9,296.4,469.4,296.4z"/>
		<linearGradient id="SVGID_4_" gradientUnits="userSpaceOnUse" x1="159.4363" y1="621.7637" x2="638.9962" y2="142.2038">
			<stop  offset="0" style="stop-color:#0088CC"/>
			<stop  offset="1" style="stop-color:#66FFE5"/>
		</linearGradient>
		<path class="st3" d="M469.4,328c5.5,0,10-4.5,10-10v-12.4c0-5.5-4.5-10-10-10s-10,4.5-10,10V318C459.4,323.5,463.9,328,469.4,328z
			"/>
		<linearGradient id="SVGID_5_" gradientUnits="userSpaceOnUse" x1="177.3397" y1="603.8603" x2="629.9622" y2="151.2378">
			<stop  offset="0" style="stop-color:#0088CC"/>
			<stop  offset="1" style="stop-color:#66FFE5"/>
		</linearGradient>
		<path class="st4" d="M479,306h12.4c5.5,0,10-4.5,10-10s-4.5-10-10-10H479c-5.5,0-10,4.5-10,10S473.5,306,479,306z"/>
		<linearGradient id="SVGID_6_" gradientUnits="userSpaceOnUse" x1="162.5021" y1="587.098" x2="615.1245" y2="134.4755">
			<stop  offset="0" style="stop-color:#0088CC"/>
			<stop  offset="1" style="stop-color:#66FFE5"/>
		</linearGradient>
		<path class="st5" d="M447.4,306h12.4c5.5,0,10-4.5,10-10s-4.5-10-10-10h-12.4c-5.5,0-10,4.5-10,10S441.9,306,447.4,306z"/>
	</g>
	<g>
		<linearGradient id="SVGID_7_" gradientUnits="userSpaceOnUse" x1="-42.6927" y1="364.2927" x2="436.8551" y2="-115.2551">
			<stop  offset="0" style="stop-color:#0088CC"/>
			<stop  offset="1" style="stop-color:#66FFE5"/>
		</linearGradient>
		<path class="st6" d="M41.4,296.4c5.5,0,10-4.5,10-10V274c0-5.5-4.5-10-10-10s-10,4.5-10,10v12.4C31.4,292,35.9,296.4,41.4,296.4z"
			/>
		<linearGradient id="SVGID_8_" gradientUnits="userSpaceOnUse" x1="-28.0177" y1="381.2177" x2="451.5421" y2="-98.3421">
			<stop  offset="0" style="stop-color:#0088CC"/>
			<stop  offset="1" style="stop-color:#66FFE5"/>
		</linearGradient>
		<path class="st7" d="M41.4,328c5.5,0,10-4.5,10-10v-12.4c0-5.5-4.5-10-10-10s-10,4.5-10,10V318C31.4,323.5,35.9,328,41.4,328z"/>
		<linearGradient id="SVGID_9_" gradientUnits="userSpaceOnUse" x1="-23.6261" y1="376.8261" x2="428.9964" y2="-75.7964">
			<stop  offset="0" style="stop-color:#0088CC"/>
			<stop  offset="1" style="stop-color:#66FFE5"/>
		</linearGradient>
		<path class="st8" d="M51,306h12.4c5.5,0,10-4.5,10-10s-4.5-10-10-10H51c-5.5,0-10,4.5-10,10S45.5,306,51,306z"/>
		<linearGradient id="SVGID_10_" gradientUnits="userSpaceOnUse" x1="-38.4637" y1="360.0638" x2="414.1587" y2="-92.5587">
			<stop  offset="0" style="stop-color:#0088CC"/>
			<stop  offset="1" style="stop-color:#66FFE5"/>
		</linearGradient>
		<path class="st9" d="M19.4,306h12.4c5.5,0,10-4.5,10-10s-4.5-10-10-10H19.4c-5.5,0-10,4.5-10,10S13.9,306,19.4,306z"/>
	</g>
	<g>
		<linearGradient id="SVGID_11_" gradientUnits="userSpaceOnUse" x1="-67.1839" y1="348.2839" x2="412.3639" y2="-131.2639">
			<stop  offset="0" style="stop-color:#0088CC"/>
			<stop  offset="1" style="stop-color:#66FFE5"/>
		</linearGradient>
		<path class="st10" d="M256,41.3c5.5,0,10-4.5,10-10V18.9c0-5.5-4.5-10-10-10s-10,4.5-10,10v12.4C246,36.9,250.5,41.3,256,41.3z"/>
		<linearGradient id="SVGID_12_" gradientUnits="userSpaceOnUse" x1="-52.5149" y1="365.2149" x2="427.045" y2="-114.3449">
			<stop  offset="0" style="stop-color:#0088CC"/>
			<stop  offset="1" style="stop-color:#66FFE5"/>
		</linearGradient>
		<path class="st11" d="M256,72.9c5.5,0,10-4.5,10-10V50.5c0-5.5-4.5-10-10-10s-10,4.5-10,10v12.4C246,68.4,250.5,72.9,256,72.9z"/>
		<linearGradient id="SVGID_13_" gradientUnits="userSpaceOnUse" x1="-34.7176" y1="347.4176" x2="417.9401" y2="-105.2401">
			<stop  offset="0" style="stop-color:#0088CC"/>
			<stop  offset="1" style="stop-color:#66FFE5"/>
		</linearGradient>
		<path class="st12" d="M265.6,50.9H278c5.5,0,10-4.5,10-10s-4.5-10-10-10h-12.4c-5.5,0-10,4.5-10,10S260,50.9,265.6,50.9z"/>
		<linearGradient id="SVGID_14_" gradientUnits="userSpaceOnUse" x1="-49.5306" y1="330.6306" x2="403.0919" y2="-121.9919">
			<stop  offset="0" style="stop-color:#0088CC"/>
			<stop  offset="1" style="stop-color:#66FFE5"/>
		</linearGradient>
		<path class="st13" d="M234,50.9h12.4c5.5,0,10-4.5,10-10s-4.5-10-10-10H234c-5.5,0-10,4.5-10,10S228.5,50.9,234,50.9z"/>
	</g>
	<g>
		<linearGradient id="SVGID_15_" gradientUnits="userSpaceOnUse" x1="-56.1023" y1="330.0835" x2="396.5202" y2="-122.539">
			<stop  offset="0" style="stop-color:#0088CC"/>
			<stop  offset="1" style="stop-color:#66FFE5"/>
		</linearGradient>
		<path class="st14" d="M113.3,144.5c0,5.5,4.5,10,10,10h12.4c5.5,0,10-4.5,10-10s-4.5-10-10-10h-12.4
			C117.7,134.5,113.3,139,113.3,144.5z"/>
		<linearGradient id="SVGID_16_" gradientUnits="userSpaceOnUse" x1="-80.3215" y1="302.7215" x2="372.301" y2="-149.901">
			<stop  offset="0" style="stop-color:#0088CC"/>
			<stop  offset="1" style="stop-color:#66FFE5"/>
		</linearGradient>
		<path class="st15" d="M61.7,144.5c0,5.5,4.5,10,10,10h12.4c5.5,0,10-4.5,10-10s-4.5-10-10-10H71.7C66.2,134.5,61.7,139,61.7,144.5
			z"/>
		<linearGradient id="SVGID_17_" gradientUnits="userSpaceOnUse" x1="-66.4547" y1="340.4547" x2="413.1052" y2="-139.1052">
			<stop  offset="0" style="stop-color:#0088CC"/>
			<stop  offset="1" style="stop-color:#66FFE5"/>
		</linearGradient>
		<path class="st16" d="M93.7,164.1v12.4c0,5.5,4.5,10,10,10s10-4.5,10-10v-12.4c0-5.5-4.5-10-10-10S93.7,158.6,93.7,164.1z"/>
		<linearGradient id="SVGID_18_" gradientUnits="userSpaceOnUse" x1="-90.4215" y1="312.8215" x2="389.1384" y2="-166.7384">
			<stop  offset="0" style="stop-color:#0088CC"/>
			<stop  offset="1" style="stop-color:#66FFE5"/>
		</linearGradient>
		<path class="st17" d="M93.7,112.5v12.4c0,5.5,4.5,10,10,10s10-4.5,10-10v-12.4c0-5.5-4.5-10-10-10C98.2,102.5,93.7,107,93.7,112.5
			z"/>
	</g>
	<g>
		<linearGradient id="SVGID_19_" gradientUnits="userSpaceOnUse" x1="86.3799" y1="491.0201" x2="539.0024" y2="38.3976">
			<stop  offset="0" style="stop-color:#0088CC"/>
			<stop  offset="1" style="stop-color:#66FFE5"/>
		</linearGradient>
		<path class="st18" d="M417.1,144.1c0,5.5,4.5,10,10,10h12.4c5.5,0,10-4.5,10-10s-4.5-10-10-10h-12.4
			C421.6,134.1,417.1,138.6,417.1,144.1z"/>
		<linearGradient id="SVGID_20_" gradientUnits="userSpaceOnUse" x1="62.1513" y1="463.6487" x2="514.7738" y2="11.0262">
			<stop  offset="0" style="stop-color:#0088CC"/>
			<stop  offset="1" style="stop-color:#66FFE5"/>
		</linearGradient>
		<path class="st19" d="M365.5,144.1c0,5.5,4.5,10,10,10h12.4c5.5,0,10-4.5,10-10s-4.5-10-10-10h-12.4
			C370,134.1,365.5,138.6,365.5,144.1z"/>
		<linearGradient id="SVGID_21_" gradientUnits="userSpaceOnUse" x1="66.4169" y1="510.9831" x2="545.9767" y2="31.4232">
			<stop  offset="0" style="stop-color:#0088CC"/>
			<stop  offset="1" style="stop-color:#66FFE5"/>
		</linearGradient>
		<path class="st20" d="M397.5,163.7v12.4c0,5.5,4.5,10,10,10s10-4.5,10-10v-12.4c0-5.5-4.5-10-10-10S397.5,158.2,397.5,163.7z"/>
		<linearGradient id="SVGID_22_" gradientUnits="userSpaceOnUse" x1="42.4501" y1="483.3499" x2="522.0099" y2="3.79">
			<stop  offset="0" style="stop-color:#0088CC"/>
			<stop  offset="1" style="stop-color:#66FFE5"/>
		</linearGradient>
		<path class="st21" d="M397.5,112.1v12.4c0,5.5,4.5,10,10,10s10-4.5,10-10v-12.4c0-5.5-4.5-10-10-10S397.5,106.6,397.5,112.1z"/>
	</g>
</g>
<linearGradient id="SVGID_23_" gradientUnits="userSpaceOnUse" x1="11.7" y1="475.8899" x2="510.6" y2="475.8899">
	<stop  offset="0" style="stop-color:#0088CC"/>
	<stop  offset="1" style="stop-color:#66FFE5"/>
</linearGradient>
<path class="st22" d="M22.2,500.4c122.2-38.6,334-75.1,477.9-23.6"/>
<linearGradient id="SVGID_24_" gradientUnits="userSpaceOnUse" x1="8.1" y1="439.8844" x2="505.2" y2="439.8844">
	<stop  offset="0" style="stop-color:#0088CC"/>
	<stop  offset="1" style="stop-color:#66FFE5"/>
</linearGradient>
<path class="st23" d="M18.6,469.9c112.1-50.2,310.3-80.3,476.1-44.1"/>
</svg>
