<?xml version="1.0" encoding="utf-8"?>
<!-- Generator: Adobe Illustrator 23.0.3, SVG Export Plug-In . SVG Version: 6.00 Build 0)  -->
<svg version="1.1" id="Camada_1" xmlns="http://www.w3.org/2000/svg" xmlns:xlink="http://www.w3.org/1999/xlink" x="0px" y="0px"
	 viewBox="0 0 512 512" style="enable-background:new 0 0 512 512;" xml:space="preserve">
<style type="text/css">
	.st0{fill:url(#SVGID_1_);}
	.st1{fill:url(#SVGID_2_);}
	.st2{fill:url(#SVGID_3_);}
	.st3{fill:url(#SVGID_4_);}
	.st4{fill:url(#SVGID_5_);}
	.st5{fill:url(#SVGID_6_);}
	.st6{fill:url(#SVGID_7_);}
	.st7{fill:url(#SVGID_8_);}
	.st8{fill:url(#SVGID_9_);}
	.st9{fill:url(#SVGID_10_);}
	.st10{fill:url(#SVGID_11_);}
</style>
<g>
	<linearGradient id="SVGID_1_" gradientUnits="userSpaceOnUse" x1="88.1773" y1="600.8228" x2="600.1668" y2="88.8333">
		<stop  offset="0" style="stop-color:#66CC91"/>
		<stop  offset="1" style="stop-color:#E5FF66"/>
	</linearGradient>
	<path class="st0" d="M403.6,299.6c1.9-1.9,2.9-4.4,2.9-7.1c0-2.6-1.1-5.2-2.9-7.1s-4.4-2.9-7.1-2.9s-5.2,1.1-7.1,2.9
		s-2.9,4.4-2.9,7.1c0,2.6,1.1,5.2,2.9,7.1c1.9,1.9,4.4,2.9,7.1,2.9C399.2,302.6,401.8,301.5,403.6,299.6z"/>
	<linearGradient id="SVGID_2_" gradientUnits="userSpaceOnUse" x1="43.9673" y1="556.8452" x2="556.0294" y2="44.7831">
		<stop  offset="0" style="stop-color:#66CC91"/>
		<stop  offset="1" style="stop-color:#E5FF66"/>
	</linearGradient>
	<path class="st1" d="M507.1,285.8c-5.2-7.6-13-12.6-22-14.2c-12.4-2.2-24.5,2.7-32,11.9v-79.1c0-18.4-14.9-33.3-33.3-33.3
		c-4.7,0-9.1,1-13.2,2.7V169c0-18.4-14.9-33.3-33.3-33.3s-33.3,15-33.3,33.4v4.8c-4.1-1.8-8.5-2.7-13.2-2.7
		c-18.4,0-33.3,14.9-33.3,33.3V227c-4-1.8-8.5-2.7-13.2-2.7c-9.1,0-17.3,3.6-23.3,9.5c-6-5.9-14.2-9.5-23.3-9.5
		c-4.7,0-9.2,1-13.2,2.7v-22.6c0-18.4-14.9-33.3-33.3-33.3c-4.7,0-9.2,1-13.2,2.7V169c0-18.4-14.9-33.3-33.3-33.3
		s-33.3,14.9-33.3,33.3v4.8c-4.1-1.8-8.5-2.7-13.2-2.7c-18.4,0-33.3,14.9-33.3,33.3v79.1c-7.5-9.2-19.7-14.1-32-11.9
		c-9,1.6-16.8,6.6-22,14.2s-7.1,16.7-5.3,25.6l12.2,61.8c4.8,24.3,16.6,46.4,34.1,63.9l8.9,8.9c8.6,8.6,13.3,20,13.3,32.1V502
		c0,5.5,4.5,10,10,10s10-4.5,10-10v-23.9c0-17.5-6.8-33.9-19.2-46.3l-8.9-8.9c-14.7-14.7-24.6-33.2-28.6-53.6l-12.2-61.8
		c-0.7-3.7,0-7.4,2.2-10.5s5.3-5.1,9-5.8c7.1-1.3,14.1,3.3,15.8,10.3l6.3,25.7c0.9,3.6,3.1,6.5,6,8.3c0,0,0,0,0.1,0l0.2,0.1
		c0.1,0,0.1,0.1,0.2,0.1l24,14.6c11.1,6.8,18,19.1,18,32.1c0,5.5,4.5,10,10,10s10-4.5,10-10c0-19.9-10.6-38.8-27.6-49.1L81,324.6
		c0-0.2,0-0.4,0-0.5V204.4c0-7.3,6-13.3,13.3-13.3c6.8,0,12.5,5.2,13.2,11.8v89.6c0,5.5,4.5,10,10,10s10-4.5,10-10V169.1
		c0-7.3,6-13.3,13.3-13.3s13.3,6,13.3,13.3v123.5c0,5.5,4.5,10,10,10s10-4.5,10-10V203c0.7-6.6,6.4-11.8,13.2-11.8
		c7.3,0,13.3,6,13.3,13.3l-0.1,88.1c0,5.5,4.5,10,10,10s10-4.5,10-10l0.1-36.4c0.7-6.6,6.4-11.8,13.2-11.8c7.3,0,13.3,6,13.3,13.3
		v100.5c0,27.9-10.9,54-30.6,73.7c-12.4,12.4-19.2,28.8-19.2,46.3V502c0,5.5,4.5,10,10,10s10-4.5,10-10v-23.9
		c0-12.1,4.7-23.5,13.3-32.1c11.4-11.4,20.3-24.6,26.5-38.9c6.2,14.4,15.1,27.5,26.5,38.9c8.6,8.6,13.3,20,13.3,32.1V502
		c0,5.5,4.5,10,10,10s10-4.5,10-10v-23.9c0-17.5-6.8-33.9-19.2-46.3C277.9,412.2,267,386,267,358.1V257.6c0-7.3,6-13.3,13.3-13.3
		c6.8,0,12.5,5.2,13.2,11.8l0.1,36.4c0,5.5,4.5,10,10,10s10-4.5,10-10l-0.1-88.1c0-7.3,6-13.3,13.3-13.3c6.8,0,12.5,5.2,13.2,11.8
		v89.6c0,5.5,4.5,10,10,10s10-4.5,10-10V169.1c0-7.3,6-13.3,13.3-13.3s13.3,6,13.3,13.3V256c0,5.5,4.5,10,10,10s10-4.5,10-10v-53
		c0.7-6.6,6.4-11.8,13.2-11.8c7.3,0,13.3,6,13.3,13.3v119.7c0,0.2,0,0.4,0,0.5l-14.3,8.8c-17,10.4-27.6,29.2-27.6,49.1
		c0,5.5,4.5,10,10,10s10-4.5,10-10c0-13,6.9-25.3,18-32.1l24.3-14.9c0.1,0,0.1-0.1,0.2-0.1c2.8-1.8,5-4.6,5.9-8.2l6.3-25.7
		c1.7-7,8.7-11.6,15.8-10.3c3.7,0.6,6.9,2.7,9,5.8c2.1,3.1,2.9,6.8,2.2,10.5l-12.2,61.8c-4,20.4-13.9,38.9-28.6,53.6l-8.9,8.9
		c-12.4,12.4-19.2,28.8-19.2,46.3V502c0,5.5,4.5,10,10,10s10-4.5,10-10v-23.9c0-12.1,4.7-23.5,13.3-32.1l8.9-8.9
		c17.5-17.5,29.3-39.6,34.1-63.9l12.2-61.8C514.1,302.5,512.3,293.3,507.1,285.8z"/>
	<linearGradient id="SVGID_3_" gradientUnits="userSpaceOnUse" x1="-96.43" y1="416.9796" x2="415.6239" y2="-95.0743">
		<stop  offset="0" style="stop-color:#66CC91"/>
		<stop  offset="1" style="stop-color:#E5FF66"/>
	</linearGradient>
	<path class="st2" d="M209,136.9c21,19.9,41.7,33.4,42.6,34c1.7,1.1,3.5,1.6,5.4,1.6s3.8-0.5,5.4-1.6c0.9-0.6,21.6-14,42.6-34
		c29.4-27.9,44.3-53.9,44.3-77.5c0-32.8-25.9-59.5-57.6-59.5c-12.5,0-24.7,4.3-34.6,11.9C247.1,4.3,234.9,0,222.4,0
		c-31.8,0-57.7,26.7-57.7,59.5C164.7,83,179.6,109.1,209,136.9z M222.4,20c10.4,0,20,4.3,27.2,12.2c1.9,2.1,4.6,3.3,7.4,3.3
		c2.8,0,5.5-1.2,7.4-3.3c7.2-7.9,16.8-12.2,27.2-12.2c20.8,0,37.6,17.7,37.6,39.5c0,33.6-48,74-72.3,91
		c-24.3-16.9-72.3-57.3-72.3-91C184.7,37.7,201.6,20,222.4,20z"/>
	<linearGradient id="SVGID_4_" gradientUnits="userSpaceOnUse" x1="-14.6547" y1="497.8547" x2="497.0423" y2="-13.8423">
		<stop  offset="0" style="stop-color:#66CC91"/>
		<stop  offset="1" style="stop-color:#E5FF66"/>
	</linearGradient>
	<path class="st3" d="M449,50.4c5.5,0,10-4.5,10-10V28c0-5.5-4.5-10-10-10s-10,4.5-10,10v12.4C439,46,443.5,50.4,449,50.4z"/>
	<linearGradient id="SVGID_5_" gradientUnits="userSpaceOnUse" x1="15.1862" y1="527.6138" x2="526.8826" y2="15.9174">
		<stop  offset="0" style="stop-color:#66CC91"/>
		<stop  offset="1" style="stop-color:#E5FF66"/>
	</linearGradient>
	<path class="st4" d="M449,110c5.5,0,10-4.5,10-10V87.6c0-5.5-4.5-10-10-10s-10,4.5-10,10V100C439,105.5,443.5,110,449,110z"/>
	<linearGradient id="SVGID_6_" gradientUnits="userSpaceOnUse" x1="14.6518" y1="528.1483" x2="526.9577" y2="15.8423">
		<stop  offset="0" style="stop-color:#66CC91"/>
		<stop  offset="1" style="stop-color:#E5FF66"/>
	</linearGradient>
	<path class="st5" d="M472.6,74H485c5.5,0,10-4.5,10-10s-4.5-10-10-10h-12.4c-5.5,0-10,4.5-10,10S467,74,472.6,74z"/>
	<linearGradient id="SVGID_7_" gradientUnits="userSpaceOnUse" x1="-15.1893" y1="498.3893" x2="497.1172" y2="-13.9172">
		<stop  offset="0" style="stop-color:#66CC91"/>
		<stop  offset="1" style="stop-color:#E5FF66"/>
	</linearGradient>
	<path class="st6" d="M413,74h12.4c5.5,0,10-4.5,10-10s-4.5-10-10-10H413c-5.5,0-10,4.5-10,10S407.5,74,413,74z"/>
	<linearGradient id="SVGID_8_" gradientUnits="userSpaceOnUse" x1="-182.284" y1="331.134" x2="329.4097" y2="-180.5597">
		<stop  offset="0" style="stop-color:#66CC91"/>
		<stop  offset="1" style="stop-color:#E5FF66"/>
	</linearGradient>
	<path class="st7" d="M64.3,100.8c5.5,0,10-4.5,10-10V78.3c0-5.5-4.5-10-10-10s-10,4.5-10,10v12.4C54.3,96.3,58.8,100.8,64.3,100.8z
		"/>
	<linearGradient id="SVGID_9_" gradientUnits="userSpaceOnUse" x1="-152.4702" y1="360.8702" x2="359.2267" y2="-150.8267">
		<stop  offset="0" style="stop-color:#66CC91"/>
		<stop  offset="1" style="stop-color:#E5FF66"/>
	</linearGradient>
	<path class="st8" d="M64.3,160.3c5.5,0,10-4.5,10-10v-12.4c0-5.5-4.5-10-10-10s-10,4.5-10,10v12.4
		C54.3,155.9,58.8,160.3,64.3,160.3z"/>
	<linearGradient id="SVGID_10_" gradientUnits="userSpaceOnUse" x1="-152.7962" y1="361.0962" x2="359.5103" y2="-151.2103">
		<stop  offset="0" style="stop-color:#66CC91"/>
		<stop  offset="1" style="stop-color:#E5FF66"/>
	</linearGradient>
	<path class="st9" d="M87.8,124.3h12.4c5.5,0,10-4.5,10-10s-4.5-10-10-10H87.8c-5.5,0-10,4.5-10,10
		C77.8,119.9,82.3,124.3,87.8,124.3z"/>
	<linearGradient id="SVGID_11_" gradientUnits="userSpaceOnUse" x1="-182.5867" y1="331.3867" x2="329.7198" y2="-180.9198">
		<stop  offset="0" style="stop-color:#66CC91"/>
		<stop  offset="1" style="stop-color:#E5FF66"/>
	</linearGradient>
	<path class="st10" d="M28.3,124.3h12.4c5.5,0,10-4.5,10-10s-4.5-10-10-10H28.3c-5.5,0-10,4.5-10,10
		C18.3,119.9,22.8,124.3,28.3,124.3z"/>
</g>
</svg>
