<svg xmlns="http://www.w3.org/2000/svg" version="1" viewBox="0 0 511 511"><linearGradient id="a" x1="17" x2="580" y1="-60" y2="505" gradientUnits="userSpaceOnUse"><stop offset="0" stop-color="#66cc91"/><stop offset="1" stop-color="#e5ff66"/></linearGradient><path fill="url(#a)" d="M508 152a130 130 0 0 0-218-63l-16 16v-9c12-15 19-33 19-54V32c0-10-8-18-18-18h-53c-4 0-7 3-7 7s3 8 7 8h53c2 0 3 1 3 3v10c0 36-27 66-62 69 8-6 16-13 21-22 3-3 2-8-1-10-4-2-9-1-11 2-9 13-22 23-37 28 7-6 13-12 18-20 2-3 1-8-2-10-4-2-8-1-11 2a69 69 0 0 1-57 31H54c-2 0-3-2-3-3V98c0-38 31-69 69-69h70c4 0 7-3 7-8s-3-7-7-7h-70c-44 0-80 34-84 77a130 130 0 0 0-11 166 8 8 0 0 0 12-9 115 115 0 0 1 0-134c1 5 5 9 9 11v29a36 36 0 0 0 32 64 83 83 0 0 0 164 0l13 2a36 36 0 0 0 19-66v-28l26-26a114 114 0 0 1 162 0c31 30 42 76 28 117a8 8 0 0 0 7 10c3 0 6-2 7-5 8-23 9-47 4-70zM61 127h13c-3 7-4 14-4 22a30 30 0 0 0-9 0v-22zm-16 57a21 21 0 0 1 27-19l4 37c-3 2-7 3-10 3-12 0-21-9-21-21zm115 87c-34 0-63-26-68-60l-7-59c-1-9 1-18 5-25h119c7 0 13-1 19-3 6 8 9 18 7 28l-7 59c-4 34-33 60-68 60zm95-66c-4 0-8-1-11-3l5-37 6-1a21 21 0 0 1 0 41zm0-56h-4c0-10-3-21-8-30 6-2 11-5 16-9v39h-4z"/><linearGradient id="b" x1="-32" x2="531" y1="-11" y2="554" gradientUnits="userSpaceOnUse"><stop offset="0" stop-color="#66cc91"/><stop offset="1" stop-color="#e5ff66"/></linearGradient><path fill="url(#b)" d="M487 243c-4-3-8-2-11 2l-13 17-16 16-12-16a124 124 0 0 0-216 96l2 17c-4 6-7 13-7 21 0 12 6 22 15 28l-11 7-44-43 24-24a39 39 0 0 0 0-55 39 39 0 0 0-56 0l-5 5-5-5a39 39 0 0 0-44-8l-30-30c-3-3-8-3-11 0s-3 8 0 10l29 29a39 39 0 0 0 1 54l50 50a15 15 0 0 0 21 0l16-16 44 44c-2 6-4 12-4 18a39 39 0 0 0 75 13l13 6a82 82 0 0 0 101 0l14-6c5 15 19 26 36 26a39 39 0 0 0 14-75 35 35 0 0 0 7-49l2-17c3-23-2-46-11-67l18-19c6-6 12-12 16-19 2-3 1-8-2-10zM138 403h-1l-49-49a24 24 0 1 1 34-35l10 11c3 3 8 3 11 0l10-11a24 24 0 1 1 34 35l-49 49zm205-167a109 109 0 0 1 108 121l-1 7-7-2 3-17a7 7 0 1 0-15-2l-4 29-1 1-1 1c-26-4-47-15-62-32a75 75 0 0 1-16-24c-1-2-2-4-5-5-2 0-5 0-7 2-29 27-68 21-84 18-4-1-8 1-9 5s2 8 6 9l4 1 1 13h-4c-5 0-10 1-14 3l-1-8-1-12c0-59 49-108 110-108zm74 212c3-6 5-13 6-19l10 2-16 17zm19-32c-4 0-8-1-11-3l3-25c3 0 5-1 7-3 3-2 5-5 6-9a20 20 0 0 1-5 40zm-184 15l10-2c1 6 3 13 6 19l-16-17zm-3-55h6l5 37c-3 2-7 3-11 3-11 0-20-9-20-20s9-20 20-20zm-7 108a23 23 0 0 1-3-47c7 11 16 21 26 28-2 11-11 19-23 19zm34-62l-9-72c19 2 46 0 70-18 8 16 29 45 76 55l-4 35a67 67 0 0 1-133 0zm190 38a23 23 0 0 1-46 5c10-8 19-17 26-28 12 2 20 12 20 23z"/><linearGradient id="c" x1="-53" x2="510" y1="10" y2="575" gradientUnits="userSpaceOnUse"><stop offset="0" stop-color="#66cc91"/><stop offset="1" stop-color="#e5ff66"/></linearGradient><path fill="url(#c)" d="M117 171c-4 0-7 3-7 8v4c0 4 3 7 8 7 4 0 7-3 7-7v-5c0-4-4-7-8-7z"/><linearGradient id="d" x1="-11" x2="552" y1="-32" y2="533" gradientUnits="userSpaceOnUse"><stop offset="0" stop-color="#66cc91"/><stop offset="1" stop-color="#e5ff66"/></linearGradient><path fill="url(#d)" d="M200 171c-4 0-8 3-8 8v4c1 4 4 7 8 7s8-3 7-7v-5c0-4-3-7-7-7z"/><linearGradient id="e" x1="-47" x2="516" y1="4" y2="569" gradientUnits="userSpaceOnUse"><stop offset="0" stop-color="#66cc91"/><stop offset="1" stop-color="#e5ff66"/></linearGradient><path fill="url(#e)" d="M188 203c-3-2-8-1-10 2a23 23 0 0 1-38 0c-3-3-7-4-11-2-3 3-4 8-2 11a38 38 0 0 0 63 0c2-3 2-8-2-11z"/><linearGradient id="f" x1="-66" x2="497" y1="23" y2="588" gradientUnits="userSpaceOnUse"><stop offset="0" stop-color="#66cc91"/><stop offset="1" stop-color="#e5ff66"/></linearGradient><path fill="url(#f)" d="M302 382c-4 0-8 4-8 8v4c1 4 4 8 8 8s8-4 7-8v-4c0-4-3-8-7-8z"/><linearGradient id="g" x1="-25" x2="538" y1="-18" y2="547" gradientUnits="userSpaceOnUse"><stop offset="0" stop-color="#66cc91"/><stop offset="1" stop-color="#e5ff66"/></linearGradient><path fill="url(#g)" d="M391 390c-1-4-4-8-8-8s-8 4-7 8v4c0 4 3 8 7 8s8-4 8-8v-4z"/><linearGradient id="h" x1="-60" x2="503" y1="17" y2="582" gradientUnits="userSpaceOnUse"><stop offset="0" stop-color="#66cc91"/><stop offset="1" stop-color="#e5ff66"/></linearGradient><path fill="url(#h)" d="M372 414c-4-2-8-1-11 2a23 23 0 0 1-37 0c-3-3-7-4-11-2-3 3-4 7-1 11a38 38 0 0 0 61 0c3-3 2-8-1-11z"/><linearGradient id="i" x1="-186" x2="377" y1="143" y2="708" gradientUnits="userSpaceOnUse"><stop offset="0" stop-color="#66cc91"/><stop offset="1" stop-color="#e5ff66"/></linearGradient><path fill="url(#i)" d="M41 380c4 0 8-3 8-8v-3c0-4-3-7-8-7 1 0 1 0 0 0-4 0-7 3-7 7v3c0 4 3 8 7 8z"/><linearGradient id="j" x1="-201" x2="362" y1="157" y2="722" gradientUnits="userSpaceOnUse"><stop offset="0" stop-color="#66cc91"/><stop offset="1" stop-color="#e5ff66"/></linearGradient><path fill="url(#j)" d="M41 391c-4 0-7 3-7 8v3c0 4 3 7 7 7s8-3 8-7v-3c0-4-4-8-8-8z"/><linearGradient id="k" x1="-186" x2="377" y1="143" y2="708" gradientUnits="userSpaceOnUse"><stop offset="0" stop-color="#66cc91"/><stop offset="1" stop-color="#e5ff66"/></linearGradient><path fill="url(#k)" d="M65 386c0-4-3-8-7-8h-3-1c-4 0-7 3-7 8 0 4 3 7 7 7h3c5 0 8-3 8-7z"/><linearGradient id="l" x1="-201" x2="362" y1="157" y2="722" gradientUnits="userSpaceOnUse"><stop offset="0" stop-color="#66cc91"/><stop offset="1" stop-color="#e5ff66"/></linearGradient><path fill="url(#l)" d="M28 378h-3c-4 0-7 3-8 7 1 4 4 8 8 8h3c4 0 8-3 8-8 0-4-4-7-8-7z"/><linearGradient id="m" x1="-186" x2="377" y1="143" y2="708" gradientUnits="userSpaceOnUse"><stop offset="0" stop-color="#66cc91"/><stop offset="1" stop-color="#e5ff66"/></linearGradient><path fill="url(#m)" d="M83 422c4 0 7-4 8-8v-3c0-4-4-7-8-7-4-1-7 3-8 7l1 3c0 4 3 8 7 8z"/><linearGradient id="n" x1="-201" x2="362" y1="157" y2="722" gradientUnits="userSpaceOnUse"><stop offset="0" stop-color="#66cc91"/><stop offset="1" stop-color="#e5ff66"/></linearGradient><path fill="url(#n)" d="M83 433c-4 0-8 3-8 8v3c0 4 4 7 8 7s7-3 7-7v-3c0-4-3-8-7-8z"/><linearGradient id="o" x1="-186" x2="377" y1="143" y2="708" gradientUnits="userSpaceOnUse"><stop offset="0" stop-color="#66cc91"/><stop offset="1" stop-color="#e5ff66"/></linearGradient><path fill="url(#o)" d="M99 420h-3c-4 0-7 3-7 8 0 4 3 7 7 7h3c4 0 8-3 8-7s-4-8-8-8z"/><linearGradient id="p" x1="-201" x2="362" y1="157" y2="722" gradientUnits="userSpaceOnUse"><stop offset="0" stop-color="#66cc91"/><stop offset="1" stop-color="#e5ff66"/></linearGradient><path fill="url(#p)" d="M70 420h-3c-4 0-8 3-8 7s3 8 8 8h3c4 0 7-3 7-8 0-4-3-7-7-7z"/><linearGradient id="q" x1="196" x2="759" y1="-238" y2="327" gradientUnits="userSpaceOnUse"><stop offset="0" stop-color="#66cc91"/><stop offset="1" stop-color="#e5ff66"/></linearGradient><path fill="url(#q)" d="M470 46c4 0 7-4 7-8v-3c0-4-3-7-7-7s-7 3-8 7v3c0 4 4 8 8 8z"/><linearGradient id="r" x1="181" x2="744" y1="-223" y2="342" gradientUnits="userSpaceOnUse"><stop offset="0" stop-color="#66cc91"/><stop offset="1" stop-color="#e5ff66"/></linearGradient><path fill="url(#r)" d="M470 57c-4 0-8 3-8 8v3c0 4 3 7 7 7h1c4 0 7-3 7-7v-3c0-4-3-8-7-8z"/><linearGradient id="s" x1="196" x2="759" y1="-238" y2="327" gradientUnits="userSpaceOnUse"><stop offset="0" stop-color="#66cc91"/><stop offset="1" stop-color="#e5ff66"/></linearGradient><path fill="url(#s)" d="M483 59h3c4 0 8-3 8-7s-4-8-8-8h-3c-4 0-7 3-7 7-1 5 3 8 7 8z"/><linearGradient id="t" x1="181" x2="744" y1="-224" y2="341" gradientUnits="userSpaceOnUse"><stop offset="0" stop-color="#66cc91"/><stop offset="1" stop-color="#e5ff66"/></linearGradient><path fill="url(#t)" d="M453 59h4c4 0 7-4 7-8s-3-7-7-7h-3c-4 0-8 3-8 7s3 8 7 8z"/><linearGradient id="u" x1="97" x2="660" y1="-140" y2="425" gradientUnits="userSpaceOnUse"><stop offset="0" stop-color="#66cc91"/><stop offset="1" stop-color="#e5ff66"/></linearGradient><path fill="url(#u)" d="M351 131h19c4 0 7-3 7-7s-3-8-7-8h-19a7 7 0 1 0 0 15z"/><linearGradient id="v" x1="94" x2="657" y1="-137" y2="428" gradientUnits="userSpaceOnUse"><stop offset="0" stop-color="#66cc91"/><stop offset="1" stop-color="#e5ff66"/></linearGradient><path fill="url(#v)" d="M351 160h64c4 0 8-3 8-7 0-5-4-8-8-8h-64a7 7 0 1 0 0 15z"/><linearGradient id="w" x1="84" x2="647" y1="-126" y2="439" gradientUnits="userSpaceOnUse"><stop offset="0" stop-color="#66cc91"/><stop offset="1" stop-color="#e5ff66"/></linearGradient><path fill="url(#w)" d="M351 182h64c4 0 8-4 8-8s-4-7-8-7h-64c-4 0-7 3-7 7s3 8 7 8z"/></svg>