<?xml version="1.0" encoding="utf-8"?>
<!-- Generator: Adobe Illustrator 23.0.3, SVG Export Plug-In . SVG Version: 6.00 Build 0)  -->
<svg version="1.1" id="Camada_1" xmlns="http://www.w3.org/2000/svg" xmlns:xlink="http://www.w3.org/1999/xlink" x="0px" y="0px"
	 viewBox="0 0 511 511" style="enable-background:new 0 0 511 511;" xml:space="preserve">
<style type="text/css">
	.st0{fill:url(#SVGID_1_);}
	.st1{fill:url(#SVGID_2_);}
	.st2{fill:url(#SVGID_3_);}
	.st3{fill:url(#SVGID_4_);}
	.st4{fill:url(#SVGID_5_);}
	.st5{fill:url(#SVGID_6_);}
	.st6{fill:url(#SVGID_7_);}
	.st7{fill:url(#SVGID_8_);}
	.st8{fill:url(#SVGID_9_);}
	.st9{fill:url(#SVGID_10_);}
	.st10{fill:url(#SVGID_11_);}
	.st11{fill:url(#SVGID_12_);}
	.st12{fill:url(#SVGID_13_);}
	.st13{fill:url(#SVGID_14_);}
	.st14{fill:url(#SVGID_15_);}
	.st15{fill:url(#SVGID_16_);}
	.st16{fill:url(#SVGID_17_);}
	.st17{fill:url(#SVGID_18_);}
	.st18{fill:url(#SVGID_19_);}
	.st19{fill:url(#SVGID_20_);}
	.st20{fill:url(#SVGID_21_);}
	.st21{fill:url(#SVGID_22_);}
	.st22{fill:url(#SVGID_23_);}
</style>
<linearGradient id="SVGID_1_" gradientUnits="userSpaceOnUse" x1="17.0141" y1="-59.8866" x2="580.0141" y2="505.1134">
	<stop  offset="0" style="stop-color:#66CC91"/>
	<stop  offset="1" style="stop-color:#E5FF66"/>
</linearGradient>
<path class="st0" d="M507.8,151.9c-5.4-23.8-17.4-45.6-34.8-63c-24.5-24.5-57-37.9-91.6-37.9s-67.1,13.5-91.6,37.9L274,104.7v-9
	c11.9-14.5,19-33.1,19-53.3V31.6c0-9.7-7.9-17.7-17.7-17.7h-52.9c-4.1,0-7.5,3.4-7.5,7.5s3.4,7.5,7.5,7.5h52.9
	c1.5,0,2.7,1.2,2.7,2.7v10.8c0,35.7-27.1,65.1-61.8,68.8c8.2-5.8,15.5-13.1,21.3-21.8c2.3-3.4,1.4-8.1-2-10.4
	c-3.4-2.3-8.1-1.4-10.4,2c-9,13.4-22.2,23-37.2,27.5c6.8-5.3,12.8-11.8,17.8-19.1c2.3-3.4,1.4-8.1-2-10.4c-3.4-2.3-8.1-1.4-10.4,2
	c-12.9,19.1-34.4,30.5-57.4,30.5H53.6c-1.5,0-2.7-1.2-2.7-2.7V98.2c0-38.2,31.1-69.3,69.3-69.3h69.7c4.1,0,7.5-3.4,7.5-7.5
	S194,14,189.9,14h-69.7c-43.9,0-80,33.7-83.9,76.6c-21,21.7-33.7,50.2-36,80.3c-2.3,30.6,6.3,61,24.3,85.7c1.5,2,3.7,3.1,6.1,3.1
	c1.5,0,3.1-0.5,4.4-1.4c3.3-2.4,4.1-7.1,1.7-10.5c-15.8-21.8-23.5-48.7-21.5-75.8c1.6-21.2,9-41.4,21.3-58.4c1.4,5.1,5,9.4,9.8,11.5
	v29.3c-9.9,6.3-16.5,17.4-16.5,30c0,19.6,16,35.6,35.6,35.6c4.4,0,8.7-0.8,12.8-2.4c7.1,39.3,41.5,68.4,81.9,68.4
	c40.4,0,74.8-29.1,81.9-68.4c4,1.5,8.3,2.4,12.8,2.4c19.6,0,35.6-16,35.6-35.6c0-12.6-6.6-23.7-16.5-30v-28.5l26.4-26.4
	c21.6-21.6,50.4-33.6,81-33.6s59.4,11.9,81,33.6c30.9,30.9,41.5,76,27.6,117.5c-1.3,3.9,0.8,8.2,4.7,9.5c0.8,0.3,1.6,0.4,2.4,0.4
	c3.1,0,6.1-2,7.1-5.1C511.8,199.2,513,175.1,507.8,151.9z M61.3,126.6h12.4c-2.9,7.1-4.2,14.7-4,22.4c-1.4-0.2-2.8-0.3-4.3-0.3
	c-1.4,0-2.8,0.1-4.2,0.3V126.6z M44.9,184.4c0-11.4,9.3-20.6,20.6-20.6c2.1,0,4.1,0.3,6,0.9l4.7,37.4c-3.2,2-6.9,3-10.7,3
	C54.1,205,44.9,195.8,44.9,184.4z M160.2,271.1c-34.4,0-63.5-25.7-67.8-59.8L85,152c-1.1-8.8,0.8-17.8,5.4-25.3h118.4
	c6.7,0,13.3-0.8,19.6-2.3c5.7,8,8.2,17.9,6.9,27.7l-7.4,59.3C223.7,245.4,194.5,271.1,160.2,271.1z M254.9,205c-3.8,0-7.5-1-10.7-3
	l4.7-37.4c1.9-0.6,3.9-0.9,6-0.9c11.4,0,20.6,9.3,20.6,20.6S266.2,205,254.9,205z M254.9,148.8c-1.5,0-2.9,0.1-4.3,0.3
	c0.4-10.4-2.3-20.8-7.6-29.7c5.7-2.5,11.1-5.7,16-9.4v39C257.7,148.9,256.3,148.8,254.9,148.8z"/>
<linearGradient id="SVGID_2_" gradientUnits="userSpaceOnUse" x1="-31.5571" y1="-11.4874" x2="531.4429" y2="553.5126">
	<stop  offset="0" style="stop-color:#66CC91"/>
	<stop  offset="1" style="stop-color:#E5FF66"/>
</linearGradient>
<path class="st1" d="M486.9,242.6c-3.4-2.3-8.1-1.4-10.4,2c-4.1,6.1-8.8,11.8-14,17l-15.9,15.9c-3.5-5.4-7.5-10.6-11.8-15.5
	c-23.5-26.2-57.1-41.2-92.3-41.2c-68.4,0-124.1,55.6-124.1,123.9c0,4.5,0.2,9,0.7,13.5l1.8,16.9c-4.3,5.8-6.8,13-6.8,20.8
	c0,11.7,5.8,22.1,14.6,28.5c-4,1.5-7.8,3.7-11,6.4l-43.3-43.3l23.3-23.3c7.4-7.4,11.5-17.2,11.5-27.6c0-10.4-4.1-20.3-11.5-27.6
	c-15.2-15.2-40-15.2-55.3,0l-5,5l-5-5c-12-12-29.9-14.5-44.4-7.7l-30.4-30.4c-2.9-2.9-7.7-2.9-10.6,0c-2.9,2.9-2.9,7.7,0,10.6
	L76,310.2c-14,15.3-13.5,39.1,1.3,54l49.5,49.5c3,3,6.9,4.5,10.8,4.5c3.9,0,7.8-1.5,10.8-4.5l15.6-15.6l44.4,44.4
	c-2.8,5.3-4.4,11.4-4.4,17.9c0,21.2,17.3,38.5,38.5,38.5c16.8,0,31.1-10.6,36.4-25.8c4.2,2.1,8.6,3.9,13.2,5.5
	c14,11,31.7,17.6,50.6,17.6s36.6-6.5,50.7-17.6c4.5-1.5,8.9-3.3,13.2-5.4c5.2,15.2,19.5,25.8,36.4,25.8c21.2,0,38.5-17.3,38.5-38.5
	c0-16.5-10.4-30.5-24.9-36c8.9-6.4,14.6-16.8,14.6-28.5c0-7.8-2.5-14.9-6.8-20.8l1.8-16.9c2.5-23.2-1.7-46.5-11.6-67.1l18.8-18.8
	c5.9-5.9,11.2-12.3,15.8-19.2C491.2,249.5,490.3,244.9,486.9,242.6z M137.7,403c-0.1,0.1-0.3,0.1-0.4,0l-49.5-49.5
	c-9.4-9.4-9.4-24.7,0-34.1c4.7-4.7,10.9-7.1,17.1-7.1c6.2,0,12.4,2.4,17.1,7.1l10.3,10.3c2.9,2.9,7.7,2.9,10.6,0l10.3-10.3
	c9.4-9.4,24.7-9.4,34.1,0c4.6,4.6,7.1,10.6,7.1,17.1s-2.5,12.5-7.1,17.1L137.7,403z M342.5,235.7c30.9,0,60.5,13.2,81.2,36.2
	c20.7,23,30.6,53.8,27.3,84.6l-0.8,7.3c-2.1-1-4.4-1.7-6.7-2.3l2.2-16.2c0.5-4.1-2.3-7.9-6.4-8.4c-4.1-0.5-7.9,2.3-8.4,6.4L427,372
	c-0.1,0.6-0.4,1-0.7,1.3c-0.3,0.2-0.8,0.5-1.4,0.4c-26.1-4-47.1-14.5-62.4-31.2c-11.4-12.5-15.3-24.1-15.3-24.2
	c-0.8-2.4-2.7-4.3-5.2-5c-2.5-0.7-5.1,0-7,1.7c-29.5,27-68.5,21.4-83.9,17.7c-4-1-8.1,1.5-9,5.5c-1,4,1.5,8.1,5.5,9
	c1.2,0.3,2.6,0.6,4,0.9l1.6,12.7c-1.3-0.1-2.6-0.2-3.9-0.2c-5.2,0-10.1,1.1-14.5,3.1l-0.8-7.3c-0.4-3.9-0.6-7.9-0.6-11.9
	C233.4,284.6,282.3,235.7,342.5,235.7z M417.1,447.9c2.8-6.1,4.8-12.5,6.1-19.3c3,1.1,6.1,1.9,9.4,2.1
	C428.2,437.2,423,442.9,417.1,447.9z M435.7,416c-3.7,0-7.3-1-10.4-2.9l3.1-24.7c2.5-0.5,4.8-1.5,6.9-3.1c3-2.2,5.1-5.3,6.1-8.9
	c8.4,2.5,14.5,10.2,14.5,19.4C455.8,406.9,446.8,416,435.7,416z M252.4,430.8c3.2-0.3,6.4-1,9.4-2.2c1.2,6.8,3.3,13.2,6.1,19.3
	C262,442.9,256.7,437.2,252.4,430.8z M249.3,375.6c2,0,3.9,0.3,5.8,0.8l4.6,36.6c-3.1,1.9-6.7,2.9-10.4,2.9
	c-11.1,0-20.2-9.1-20.2-20.2C229.1,384.6,238.1,375.6,249.3,375.6z M242.3,483.8c-13,0-23.5-10.5-23.5-23.5
	c0-11.7,8.6-21.4,19.8-23.2c7.1,10.9,16.2,20.4,26.8,27.8C263.2,475.8,253.6,483.8,242.3,483.8z M275.9,422.2l-9-71.9
	c19.5,1.7,46.5-0.4,70.2-17.8c8.1,15.3,29.1,44.1,76.3,54.2l-4.4,35.4c-4.2,33.5-32.8,58.8-66.6,58.8
	C308.7,481,280.1,455.7,275.9,422.2z M466.1,460.3c0,13-10.5,23.5-23.5,23.5c-11.4,0-20.9-8-23-18.9c10.6-7.5,19.7-16.9,26.8-27.8
	C457.6,438.9,466.1,448.6,466.1,460.3z"/>
<linearGradient id="SVGID_3_" gradientUnits="userSpaceOnUse" x1="-52.786" y1="9.6664" x2="510.214" y2="574.6664">
	<stop  offset="0" style="stop-color:#66CC91"/>
	<stop  offset="1" style="stop-color:#E5FF66"/>
</linearGradient>
<path class="st2" d="M117.2,170.8c-4.1,0.1-7.4,3.6-7.3,7.7l0.1,4.5c0.1,4.1,3.4,7.3,7.5,7.3c0.1,0,0.1,0,0.2,0
	c4.1-0.1,7.4-3.6,7.3-7.7l-0.1-4.5C124.8,174,121.4,170.7,117.2,170.8z"/>
<linearGradient id="SVGID_4_" gradientUnits="userSpaceOnUse" x1="-11.4229" y1="-31.5503" x2="551.5771" y2="533.4497">
	<stop  offset="0" style="stop-color:#66CC91"/>
	<stop  offset="1" style="stop-color:#E5FF66"/>
</linearGradient>
<path class="st3" d="M199.7,170.8c-4.1,0.1-7.4,3.6-7.3,7.7l0.1,4.5c0.1,4.1,3.4,7.3,7.5,7.3c0.1,0,0.1,0,0.2,0
	c4.1-0.1,7.4-3.6,7.3-7.7l-0.1-4.5C207.2,174,203.8,170.7,199.7,170.8z"/>
<linearGradient id="SVGID_5_" gradientUnits="userSpaceOnUse" x1="-46.6964" y1="3.5984" x2="516.3036" y2="568.5984">
	<stop  offset="0" style="stop-color:#66CC91"/>
	<stop  offset="1" style="stop-color:#E5FF66"/>
</linearGradient>
<path class="st4" d="M188.2,203.4c-3.3-2.4-8-1.7-10.5,1.7c-4.4,6.1-11.5,9.7-19,9.7c-7.5,0-14.6-3.6-19-9.7
	c-2.4-3.3-7.1-4.1-10.5-1.7c-3.3,2.4-4.1,7.1-1.7,10.5c7.2,10,18.8,15.9,31.1,15.9c12.3,0,23.9-5.9,31.1-15.9
	C192.2,210.5,191.5,205.8,188.2,203.4z"/>
<linearGradient id="SVGID_6_" gradientUnits="userSpaceOnUse" x1="-65.9752" y1="22.8089" x2="497.0248" y2="587.8089">
	<stop  offset="0" style="stop-color:#66CC91"/>
	<stop  offset="1" style="stop-color:#E5FF66"/>
</linearGradient>
<path class="st5" d="M301.6,382.3c-4.1,0.1-7.4,3.6-7.3,7.7l0.1,4.4c0.1,4.1,3.4,7.3,7.5,7.3c0.1,0,0.1,0,0.2,0
	c4.1-0.1,7.4-3.6,7.3-7.7l-0.1-4.4C309.2,385.5,305.8,382.2,301.6,382.3z"/>
<linearGradient id="SVGID_7_" gradientUnits="userSpaceOnUse" x1="-25.2652" y1="-17.7569" x2="537.7347" y2="547.243">
	<stop  offset="0" style="stop-color:#66CC91"/>
	<stop  offset="1" style="stop-color:#E5FF66"/>
</linearGradient>
<path class="st6" d="M390.5,389.6c-0.1-4.1-3.4-7.3-7.5-7.3c-0.1,0-0.1,0-0.2,0c-4.1,0.1-7.4,3.6-7.3,7.7l0.1,4.4
	c0.1,4.1,3.4,7.3,7.5,7.3c0.1,0,0.1,0,0.2,0c4.1-0.1,7.4-3.6,7.3-7.7L390.5,389.6z"/>
<linearGradient id="SVGID_8_" gradientUnits="userSpaceOnUse" x1="-59.9805" y1="16.8354" x2="503.0195" y2="581.8354">
	<stop  offset="0" style="stop-color:#66CC91"/>
	<stop  offset="1" style="stop-color:#E5FF66"/>
</linearGradient>
<path class="st7" d="M371.5,414.4c-3.3-2.4-8-1.7-10.5,1.7c-4.3,6-11.3,9.5-18.6,9.5c-7.3,0-14.3-3.6-18.6-9.5
	c-2.4-3.3-7.1-4.1-10.5-1.7c-3.3,2.4-4.1,7.1-1.7,10.5c7.1,9.8,18.6,15.7,30.7,15.7s23.6-5.9,30.7-15.7
	C375.6,421.5,374.9,416.8,371.5,414.4z"/>
<linearGradient id="SVGID_9_" gradientUnits="userSpaceOnUse" x1="-186.1057" y1="142.5142" x2="376.8943" y2="707.5142">
	<stop  offset="0" style="stop-color:#66CC91"/>
	<stop  offset="1" style="stop-color:#E5FF66"/>
</linearGradient>
<path class="st8" d="M41.3,379.8L41.3,379.8c4.2,0,7.5-3.3,7.6-7.4l0-3.1c0-4.1-3.3-7.5-7.4-7.6c0,0,0,0-0.1,0
	c-4.1,0-7.4,3.3-7.5,7.4l0,3.1C33.9,376.4,37.2,379.8,41.3,379.8z"/>
<linearGradient id="SVGID_10_" gradientUnits="userSpaceOnUse" x1="-200.9415" y1="157.2975" x2="362.0585" y2="722.2975">
	<stop  offset="0" style="stop-color:#66CC91"/>
	<stop  offset="1" style="stop-color:#E5FF66"/>
</linearGradient>
<path class="st9" d="M41.2,391.2c-4.1,0-7.5,3.3-7.6,7.4l0,3.1c0,4.1,3.3,7.5,7.4,7.6h0.1c4.1,0,7.4-3.3,7.5-7.4l0-3.1
	C48.7,394.6,45.4,391.3,41.2,391.2z"/>
<linearGradient id="SVGID_11_" gradientUnits="userSpaceOnUse" x1="-186.2093" y1="142.6174" x2="376.7907" y2="707.6174">
	<stop  offset="0" style="stop-color:#66CC91"/>
	<stop  offset="1" style="stop-color:#E5FF66"/>
</linearGradient>
<path class="st10" d="M65,385.8c0-4.1-3.3-7.5-7.4-7.6l-3.1,0c0,0-0.1,0-0.1,0c-4.1,0-7.4,3.3-7.5,7.4c0,4.1,3.3,7.5,7.4,7.6l3.1,0
	h0.1C61.6,393.2,65,389.9,65,385.8z"/>
<linearGradient id="SVGID_12_" gradientUnits="userSpaceOnUse" x1="-200.8392" y1="157.1955" x2="362.1609" y2="722.1955">
	<stop  offset="0" style="stop-color:#66CC91"/>
	<stop  offset="1" style="stop-color:#E5FF66"/>
</linearGradient>
<path class="st11" d="M28.2,377.9l-3.1,0c-4.1-0.1-7.5,3.3-7.6,7.4c0,4.1,3.3,7.5,7.4,7.6l3.1,0h0.1c4.1,0,7.4-3.3,7.5-7.4
	C35.6,381.4,32.3,378,28.2,377.9z"/>
<linearGradient id="SVGID_13_" gradientUnits="userSpaceOnUse" x1="-186.1569" y1="142.5652" x2="376.8431" y2="707.5652">
	<stop  offset="0" style="stop-color:#66CC91"/>
	<stop  offset="1" style="stop-color:#E5FF66"/>
</linearGradient>
<path class="st12" d="M82.9,421.7L82.9,421.7c4.2,0,7.5-3.3,7.6-7.4l0-3.1c0-4.1-3.3-7.5-7.4-7.6c-4.1-0.1-7.5,3.3-7.6,7.4l0,3.1
	C75.5,418.3,78.8,421.7,82.9,421.7z"/>
<linearGradient id="SVGID_14_" gradientUnits="userSpaceOnUse" x1="-200.9861" y1="157.3554" x2="362.0139" y2="722.3554">
	<stop  offset="0" style="stop-color:#66CC91"/>
	<stop  offset="1" style="stop-color:#E5FF66"/>
</linearGradient>
<path class="st13" d="M82.9,433.1c-4.1,0-7.5,3.3-7.6,7.4l0,3.1c0,4.1,3.3,7.5,7.4,7.6h0.1c4.1,0,7.4-3.3,7.5-7.4l0-3.1
	C90.3,436.5,87,433.1,82.9,433.1z"/>
<linearGradient id="SVGID_15_" gradientUnits="userSpaceOnUse" x1="-186.261" y1="142.6689" x2="376.739" y2="707.6689">
	<stop  offset="0" style="stop-color:#66CC91"/>
	<stop  offset="1" style="stop-color:#E5FF66"/>
</linearGradient>
<path class="st14" d="M99.2,420.1l-3.1,0c0,0-0.1,0-0.1,0c-4.1,0-7.4,3.3-7.5,7.4c0,4.1,3.3,7.5,7.4,7.6l3.1,0h0.1
	c4.1,0,7.4-3.3,7.5-7.4C106.7,423.5,103.3,420.1,99.2,420.1z"/>
<linearGradient id="SVGID_16_" gradientUnits="userSpaceOnUse" x1="-200.89" y1="157.2461" x2="362.11" y2="722.2461">
	<stop  offset="0" style="stop-color:#66CC91"/>
	<stop  offset="1" style="stop-color:#E5FF66"/>
</linearGradient>
<path class="st15" d="M69.8,419.8l-3.1,0c0,0-0.1,0-0.1,0c-4.1,0-7.4,3.3-7.5,7.4c0,4.1,3.3,7.5,7.4,7.6l3.1,0h0.1
	c4.1,0,7.4-3.3,7.5-7.4C77.3,423.2,73.9,419.9,69.8,419.8z"/>
<linearGradient id="SVGID_17_" gradientUnits="userSpaceOnUse" x1="195.9773" y1="-238.2163" x2="758.9774" y2="326.7837">
	<stop  offset="0" style="stop-color:#66CC91"/>
	<stop  offset="1" style="stop-color:#E5FF66"/>
</linearGradient>
<path class="st16" d="M469.8,45.7L469.8,45.7c4.2,0,7.5-3.3,7.6-7.4l0-3.1c0-4.1-3.3-7.5-7.4-7.6c0,0-0.1,0-0.1,0
	c-4.1,0-7.4,3.3-7.5,7.4l0,3.1C462.3,42.3,465.7,45.6,469.8,45.7z"/>
<linearGradient id="SVGID_18_" gradientUnits="userSpaceOnUse" x1="181.1416" y1="-223.4331" x2="744.1416" y2="341.5669">
	<stop  offset="0" style="stop-color:#66CC91"/>
	<stop  offset="1" style="stop-color:#E5FF66"/>
</linearGradient>
<path class="st17" d="M469.7,57.1c-4.1-0.1-7.5,3.3-7.6,7.4l0,3.1c0,4.1,3.3,7.5,7.4,7.6h0.1c4.1,0,7.4-3.3,7.5-7.4l0-3.1
	C477.2,60.5,473.8,57.1,469.7,57.1z"/>
<linearGradient id="SVGID_19_" gradientUnits="userSpaceOnUse" x1="195.8734" y1="-238.1127" x2="758.8734" y2="326.8873">
	<stop  offset="0" style="stop-color:#66CC91"/>
	<stop  offset="1" style="stop-color:#E5FF66"/>
</linearGradient>
<path class="st18" d="M482.9,59l3.1,0h0.1c4.1,0,7.4-3.3,7.5-7.4c0-4.1-3.3-7.5-7.4-7.6l-3.1,0c0,0-0.1,0-0.1,0
	c-4.1,0-7.4,3.3-7.5,7.4C475.4,55.5,478.7,58.9,482.9,59z"/>
<linearGradient id="SVGID_20_" gradientUnits="userSpaceOnUse" x1="181.2449" y1="-223.536" x2="744.2449" y2="341.464">
	<stop  offset="0" style="stop-color:#66CC91"/>
	<stop  offset="1" style="stop-color:#E5FF66"/>
</linearGradient>
<path class="st19" d="M453.4,58.7l3.1,0h0.1c4.1,0,7.4-3.3,7.5-7.4c0-4.1-3.3-7.5-7.4-7.6l-3.1,0c-4.1-0.1-7.5,3.3-7.6,7.4
	C446,55.3,449.3,58.7,453.4,58.7z"/>
<linearGradient id="SVGID_21_" gradientUnits="userSpaceOnUse" x1="97.4709" y1="-140.0586" x2="660.4709" y2="424.9414">
	<stop  offset="0" style="stop-color:#66CC91"/>
	<stop  offset="1" style="stop-color:#E5FF66"/>
</linearGradient>
<path class="st20" d="M351.2,131.4h18.5c4.1,0,7.5-3.4,7.5-7.5c0-4.1-3.3-7.5-7.5-7.5h-18.5c-4.1,0-7.5,3.3-7.5,7.5
	C343.7,128,347.1,131.4,351.2,131.4z"/>
<linearGradient id="SVGID_22_" gradientUnits="userSpaceOnUse" x1="94.4922" y1="-137.0905" x2="657.4922" y2="427.9095">
	<stop  offset="0" style="stop-color:#66CC91"/>
	<stop  offset="1" style="stop-color:#E5FF66"/>
</linearGradient>
<path class="st21" d="M351.2,160H415c4.1,0,7.5-3.4,7.5-7.5c0-4.1-3.4-7.5-7.5-7.5h-63.8c-4.1,0-7.5,3.3-7.5,7.5
	C343.7,156.7,347.1,160,351.2,160z"/>
<linearGradient id="SVGID_23_" gradientUnits="userSpaceOnUse" x1="83.6225" y1="-126.2593" x2="646.6226" y2="438.7407">
	<stop  offset="0" style="stop-color:#66CC91"/>
	<stop  offset="1" style="stop-color:#E5FF66"/>
</linearGradient>
<path class="st22" d="M351.2,181.8H415c4.1,0,7.5-3.4,7.5-7.5s-3.4-7.5-7.5-7.5h-63.8c-4.1,0-7.5,3.4-7.5,7.5
	S347.1,181.8,351.2,181.8z"/>
</svg>
