<?xml version="1.0" encoding="utf-8"?>
<!-- Generator: Adobe Illustrator 23.0.3, SVG Export Plug-In . SVG Version: 6.00 Build 0)  -->
<svg version="1.1" id="Capa_1" xmlns="http://www.w3.org/2000/svg" xmlns:xlink="http://www.w3.org/1999/xlink" x="0px" y="0px"
	 viewBox="0 0 512 512" style="enable-background:new 0 0 512 512;" xml:space="preserve">
<style type="text/css">
	.st0{fill:#FFFFFF;stroke:#FFFFFF;stroke-width:3;stroke-miterlimit:10;}
	.st1{fill:#FFFFFF;stroke:#FFFFFF;stroke-miterlimit:10;}
	.st2{fill:none;stroke:#FFFFFF;stroke-width:21;stroke-linecap:round;stroke-miterlimit:10;}
</style>
<g>
	<path class="st0" d="M124.3,373c1.2-5.3,1.8-10.9,3.9-15.8c7.1-17.4,14.4-34.8,22.2-52c6.3-14,14.8-26.8,23-39.7
		c10.5-16.7,20.7-33.7,31.4-50.4c7.3-11.2,15.4-22,22.8-33.1c3.2-4.7,6.2-9.5,8.3-14.7c3.2-7.6,0.9-15.1-2.3-22.2
		c-5.2-11.8-13.3-21.7-21.2-31.8c-2.9-3.7-6-7.3-8.9-11.1c-2.2-3-3.9-6.3-3.7-10.3c0.1-2.7,1.4-4,3.9-4.5c6.7-1.3,12.9,0.3,18.3,4.3
		c2.2,1.6,4.2,3.5,5.9,5.7c5,6.3,9.7,12.8,14.6,19.2c2.4,3.2,4.8,6.5,7.5,9.4c4.5,4.9,10.2,5.4,15.3,1c3.3-2.8,5.9-6.5,8.8-9.7
		c10.9-11.9,21.5-24.1,34.4-34.1c4.7-3.6,9.5-6.8,15.8-6.3c3.9,0.3,5.5,2.1,4,5.7c-1.1,2.6-2.6,5-4.4,7.1
		c-12,14-24.2,27.8-36.2,41.8c-4.7,5.5-8.9,11.3-13.1,17.2c-4.1,5.7-4.2,11.9-1.4,18.1c5.5,12,11.2,23.9,16.6,36
		c7.4,16.3,14.8,32.7,21.8,49.2c13.3,30.9,26.4,62,39.5,93c2.6,6,5.5,11.9,4.9,18.8c-0.3,3.1-0.7,6.2-3.9,7.5c-3,1.3-6,0.7-8.8-1.3
		c-5.4-3.9-8.3-9.6-10.9-15.5c-7.6-17.8-14.9-35.8-22.5-53.6c-15-35.2-29.7-70.5-47.7-104.3c-1.3-2.5-3-4.8-4.4-7.2
		c-2.4-4.5-9.4-4.3-12.4-1c-2.2,2.5-4.7,4.9-6.5,7.8c-11.2,17.3-22.6,34.5-33.4,52c-7.2,11.6-13.6,23.8-20.7,35.5
		c-15.6,26.3-28,54.5-40.8,82.3c-2,4.3-4.8,8.2-7.4,12c-2.2,3.2-4.9,4-8.1,2.9c-3.2-1-3-4-3.6-6.5c-0.1-0.4,0-0.9,0-1.4
		C124.7,373,124.4,373,124.3,373z"/>
	<path class="st0" d="M249,297.1c11.7-0.3,20.4,4.7,27.7,13.8c11.2,14,16.6,30.2,19.9,47.3c0.7,3.9-0.1,8.2-0.9,12.1
		c-0.9,4.5-6.5,6.6-10.2,3.7c-2.5-2-4.5-4.8-5.8-7.7c-3.4-7.6-6.2-15.5-9.5-23.2c-3.3-7.8-7.7-14.8-13.5-21
		c-7.3-7.7-17.5-6.2-23.8-1.5c-6.3,4.5-9.8,10.9-12.1,18.1c-2.7,8.9-5.4,17.7-8.2,26.6c-0.7,2.3-1.8,4.6-2.9,6.8
		c-1.7,3.2-4.8,4.6-8.2,3.9c-3.6-0.7-5.5-2.9-6-6.8c-1-7.5,0.5-14.9,1.8-22.2c2.8-15.8,11.2-28.7,22-40.1c5.5-5.8,13.1-8,21-8.9
		C243.1,297.5,246,297.3,249,297.1z"/>
</g>
<g>
	<path class="st1" d="M469.4,296.4c5.5,0,10-4.5,10-10V274c0-5.5-4.5-10-10-10s-10,4.5-10,10v12.4
		C459.4,292,463.9,296.4,469.4,296.4z"/>
	<path class="st1" d="M469.4,328c5.5,0,10-4.5,10-10v-12.4c0-5.5-4.5-10-10-10s-10,4.5-10,10V318C459.4,323.5,463.9,328,469.4,328z"
		/>
	<path class="st1" d="M479,306h12.4c5.5,0,10-4.5,10-10s-4.5-10-10-10H479c-5.5,0-10,4.5-10,10S473.5,306,479,306z"/>
	<path class="st1" d="M447.4,306h12.4c5.5,0,10-4.5,10-10s-4.5-10-10-10h-12.4c-5.5,0-10,4.5-10,10S441.9,306,447.4,306z"/>
</g>
<g>
	<path class="st1" d="M41.4,296.4c5.5,0,10-4.5,10-10V274c0-5.5-4.5-10-10-10s-10,4.5-10,10v12.4C31.4,292,35.9,296.4,41.4,296.4z"
		/>
	<path class="st1" d="M41.4,328c5.5,0,10-4.5,10-10v-12.4c0-5.5-4.5-10-10-10s-10,4.5-10,10V318C31.4,323.5,35.9,328,41.4,328z"/>
	<path class="st1" d="M51,306h12.4c5.5,0,10-4.5,10-10s-4.5-10-10-10H51c-5.5,0-10,4.5-10,10S45.5,306,51,306z"/>
	<path class="st1" d="M19.4,306h12.4c5.5,0,10-4.5,10-10s-4.5-10-10-10H19.4c-5.5,0-10,4.5-10,10S13.9,306,19.4,306z"/>
</g>
<g>
	<path class="st1" d="M256,41.3c5.5,0,10-4.5,10-10V18.9c0-5.5-4.5-10-10-10s-10,4.5-10,10v12.4C246,36.9,250.5,41.3,256,41.3z"/>
	<path class="st1" d="M256,72.9c5.5,0,10-4.5,10-10V50.5c0-5.5-4.5-10-10-10s-10,4.5-10,10v12.4C246,68.4,250.5,72.9,256,72.9z"/>
	<path class="st1" d="M265.6,50.9H278c5.5,0,10-4.5,10-10s-4.5-10-10-10h-12.4c-5.5,0-10,4.5-10,10S260,50.9,265.6,50.9z"/>
	<path class="st1" d="M234,50.9h12.4c5.5,0,10-4.5,10-10s-4.5-10-10-10H234c-5.5,0-10,4.5-10,10S228.5,50.9,234,50.9z"/>
</g>
<g>
	<path class="st1" d="M113.3,144.5c0,5.5,4.5,10,10,10h12.4c5.5,0,10-4.5,10-10s-4.5-10-10-10h-12.4
		C117.7,134.5,113.3,139,113.3,144.5z"/>
	<path class="st1" d="M61.7,144.5c0,5.5,4.5,10,10,10h12.4c5.5,0,10-4.5,10-10s-4.5-10-10-10H71.7C66.2,134.5,61.7,139,61.7,144.5z"
		/>
	<path class="st1" d="M93.7,164.1v12.4c0,5.5,4.5,10,10,10s10-4.5,10-10v-12.4c0-5.5-4.5-10-10-10S93.7,158.6,93.7,164.1z"/>
	<path class="st1" d="M93.7,112.5v12.4c0,5.5,4.5,10,10,10s10-4.5,10-10v-12.4c0-5.5-4.5-10-10-10C98.2,102.5,93.7,107,93.7,112.5z"
		/>
</g>
<g>
	<path class="st1" d="M417.1,144.1c0,5.5,4.5,10,10,10h12.4c5.5,0,10-4.5,10-10s-4.5-10-10-10h-12.4
		C421.6,134.1,417.1,138.6,417.1,144.1z"/>
	<path class="st1" d="M365.5,144.1c0,5.5,4.5,10,10,10h12.4c5.5,0,10-4.5,10-10s-4.5-10-10-10h-12.4
		C370,134.1,365.5,138.6,365.5,144.1z"/>
	<path class="st1" d="M397.5,163.7v12.4c0,5.5,4.5,10,10,10s10-4.5,10-10v-12.4c0-5.5-4.5-10-10-10S397.5,158.2,397.5,163.7z"/>
	<path class="st1" d="M397.5,112.1v12.4c0,5.5,4.5,10,10,10s10-4.5,10-10v-12.4c0-5.5-4.5-10-10-10S397.5,106.6,397.5,112.1z"/>
</g>
<path class="st2" d="M22.2,500.4c122.2-38.6,334-75.1,477.9-23.6"/>
<path class="st2" d="M18.6,469.9c112.1-50.2,310.3-80.3,476.1-44.1"/>
</svg>
