<svg xmlns="http://www.w3.org/2000/svg" id="Camada_1" version="1" viewBox="0 0 512 512"><style>.st0{fill:#fff}</style><path d="M404 300c2-2 3-5 3-7 0-3-2-6-3-8s-5-3-7-3l-8 3c-2 1-3 5-3 7l3 8c2 2 5 3 7 3 3 0 6-1 8-3z" class="st0"/><path d="M507 286c-5-8-13-13-22-14-12-3-24 2-32 12v-80a33 33 0 0 0-46-30v-5a33 33 0 1 0-67 0v5c-4-2-8-3-13-3-19 0-33 15-33 34v22c-4-2-9-3-14-3-9 0-17 4-23 10a33 33 0 0 0-36-7v-23a33 33 0 0 0-47-30v-5a33 33 0 1 0-67 0v5c-4-2-8-3-13-3-18 0-33 15-33 33v80a34 34 0 0 0-59 27l12 62c5 25 16 47 34 64l9 9c8 9 13 20 13 32v24c0 6 5 10 10 10s10-4 10-10v-24c0-17-7-34-19-46l-9-9c-15-15-25-33-29-54l-12-61c-1-4 0-8 2-11s6-5 9-6c7-1 14 3 16 10l6 26c1 4 4 7 6 8l1 1 24 14c11 7 18 19 18 32 0 6 5 10 10 10s10-4 10-10c0-19-11-38-28-49l-14-8V204c0-7 6-13 13-13s13 5 13 12v90c1 5 5 10 11 10s10-5 10-10V169c0-7 6-13 13-13s13 6 13 13v124c0 5 5 10 10 10s10-5 10-10v-90a13 13 0 0 1 27 2v88c0 5 4 10 10 10s10-5 10-10v-37a13 13 0 0 1 26 2v100c0 28-11 54-30 74a65 65 0 0 0-20 46v24c0 6 5 10 10 10s10-4 10-10v-24c0-12 5-23 14-32 11-11 20-25 26-39 6 15 15 28 27 39 8 9 13 20 13 32v24c0 6 4 10 10 10s10-4 10-10v-24c0-17-7-34-19-46-20-20-31-46-31-74V258c0-8 6-14 13-14s13 6 14 12v37c0 5 4 10 10 10s10-5 10-10v-89c0-7 6-13 13-13s12 5 13 12v90c0 5 5 10 10 10s10-5 10-10V169c0-7 6-13 13-13s14 6 14 13v87c0 6 4 10 10 10s10-4 10-10v-53a13 13 0 0 1 26 2v120l-14 8a58 58 0 0 0-28 50c0 5 5 10 10 10s10-5 10-10c0-13 7-26 18-32l24-15h1c2-2 5-5 6-9l6-25a14 14 0 0 1 27 6l-12 61c-4 21-14 39-29 54l-9 9a65 65 0 0 0-19 46v24c0 6 5 10 10 10s10-4 10-10v-24c0-12 5-23 13-32l9-9c18-17 29-39 34-64l13-62c1-8-1-18-6-25z" class="st0"/><path d="M209 137c21 20 42 33 43 34l5 2 5-2c1-1 22-14 43-34 29-28 44-54 44-78 0-32-26-59-57-59-13 0-25 4-35 12-10-8-22-12-35-12-31 0-57 27-57 60 0 23 15 49 44 77zm13-117c11 0 20 4 28 12a10 10 0 0 0 14 0c8-8 17-12 28-12 20 0 37 18 37 40 0 33-48 74-72 91-24-17-72-58-72-91 0-22 17-40 37-40zM449 50c6 0 10-4 10-10V28c0-5-4-10-10-10s-10 5-10 10v12c0 6 5 10 10 10zM449 110c6 0 10-4 10-10V88c0-6-4-10-10-10s-10 4-10 10v12c0 6 5 10 10 10zM473 74h12c6 0 10-4 10-10s-4-10-10-10h-12c-6 0-10 5-10 10s4 10 10 10zM413 74h12c6 0 10-4 10-10s-4-10-10-10h-12c-5 0-10 5-10 10s5 10 10 10zM64 101c6 0 10-5 10-10V78c0-5-4-10-10-10s-10 5-10 10v13c0 5 5 10 10 10zM64 160c6 0 10-4 10-10v-12c0-6-4-10-10-10s-10 4-10 10v12c0 6 5 10 10 10zM88 124h12c6 0 10-4 10-10s-4-10-10-10H88c-6 0-10 5-10 10 0 6 4 10 10 10zM28 124h13c5 0 10-4 10-10s-5-10-10-10H28c-5 0-10 5-10 10 0 6 5 10 10 10z" class="st0"/></svg>