<svg xmlns="http://www.w3.org/2000/svg" version="1" viewBox="0 0 191 120"><linearGradient id="a" x1="45" x2="141" y1="106" y2="11" gradientUnits="userSpaceOnUse"><stop offset="0" stop-color="#66cc91"/><stop offset="1" stop-color="#e5ff66"/></linearGradient><path fill="url(#a)" d="M191 61c-5-3-8 1-11-4l-22 3c0 3-10 13-16 3l-5-14 4-12c2-6-9-1-11-4-1-3-4-8-4-12 4-3 3-5 0-7-2-2-2-5-1-7-4-3-6-5-10-4-3 0-8 6-11 1 2 4-8 1-9 3-5-3-4 3-5 5l-2-5c-2-2-5 8-7 0 2-8-8-5-14-6-9 0-10-3-18 1-6 4-13 10-16 14-4 8-9 17-11 25C18 51 6 53 0 61h4l16 1c0-6 10 0 13 0l19 5c4 1 15-2 17 4 7-1 6 10 7 14 1 5 5 9 7 14 1 3-5 6 1 7h9c7 1 2 8 4 9 3 0 7-3 8 0 0 2 3 4 3 5 5-5 29-33 37-29 4 2 9-8 17-4 3 2 5-9 9-6 6-4 6-1 6-5l-1-2c-2-5 16-9 15-13z"/></svg>