<svg xmlns="http://www.w3.org/2000/svg" version="1" viewBox="0 0 190 127"><linearGradient id="a" x1="21" x2="163" y1="142" gradientUnits="userSpaceOnUse"><stop offset="0" stop-color="#08c"/><stop offset="1" stop-color="#66ffe5"/></linearGradient><path fill="url(#a)" d="M173 18l-8-1-5-2-7-3V9c-3-7 0-14-17-5-12 6-7 36-16 41L85 61c0-8-18-2-21-1-18-4-41 13-58 16l2 4c8 11 14 1 26 8 2 8-39 17-33 29l1 4c5 13 14-2 8-3 0-10 14-6 16-13l15 1c8-8 13-3 21 0l-18 3c-1 3 29-2 32-2s3-11 3-11c2-4 6-5 10-5-5 23 22 12 40 14 21 2 9-13 14-21 10-19 48-13 47-37-1-17 0-23-9-26l-7-2-1-1z"/></svg>