<?xml version="1.0" encoding="utf-8"?>
<!-- Generator: Adobe Illustrator 23.0.3, SVG Export Plug-In . SVG Version: 6.00 Build 0)  -->
<svg version="1.1" id="Camada_1" xmlns="http://www.w3.org/2000/svg" xmlns:xlink="http://www.w3.org/1999/xlink" x="0px" y="0px"
	 viewBox="0 0 151.3 120.6" style="enable-background:new 0 0 151.3 120.6;" xml:space="preserve">
<style type="text/css">
	.st0{fill:url(#SVGID_1_);}
</style>
<title>Ativo 4</title>
<g>
	<g id="svg-map">
		<linearGradient id="SVGID_1_" gradientUnits="userSpaceOnUse" x1="32.564" y1="111.9575" x2="135.372" y2="9.1494">
			<stop  offset="0" style="stop-color:#FF6666"/>
			<stop  offset="1" style="stop-color:#FFCC66"/>
		</linearGradient>
		<path class="st0" d="M67.4,8.5c-1.8-0.6-6.4-2-6.1-2.3c-0.8,0.4-0.4,1.7-0.1,2.9c0.1,0.9,0.2,1.8-0.6,2c-0.1,0-0.2,0.1-0.5,0.1
			c-1.5-0.7-3.1-1.1-3.9-0.1c-0.1,0.1-0.2,0.3-0.2,0.5c-0.2,0.5-0.3,1.1-0.2,1.7c0.5,0.6,0.8,1.4,0.8,2.1c0.3,1.5,0.4,3,0.4,4.5
			c0,0.9-0.2,1.8-0.5,2.6c-0.2,0.4-0.5,0.6-0.8,0.8c-1.1,0.4-2,0.7-2.7,1c-0.4,2.6-1.1,5-2.3,5.5c-0.5,0.2-1,0.2-1.5,0.2
			c0,0.1-0.1,0.4-0.1,0.5c-0.8,4.1,6.9,4.9,1.4,9.8c-5.7,5,1.8,3.8,0.1,7.8c-0.5,1.3,0.5,3.8,0.1,4.6c-0.8,1.8-3.2,1.9-4.4,3.6
			c-4.6,6.5-16.9-4-23.6,4.7c-3.2-6.2-16.9,3.9-21.3,11.3c-1.1,1.8-1.6,3.4-1.2,4.7c-0.6,2.4,0.1,4,2.6,2.6c0.1-0.1,0.2-0.1,0.3-0.2
			c4.9-2.4,5.9-1,11.4-0.6c3.6,0.2,10-1.4,9.2,3.4c0.8,5,2.9-1.3,4.2,0.1c0.1,0.1,1.1,3.8,1.3,3.6c0.7-1.2,0-5.1,2.9-3.7
			c1.1-1,7.1,0.6,6.1-1.9c1.8,3.6,4.8-0.6,6.5-0.7c3.1-0.2,4,1.2,6.8,3c-0.8,1.4-0.6,3.2,0.6,4.4c2.1,1.4,2.1,2.9,0.1,4.3
			c-0.2,2.5,1.5,5.7,2.6,7.8c0.8,1.7,7.7-1.6,6.8,2.6c-0.1,0.7-2.5,7.3-2.6,7.3s3.3,8.6,3.3,8.6c3.8,6.7,10.1,0.2,10.1-1.6
			c3-0.5,7.6-1,13.3-1.8c-0.3-0.4-0.5-0.8-0.7-1.2c5.1-0.8,11.3-5.3,16.4-4.3c0.6-0.2,5.8-2.1,6,0.2c3-1.9,6.5-2.9,9.6-4.5
			c2.6-1.4,1.1-9.8,4.4-11.4c4.9-2.5,3.9-0.6,4.9,1.3c0.1-1.7,0.2-3.4-2-3.7c1.2-2.4-0.4-6.6,2.1-7.5c4.4-1.8,4.6-0.6,7-5.3
			c0.5-1.1,2-3.2,3-5.2l0.4-4.3c-0.8-1.1-3.7-4.2-3.8-4.6c1.2-0.2,2.5-0.2,3.7,0.1c1.6-0.7-6.7-11.3,1.1-9.9V52l0.1-0.1
			c0-0.1,0.1-0.2,0.2-0.4h2.8c1.3-0.1,2.6-0.3,3.9-0.6c2.3-0.6,3.6-1.4,1-3.2c-3.6-2.7-4.5-3.9-3.7-8.3c0.9-5.2,1.5-1.2,4-3.3
			c-0.7,0.6,2.3-5.7,3.1-6.7c1.5-1.7,3.2-4,0.6-5.5c-3.4-2.1-7.2-3.6-11.1-4.4c-2.3-0.5-5.2,2.6-6.8,0.1c-1.4-2.3-1.9-4.4-4.1-6.3
			c-3.3-3-9.5,0.7-12.3-3.6c-3.1-0.7-6.2-5.2-9.6-4.6c-0.8,0.1-4.1,2.9-4.9,1.4c-6.8-1.4-0.5-6.2-6.4-6.5
			c-10.5-0.6-18,10.6-27.7,13.3l0,0c0.5-0.5,2.3-4.2,1.2-4.6l0,0C68.2,8.6,67.9,8.6,67.4,8.5z"/>
	</g>
</g>
</svg>
