<?xml version="1.0" encoding="utf-8"?>
<!-- Generator: Adobe Illustrator 23.0.3, SVG Export Plug-In . SVG Version: 6.00 Build 0)  -->
<svg version="1.1" id="Camada_1" xmlns="http://www.w3.org/2000/svg" xmlns:xlink="http://www.w3.org/1999/xlink" x="0px" y="0px"
	 viewBox="0 0 191.1 119.9" style="enable-background:new 0 0 191.1 119.9;" xml:space="preserve">
<style type="text/css">
	.st0{fill:url(#SVGID_1_);}
</style>
<title>Ativo 3</title>
<g>
	<g id="svg-map">
		<linearGradient id="SVGID_1_" gradientUnits="userSpaceOnUse" x1="45.3702" y1="106.271" x2="140.7556" y2="10.8856">
			<stop  offset="0" style="stop-color:#66CC91"/>
			<stop  offset="1" style="stop-color:#E5FF66"/>
		</linearGradient>
		<path class="st0" d="M191,61.1c-5.4-3.2-8.1,1.2-11.4-3.8c-9.1,1.2-16.5,2-21.2,2.8c0,2.8-10.1,12.9-16,2.4c0,0-5.7-13.7-5.3-13.6
			c0.2,0,4-10.4,4.2-11.5c1.4-6.6-9.5-1.5-10.8-4.1c-1.6-3.4-4.4-8.6-4.1-12.5c3.2-2.3,3.1-4.5-0.1-6.7c-1.9-1.8-2.4-4.7-1-6.9
			c-4.4-2.7-5.8-5-10.7-4.6c-2.8,0.3-7.6,6.9-10.4,1.2c1.6,4-7.9,1.4-9.6,2.9c-4.4-2.2-3.4,3.8-4.5,5.8c-0.3,0.4-1.9-5.5-2-5.6
			c-2.1-2.2-5.2,7.8-6.6-0.1c1.5-7.7-8.8-5.1-14.4-5.5c-8.6-0.7-10.3-2.9-18,0.9c-5.8,3.7-13.5,9.5-15.8,13.9
			C29,24,24.3,33.2,21.7,40.6C18,51.4,6.2,52.7,0,60.9c0.3,0.4,1.8,0.5,3.8,0.5c5,0,13.4-0.5,15.7,0.3c0.6-5.9,10.4,0.5,13.4,0.5
			c2.3,0,18.7,5.4,19,5c4.6,0.8,15.4-2.1,17,3.5c7.1-0.2,5.8,10.3,6.8,13.9c1.4,5.4,5,9,7,14.6c1,2.8-4.6,6.3,0.8,7.3
			c2.2,0.4,6.7-0.5,9.3-0.1c7.6,0.8,2.5,8.1,4.3,8.5c2.6,0.6,6.7-2.7,7.6-0.1c0.8,2.3,3.4,4.6,3,5l0.1-0.2
			c5.3-4.6,28.9-32.3,36.8-28.7c4.3,2,9.4-7.8,17.4-3.6c2.7,1.3,4.9-9.1,9-6.4c5.8-3.4,5.7-1.1,5.6-5c-0.3-0.7-0.5-1.4-0.6-2.1
			C173.8,68.5,192,64.7,191,61.1z"/>
	</g>
</g>
</svg>
