<?xml version="1.0" encoding="utf-8"?>
<!-- Generator: Adobe Illustrator 23.0.3, SVG Export Plug-In . SVG Version: 6.00 Build 0)  -->
<svg version="1.1" id="Camada_1" xmlns="http://www.w3.org/2000/svg" xmlns:xlink="http://www.w3.org/1999/xlink" x="0px" y="0px"
	 viewBox="0 0 190.2 126.6" style="enable-background:new 0 0 190.2 126.6;" xml:space="preserve">
<style type="text/css">
	.st0{fill:url(#SVGID_1_);}
</style>
<title>Ativo 1</title>
<g>
	<g id="svg-map">
		<linearGradient id="SVGID_1_" gradientUnits="userSpaceOnUse" x1="20.8657" y1="142.0593" x2="162.6699" y2="0.2551">
			<stop  offset="0" style="stop-color:#0088CC"/>
			<stop  offset="1" style="stop-color:#66FFE5"/>
		</linearGradient>
		<path class="st0" d="M172.8,18.3c-2.6-0.4-5.1-0.9-7.6-1.7c-1.9-0.3-3.8-0.9-5.5-1.7c-2.6-0.9-4.7-1.7-6.8-2.6V8.9
			c-3.4-6.8,0-13.6-17.4-4.7c-11.9,5.9-6.4,35.6-15.7,40.7c-11,5.9-23.8,9.8-34.4,16.1c-0.4-8.1-18.7-1.7-21.2-0.8
			C45.9,56.4,23.4,72.6,5.6,75.5c0.8,1.5,1.6,2.9,2.5,4.2c7.6,11,13.6,1.3,25.9,8.5c2.1,8.1-39,16.6-33.5,28.4
			c0.4,1.7,0.9,3.4,1.3,4.7c5.1,13.1,14.4-2.6,8.1-3.4c0.4-9.8,14-5.5,16.5-12.7c2.5,0.4,16.1,0.8,14.4,0.4
			c8.1-7.2,13.6-2.6,20.8,0.4c-5.9,0.5-11.7,1.7-17.4,3.4c-0.8,2.5,28.4-2.1,31.4-2.1c3.4,0,3-11.5,3-11.5c2.4-3.4,6.5-5.2,10.6-4.7
			c-5.5,23.3,21.6,11.9,39.5,13.6c21.6,2.1,9.8-12.3,14.4-20.8c9.8-18.7,47.9-13.2,47.1-37.3c-0.8-17,0-22.5-8.9-25.9
			c-2.4-0.8-4.8-1.5-7.3-2.1L172.8,18.3z"/>
	</g>
</g>
</svg>
