<svg xmlns="http://www.w3.org/2000/svg" version="1" viewBox="0 0 151 121"><linearGradient id="a" x1="33" x2="135" y1="112" y2="9" gradientUnits="userSpaceOnUse"><stop offset="0" stop-color="#f66"/><stop offset="1" stop-color="#fc6"/></linearGradient><path fill="url(#a)" d="M67 9l-6-3v5h-5v2l1 2v5l-1 2v1l-3 1-2 6h-2v1c-1 4 7 4 1 9-5 5 2 4 1 8v5l-5 3c-4 7-17-4-23 5-4-6-17 4-22 11l-1 5c0 2 0 4 3 3v-1c5-2 6-1 11 0 4 0 10-2 10 3s3-1 4 0l1 4c1-1 0-5 3-4 1-1 7 1 6-2 2 4 5 0 7 0 3-1 4 1 6 3l1 4c2 1 2 3 0 4 0 3 2 6 3 8s7-2 7 3l-3 7 3 9c4 6 10 0 10-2l14-2-1-1c5-1 11-5 16-4 1-1 6-2 6 0l10-5c3-1 1-9 4-11 5-3 4-1 5 1 0-1 0-3-2-3 1-3 0-7 2-8 5-2 5-1 7-5l3-5 1-5-4-4h4c1-1-7-12 1-10v-2-1h7c2-1 3-2 1-3-4-3-5-4-4-9s2-1 4-3l3-7c2-1 3-4 1-5l-11-5c-3 0-6 3-7 1l-4-7c-4-3-10 1-13-3-3-1-6-6-9-5-1 0-4 3-5 1-7-1-1-6-6-6-11-1-18 11-28 13l1-4h-1z"/></svg>