<?xml version="1.0" encoding="utf-8"?>
<!-- Generator: Adobe Illustrator 23.0.3, SVG Export Plug-In . SVG Version: 6.00 Build 0)  -->
<svg version="1.1" id="Camada_1" xmlns="http://www.w3.org/2000/svg" xmlns:xlink="http://www.w3.org/1999/xlink" x="0px" y="0px"
	 viewBox="0 0 496 496" style="enable-background:new 0 0 496 496;" xml:space="preserve">
<style type="text/css">
	.st0{fill:url(#SVGID_1_);}
	.st1{fill:url(#SVGID_2_);}
	.st2{fill:url(#SVGID_3_);}
	.st3{fill:url(#SVGID_4_);}
	.st4{fill:url(#SVGID_5_);}
	.st5{fill:url(#SVGID_6_);}
	.st6{fill:url(#SVGID_7_);}
	.st7{fill:url(#SVGID_8_);}
	.st8{fill:url(#SVGID_9_);}
	.st9{fill:url(#SVGID_10_);}
	.st10{fill:url(#SVGID_11_);}
	.st11{fill:url(#SVGID_12_);}
	.st12{fill:url(#SVGID_13_);}
	.st13{fill:url(#SVGID_14_);}
	.st14{fill:url(#SVGID_15_);}
</style>
<g>
	<linearGradient id="SVGID_1_" gradientUnits="userSpaceOnUse" x1="-38.5" y1="1.5" x2="502.5" y2="542.5">
		<stop  offset="0" style="stop-color:#66CC91"/>
		<stop  offset="1" style="stop-color:#E5FF66"/>
	</linearGradient>
	<path class="st0" d="M320,480v-57.2c0-3.4,0.7-6.7,2.1-9.7l26.5-59.6c2.3-5.1,3.4-10.6,3.4-16.3V320h104V40h-56V0h-88
		c-27.8,0-52,15.9-64,39c-12-23.2-36.2-39-64-39H96v40H40v280h104v15.7c0,6.8,1.7,13.5,5,19.4l32,57.5c2,3.5,3,7.6,3,11.6V480H0v16
		h496v-16H320z M440,56v248H272v8c0,13.2-10.8,24-24,24c-1,0-2-0.2-3-0.4c-4.2-17.8-13-34.1-25.9-47.6H400V56H440z M112,16h72
		c30.9,0,56,25.1,56,56v64h16V72c0-30.9,25.1-56,56-56h72v256H256V152h-16v120h-32v-40c0-26.5-21.5-48-48-48c-8.8,0-16,7.2-16,16v72
		h-32V16z M56,304V56h40v232h48v16H56z M163,347.4c-2-3.6-3-7.6-3-11.7V200c17.6,0,32,14.4,32,32v51.3l14.1,14.1
		c16.7,16.7,25.9,39,25.9,62.6h16c0-2.7-0.2-5.4-0.4-8c0.1,0,0.3,0,0.4,0c19.3,0,35.5-13.8,39.2-32H336v17.2c0,3.4-0.7,6.7-2.1,9.7
		l-26.5,59.6c-1.4,3-2.2,6.2-2.7,9.5H199.1c-0.8-3.9-2.2-7.6-4.1-11.1L163,347.4z M200,464h72v-16h-72v-16h104v16h-16v16h16v16H200
		V464z"/>
	<linearGradient id="SVGID_2_" gradientUnits="userSpaceOnUse" x1="33.5" y1="-70.5" x2="574.5" y2="470.5">
		<stop  offset="0" style="stop-color:#66CC91"/>
		<stop  offset="1" style="stop-color:#E5FF66"/>
	</linearGradient>
	<path class="st1" d="M312,208h16v16h-16V208z"/>
	<linearGradient id="SVGID_3_" gradientUnits="userSpaceOnUse" x1="49.5" y1="-86.5" x2="590.5" y2="454.5">
		<stop  offset="0" style="stop-color:#66CC91"/>
		<stop  offset="1" style="stop-color:#E5FF66"/>
	</linearGradient>
	<path class="st2" d="M344,208h16v16h-16V208z"/>
	<linearGradient id="SVGID_4_" gradientUnits="userSpaceOnUse" x1="17.5" y1="-54.5" x2="558.5" y2="486.5">
		<stop  offset="0" style="stop-color:#66CC91"/>
		<stop  offset="1" style="stop-color:#E5FF66"/>
	</linearGradient>
	<path class="st3" d="M280,208h16v16h-16V208z"/>
	<linearGradient id="SVGID_5_" gradientUnits="userSpaceOnUse" x1="17.5" y1="-54.5" x2="558.5" y2="486.5">
		<stop  offset="0" style="stop-color:#66CC91"/>
		<stop  offset="1" style="stop-color:#E5FF66"/>
	</linearGradient>
	<path class="st4" d="M272,240h96v16h-96V240z"/>
	<linearGradient id="SVGID_6_" gradientUnits="userSpaceOnUse" x1="49.5" y1="-86.5" x2="590.5" y2="454.5">
		<stop  offset="0" style="stop-color:#66CC91"/>
		<stop  offset="1" style="stop-color:#E5FF66"/>
	</linearGradient>
	<path class="st5" d="M272,176h96v16h-96V176z"/>
	<linearGradient id="SVGID_7_" gradientUnits="userSpaceOnUse" x1="77.5" y1="-114.5" x2="618.5" y2="426.5">
		<stop  offset="0" style="stop-color:#66CC91"/>
		<stop  offset="1" style="stop-color:#E5FF66"/>
	</linearGradient>
	<path class="st6" d="M272,120h96v16h-96V120z"/>
	<linearGradient id="SVGID_8_" gradientUnits="userSpaceOnUse" x1="93.5" y1="-130.5" x2="634.5" y2="410.5">
		<stop  offset="0" style="stop-color:#66CC91"/>
		<stop  offset="1" style="stop-color:#E5FF66"/>
	</linearGradient>
	<path class="st7" d="M272,88h96v16h-96V88z"/>
	<linearGradient id="SVGID_9_" gradientUnits="userSpaceOnUse" x1="109.5" y1="-146.5" x2="650.5" y2="394.5">
		<stop  offset="0" style="stop-color:#66CC91"/>
		<stop  offset="1" style="stop-color:#E5FF66"/>
	</linearGradient>
	<path class="st8" d="M272,56h96v16h-96V56z"/>
	<linearGradient id="SVGID_10_" gradientUnits="userSpaceOnUse" x1="21.5" y1="-58.5" x2="562.5" y2="482.5">
		<stop  offset="0" style="stop-color:#66CC91"/>
		<stop  offset="1" style="stop-color:#E5FF66"/>
	</linearGradient>
	<path class="st9" d="M168,88h16v16h-16V88z"/>
	<linearGradient id="SVGID_11_" gradientUnits="userSpaceOnUse" x1="37.5" y1="-74.5" x2="578.5" y2="466.5">
		<stop  offset="0" style="stop-color:#66CC91"/>
		<stop  offset="1" style="stop-color:#E5FF66"/>
	</linearGradient>
	<path class="st10" d="M200,88h16v16h-16V88z"/>
	<linearGradient id="SVGID_12_" gradientUnits="userSpaceOnUse" x1="5.5" y1="-42.5" x2="546.5" y2="498.5">
		<stop  offset="0" style="stop-color:#66CC91"/>
		<stop  offset="1" style="stop-color:#E5FF66"/>
	</linearGradient>
	<path class="st11" d="M136,88h16v16h-16V88z"/>
	<linearGradient id="SVGID_13_" gradientUnits="userSpaceOnUse" x1="37.5" y1="-74.5" x2="578.5" y2="466.5">
		<stop  offset="0" style="stop-color:#66CC91"/>
		<stop  offset="1" style="stop-color:#E5FF66"/>
	</linearGradient>
	<path class="st12" d="M128,56h96v16h-96V56z"/>
	<linearGradient id="SVGID_14_" gradientUnits="userSpaceOnUse" x1="5.5" y1="-42.5" x2="546.5" y2="498.5">
		<stop  offset="0" style="stop-color:#66CC91"/>
		<stop  offset="1" style="stop-color:#E5FF66"/>
	</linearGradient>
	<path class="st13" d="M128,120h96v16h-96V120z"/>
	<linearGradient id="SVGID_15_" gradientUnits="userSpaceOnUse" x1="-10.5" y1="-26.5" x2="530.5" y2="514.5">
		<stop  offset="0" style="stop-color:#66CC91"/>
		<stop  offset="1" style="stop-color:#E5FF66"/>
	</linearGradient>
	<path class="st14" d="M128,152h96v16h-96V152z"/>
</g>
</svg>
