<?xml version="1.0" encoding="utf-8"?>
<!-- Generator: Adobe Illustrator 23.0.3, SVG Export Plug-In . SVG Version: 6.00 Build 0)  -->
<svg version="1.1" id="Camada_1" xmlns="http://www.w3.org/2000/svg" xmlns:xlink="http://www.w3.org/1999/xlink" x="0px" y="0px"
	 viewBox="0 0 104.9 104.9" style="enable-background:new 0 0 104.9 104.9;" xml:space="preserve">
<style type="text/css">
	.st0{fill:#FFFFFF;}
	.st1{fill:url(#SVGID_1_);}
</style>
<g>
	
		<image style="overflow:visible;opacity:0.15;enable-background:new    ;" width="118" height="118" xlink:href="D21D2C1C.png"  transform="matrix(1 0 0 1 -6.5714 -5.5714)">
	</image>
	<g>
		<g>
			<circle class="st0" cx="52.4" cy="50" r="43.5"/>
			
				<radialGradient id="SVGID_1_" cx="52.43" cy="49.96" r="54.2639" fx="52.2029" fy="15.4727" gradientTransform="matrix(1 0 0 0.9957 0 0.2155)" gradientUnits="userSpaceOnUse">
				<stop  offset="0" style="stop-color:#FFCC66"/>
				<stop  offset="0.1643" style="stop-color:#FFC566"/>
				<stop  offset="0.3952" style="stop-color:#FFB366"/>
				<stop  offset="0.6655" style="stop-color:#FF9566"/>
				<stop  offset="0.9636" style="stop-color:#FF6C66"/>
				<stop  offset="1" style="stop-color:#FF6666"/>
			</radialGradient>
			<circle class="st1" cx="52.4" cy="50" r="39.8"/>
			<g>
				<path class="st0" d="M30.8,76.8c0.2-1,0.3-2,0.7-3c1.3-3.3,2.7-6.5,4.1-9.7c1.2-2.6,2.8-5,4.3-7.4c2-3.1,3.9-6.3,5.9-9.4
					c1.4-2.1,2.9-4.1,4.3-6.2c0.6-0.9,1.2-1.8,1.6-2.8c0.6-1.4,0.2-2.8-0.4-4.1c-1-2.2-2.5-4.1-4-5.9c-0.5-0.7-1.1-1.4-1.7-2.1
					c-0.4-0.6-0.7-1.2-0.7-1.9c0-0.5,0.3-0.8,0.7-0.8c1.3-0.3,2.4,0,3.4,0.8c0.4,0.3,0.8,0.7,1.1,1.1c0.9,1.2,1.8,2.4,2.7,3.6
					c0.5,0.6,0.9,1.2,1.4,1.8c0.8,0.9,1.9,1,2.9,0.2c0.6-0.5,1.1-1.2,1.7-1.8c2-2.2,4-4.5,6.4-6.4c0.9-0.7,1.8-1.3,3-1.2
					c0.7,0.1,1,0.4,0.7,1.1c-0.2,0.5-0.5,0.9-0.8,1.3c-2.2,2.6-4.5,5.2-6.8,7.8c-0.9,1-1.7,2.1-2.5,3.2c-0.8,1.1-0.8,2.2-0.3,3.4
					c1,2.3,2.1,4.5,3.1,6.7c1.4,3,2.8,6.1,4.1,9.2c2.5,5.8,4.9,11.6,7.4,17.4c0.5,1.1,1,2.2,0.9,3.5c-0.1,0.6-0.1,1.2-0.7,1.4
					c-0.6,0.2-1.1,0.1-1.6-0.2c-1-0.7-1.6-1.8-2-2.9c-1.4-3.3-2.8-6.7-4.2-10c-2.8-6.6-5.5-13.2-8.9-19.5c-0.3-0.5-0.6-0.9-0.8-1.3
					c-0.5-0.8-1.8-0.8-2.3-0.2c-0.4,0.5-0.9,0.9-1.2,1.5C50.1,47,48,50.3,46,53.5c-1.3,2.2-2.5,4.4-3.9,6.6
					c-3,4.9-5.3,10.2-7.7,15.4c-0.4,0.8-0.9,1.5-1.4,2.3c-0.4,0.6-0.9,0.7-1.5,0.6c-0.6-0.2-0.6-0.8-0.7-1.2
					C30.8,77.1,30.9,77,30.8,76.8C30.8,76.9,30.8,76.9,30.8,76.8z"/>
				<path class="st0" d="M54.1,62.7c2.2-0.1,3.8,0.9,5.2,2.6c2.1,2.6,3.1,5.6,3.7,8.8c0.1,0.7,0,1.5-0.2,2.3
					c-0.2,0.8-1.2,1.2-1.9,0.7c-0.5-0.4-0.8-0.9-1.1-1.4c-0.6-1.4-1.2-2.9-1.8-4.3c-0.6-1.4-1.4-2.8-2.5-3.9
					c-1.4-1.4-3.3-1.2-4.5-0.3c-1.2,0.8-1.8,2-2.3,3.4c-0.5,1.7-1,3.3-1.5,5c-0.1,0.4-0.3,0.9-0.5,1.3c-0.3,0.6-0.9,0.9-1.5,0.7
					c-0.7-0.1-1-0.6-1.1-1.3c-0.2-1.4,0.1-2.8,0.3-4.2c0.5-2.9,2.1-5.4,4.1-7.5c1-1.1,2.5-1.5,3.9-1.7C53,62.7,53.5,62.7,54.1,62.7z
					"/>
			</g>
		</g>
	</g>
</g>
</svg>
