<svg xmlns="http://www.w3.org/2000/svg" fill-rule="evenodd" stroke-linejoin="round" stroke-miterlimit="2" clip-rule="evenodd" viewBox="0 0 105 105"><circle cx="52.4" cy="50" r="43.5" fill="#fff"/><circle cx="52.4" cy="50" r="39.8" fill="url(#_Radial1)"/><g fill="#fff" fill-rule="nonzero"><path d="M30.8 77.2c-.1-.9 1-5 3.5-10.2 2.6-5.2 9.5-16.6 11.5-19.7l4.3-6.2c.6-.9 1.2-1.8 1.6-2.8.6-1.4.2-2.8-.4-4.1-1-2.2-2.5-4.1-4-5.9l-1.7-2.1c-.4-.6-.7-1.2-.7-1.9 0-.5.3-.8.7-.8 1.3-.3 2.4 0 3.4.8l1.1 1.1 2.7 3.6 1.4 1.8c.8.9 1.9 1 2.9.2l1.7-1.8c2-2.2 4-4.5 6.4-6.4.9-.7 1.8-1.3 3-1.2.7.1 1 .4.7 1.1l-.8 1.3-6.8 7.8-2.5 3.2c-.8 1.1-.8 2.2-.3 3.4l3.1 6.7 4.1 9.2 7.4 17.4a7 7 0 0 1 .9 3.5c-.1.6-.1 1.2-.7 1.4-.6.2-1.1.1-1.6-.2-1-.7-1.6-1.8-2-2.9l-4.2-10C62.7 56.9 60 50.3 56.6 44l-.8-1.3c-.5-.8-1.8-.8-2.3-.2-.4.5-.9.9-1.2 1.5-2.2 3-4.3 6.3-6.3 9.5-1.3 2.2-6.2 10-11.6 22L33 77.8c-.4.6-.9.7-1.5.6-.6-.2-.6-.7-.7-1.2z"/><path d="M54.1 62.7c1.8.1 3.8.9 5.2 2.6 2.1 2.6 3.1 5.6 3.7 8.8.1.7 0 1.5-.2 2.3-.2.8-1.2 1.2-1.9.7-.5-.4-.8-.9-1.1-1.4L58 71.4c-.6-1.4-1.4-2.8-2.5-3.9a3.4 3.4 0 0 0-4.5-.3c-1.2.8-1.8 2-2.3 3.4l-1.5 5a7 7 0 0 1-.5 1.3c-.3.6-.9.9-1.5.7-.7-.1-1-.6-1.1-1.3-.2-1.4.1-2.8.3-4.2.5-2.9 2-6 3.7-7.6 1.5-1.4 2.8-2 6-1.8z"/></g><defs><radialGradient id="_Radial1" cx="0" cy="0" r="1" gradientTransform="matrix(54.2639 0 0 54.0306 52.4 50)" gradientUnits="userSpaceOnUse"><stop offset="0" stop-color="#fc6"/><stop offset=".2" stop-color="#ffc566"/><stop offset=".4" stop-color="#ffb366"/><stop offset=".7" stop-color="#ff9566"/><stop offset="1" stop-color="#ff6c66"/><stop offset="1" stop-color="#f66"/></radialGradient></defs></svg>