<svg version="1.1" id="Camada_1" xmlns="http://www.w3.org/2000/svg" x="0" y="0" viewBox="0 0 105 105" xml:space="preserve"><style>.st0{fill:#fff}</style><path class="st0" d="M10.6 102.7c-.2-1.7 1.8-9.2 6.5-18.8 4.8-9.6 17.5-30.7 21.2-36.4l8-11.5c1.1-1.7 2.2-3.3 3-5.2 1.1-2.6.4-5.2-.7-7.6a45.6 45.6 0 00-7.4-10.9L38 8.5A6.5 6.5 0 0136.7 5c0-.9.6-1.5 1.3-1.5 2.4-.6 4.4 0 6.3 1.5l2 2 5 6.6 2.6 3.3c1.5 1.7 3.5 1.8 5.4.4l3.1-3.3c3.6-4 7.3-8.3 11.8-11.8C75.9.9 77.5-.2 79.7 0c1.3.2 1.8.7 1.3 2l-1.5 2.4L67 18.9l-4.6 5.9c-1.5 2-1.5 4.1-.6 6.3l5.7 12.4 7.6 17 13.7 32.1c1.1 2 1.7 4.2 1.7 6.5-.2 1.1-.2 2.2-1.3 2.6-1.1.4-2 .2-3-.4-1.8-1.3-3-3.3-3.7-5.4l-7.8-18.5c-5.2-12.2-10.2-24.4-16.4-36L56.8 39c-.9-1.5-3.3-1.5-4.2-.4-.7.9-1.7 1.7-2.2 2.8-4.1 5.5-7.9 11.6-11.6 17.5-2.5 4.1-11.6 18.5-21.5 40.7l-2.6 4.2c-.7 1.1-1.7 1.3-2.8 1.1-1.1-.3-1.1-1.3-1.3-2.2z"/><path class="st0" d="M53.7 75.9c3.3.2 7 1.7 9.6 4.8A34.7 34.7 0 0170.1 97c.2 1.3 0 2.8-.4 4.2a2.3 2.3 0 01-3.5 1.3 8.2 8.2 0 01-2-2.6L60.9 92a22.7 22.7 0 00-4.6-7.2 6.3 6.3 0 00-8.3-.6 11.6 11.6 0 00-4.2 6.3L41 99.7l-.9 2.4c-.6 1.1-1.7 1.7-2.8 1.3-1.3-.2-1.8-1.1-2-2.4-.4-2.6.2-5.2.6-7.8.9-5.4 3.7-11.1 6.8-14 2.6-2.5 5-3.6 11-3.3z"/></svg>