<?xml version="1.0" encoding="UTF-8" standalone="no"?><!DOCTYPE svg PUBLIC "-//W3C//DTD SVG 1.1//EN" "http://www.w3.org/Graphics/SVG/1.1/DTD/svg11.dtd"><svg width="100%" height="100%" viewBox="0 0 105 105" version="1.1" xmlns="http://www.w3.org/2000/svg" xmlns:xlink="http://www.w3.org/1999/xlink" xml:space="preserve" xmlns:serif="http://www.serif.com/" style="fill-rule:evenodd;clip-rule:evenodd;stroke-linejoin:round;stroke-miterlimit:2;"><g><circle cx="52.4" cy="50" r="43.5" style="fill:#fff;"/><circle cx="52.4" cy="50" r="39.8" style="fill:url(#_Radial1);"/><g><path d="M30.8,77.2c-0.102,-0.895 0.966,-4.985 3.521,-10.184c2.577,-5.245 9.479,-16.616 11.479,-19.716c1.4,-2.1 2.9,-4.1 4.3,-6.2c0.6,-0.9 1.2,-1.8 1.6,-2.8c0.6,-1.4 0.2,-2.8 -0.4,-4.1c-1,-2.2 -2.5,-4.1 -4,-5.9c-0.5,-0.7 -1.1,-1.4 -1.7,-2.1c-0.4,-0.6 -0.7,-1.2 -0.7,-1.9c0,-0.5 0.3,-0.8 0.7,-0.8c1.3,-0.3 2.4,0 3.4,0.8c0.4,0.3 0.8,0.7 1.1,1.1c0.9,1.2 1.8,2.4 2.7,3.6c0.5,0.6 0.9,1.2 1.4,1.8c0.8,0.9 1.9,1 2.9,0.2c0.6,-0.5 1.1,-1.2 1.7,-1.8c2,-2.2 4,-4.5 6.4,-6.4c0.9,-0.7 1.8,-1.3 3,-1.2c0.7,0.1 1,0.4 0.7,1.1c-0.2,0.5 -0.5,0.9 -0.8,1.3c-2.2,2.6 -4.5,5.2 -6.8,7.8c-0.9,1 -1.7,2.1 -2.5,3.2c-0.8,1.1 -0.8,2.2 -0.3,3.4c1,2.3 2.1,4.5 3.1,6.7c1.4,3 2.8,6.1 4.1,9.2c2.5,5.8 4.9,11.6 7.4,17.4c0.5,1.1 1,2.2 0.9,3.5c-0.1,0.6 -0.1,1.2 -0.7,1.4c-0.6,0.2 -1.1,0.1 -1.6,-0.2c-1,-0.7 -1.6,-1.8 -2,-2.9c-1.4,-3.3 -2.8,-6.7 -4.2,-10c-2.8,-6.6 -5.5,-13.2 -8.9,-19.5c-0.3,-0.5 -0.6,-0.9 -0.8,-1.3c-0.5,-0.8 -1.8,-0.8 -2.3,-0.2c-0.4,0.5 -0.9,0.9 -1.2,1.5c-2.2,3 -4.3,6.3 -6.3,9.5c-1.3,2.2 -6.182,9.996 -11.6,22c-0.368,0.815 -0.9,1.5 -1.4,2.3c-0.4,0.6 -0.9,0.7 -1.5,0.6c-0.6,-0.2 -0.647,-0.74 -0.7,-1.2Z" style="fill:#fff;fill-rule:nonzero;"/><path d="M54.1,62.7c1.8,0.117 3.8,0.9 5.2,2.6c2.1,2.6 3.1,5.6 3.7,8.8c0.1,0.7 0,1.5 -0.2,2.3c-0.2,0.8 -1.2,1.2 -1.9,0.7c-0.5,-0.4 -0.8,-0.9 -1.1,-1.4c-0.6,-1.4 -1.2,-2.9 -1.8,-4.3c-0.6,-1.4 -1.4,-2.8 -2.5,-3.9c-1.4,-1.4 -3.3,-1.2 -4.5,-0.3c-1.2,0.8 -1.8,2 -2.3,3.4c-0.5,1.7 -1,3.3 -1.5,5c-0.1,0.4 -0.3,0.9 -0.5,1.3c-0.3,0.6 -0.9,0.9 -1.5,0.7c-0.7,-0.1 -1,-0.6 -1.1,-1.3c-0.2,-1.4 0.1,-2.8 0.3,-4.2c0.5,-2.9 2.036,-5.997 3.652,-7.564c1.513,-1.466 2.841,-2.044 6.048,-1.836Z" style="fill:#fff;fill-rule:nonzero;"/></g></g><defs><radialGradient id="_Radial1" cx="0" cy="0" r="1" gradientUnits="userSpaceOnUse" gradientTransform="matrix(54.2639,0,0,54.0306,52.43,49.9607)"><stop offset="0" style="stop-color:#fc6;stop-opacity:1"/><stop offset="0.16" style="stop-color:#ffc566;stop-opacity:1"/><stop offset="0.4" style="stop-color:#ffb366;stop-opacity:1"/><stop offset="0.67" style="stop-color:#ff9566;stop-opacity:1"/><stop offset="0.96" style="stop-color:#ff6c66;stop-opacity:1"/><stop offset="1" style="stop-color:#f66;stop-opacity:1"/></radialGradient></defs></svg>