<svg xmlns="http://www.w3.org/2000/svg" version="1" viewBox="0 0 512 512"><linearGradient id="a" x1="58" x2="610" y1="-96" y2="458" gradientUnits="userSpaceOnUse"><stop offset="0" stop-color="#66cc91"/><stop offset="1" stop-color="#e5ff66"/></linearGradient><path fill="url(#a)" d="M393 36h-90V12c0-7-5-12-12-12h-70c-7 0-12 5-12 12v24h-90c-20 0-36 16-36 36v73a8 8 0 1 0 15 0V72c0-11 9-20 21-20h90v16c0 6 5 11 12 11h70c7 0 12-5 12-11V52h90c12 0 21 9 21 20v184a8 8 0 1 0 15 0V72c0-20-16-36-36-36zM288 64h-64V15h64v49z"/><linearGradient id="b" x1="-85" x2="467" y1="45" y2="599" gradientUnits="userSpaceOnUse"><stop offset="0" stop-color="#66cc91"/><stop offset="1" stop-color="#e5ff66"/></linearGradient><path fill="url(#b)" d="M422 279c-5 0-8 3-8 7v190c0 12-9 21-21 21H119c-12 0-21-9-21-21V175a8 8 0 1 0-15 0v301c0 20 16 36 36 36h274c20 0 36-16 36-36V286c0-4-3-7-7-7z"/><linearGradient id="c" x1="-149" x2="403" y1="109" y2="663" gradientUnits="userSpaceOnUse"><stop offset="0" stop-color="#66cc91"/><stop offset="1" stop-color="#e5ff66"/></linearGradient><path fill="url(#c)" d="M128 471c0 4 4 8 8 8h152a8 8 0 1 0 0-16H136c-4 1-8 4-8 8z"/><linearGradient id="d" x1="-81" x2="471" y1="42" y2="596" gradientUnits="userSpaceOnUse"><stop offset="0" stop-color="#66cc91"/><stop offset="1" stop-color="#e5ff66"/></linearGradient><path fill="url(#d)" d="M311 471c0 4 3 8 7 8h58a8 8 0 1 0 0-16h-58c-4 1-7 4-7 8z"/><linearGradient id="e" x1="-24" x2="528" y1="-15" y2="539" gradientUnits="userSpaceOnUse"><stop offset="0" stop-color="#66cc91"/><stop offset="1" stop-color="#e5ff66"/></linearGradient><path fill="url(#e)" d="M270 256c-5 0-8 3-8 7s-3 6-6 6-6-2-6-6-3-7-8-7c-14 0-7 28 14 28s28-28 14-28z"/><linearGradient id="f" x1="9" x2="561" y1="-47" y2="507" gradientUnits="userSpaceOnUse"><stop offset="0" stop-color="#66cc91"/><stop offset="1" stop-color="#e5ff66"/></linearGradient><path fill="url(#f)" d="M299 236c0 4-4 8-8 8-5 0-8-4-8-8 0-5 3-8 8-8 4 0 8 3 8 8z"/><linearGradient id="g" x1="-26" x2="526" y1="-13" y2="541" gradientUnits="userSpaceOnUse"><stop offset="0" stop-color="#66cc91"/><stop offset="1" stop-color="#e5ff66"/></linearGradient><path fill="url(#g)" d="M229 236c0 4-3 8-8 8s-8-4-8-8c0-5 4-8 8-8s8 3 8 8z"/><linearGradient id="h" x1="18" x2="570" y1="-57" y2="497" gradientUnits="userSpaceOnUse"><stop offset="0" stop-color="#66cc91"/><stop offset="1" stop-color="#e5ff66"/></linearGradient><path fill="url(#h)" d="M281 225c5-1 16-2 21 1l4 2c8 0 11-10 4-14-11-8-30-4-32-4-4 1-6 5-6 9 1 4 5 7 9 6z"/><linearGradient id="i" x1="-19" x2="533" y1="-20" y2="534" gradientUnits="userSpaceOnUse"><stop offset="0" stop-color="#66cc91"/><stop offset="1" stop-color="#e5ff66"/></linearGradient><path fill="url(#i)" d="M239 219c1-4-1-8-5-9-3 0-21-4-32 3-4 3-5 7-3 11s7 5 11 2 15-2 20-1 9-2 9-6z"/><linearGradient id="j" x1="-69" x2="483" y1="29" y2="583" gradientUnits="userSpaceOnUse"><stop offset="0" stop-color="#66cc91"/><stop offset="1" stop-color="#e5ff66"/></linearGradient><path fill="url(#j)" d="M284 413c0 4 3 7 8 7h43a8 8 0 1 0 0-15h-43c-5 0-8 3-8 8z"/><linearGradient id="k" x1="-126" x2="426" y1="87" y2="641" gradientUnits="userSpaceOnUse"><stop offset="0" stop-color="#66cc91"/><stop offset="1" stop-color="#e5ff66"/></linearGradient><path fill="url(#k)" d="M177 420h43a8 8 0 1 0 0-15h-43a8 8 0 1 0 0 15z"/><linearGradient id="l" x1="-39" x2="513" y2="554" gradientUnits="userSpaceOnUse"><stop offset="0" stop-color="#66cc91"/><stop offset="1" stop-color="#e5ff66"/></linearGradient><path fill="url(#l)" d="M140 417c0 15 12 28 27 28h178c15 0 27-13 27-28 0-45-31-87-81-97 16-10 33-27 38-46a33 33 0 0 0 2-63v-18c8-4 13-12 13-21v-26c0-16-14-29-30-29h-8c-7-14-23-23-40-23h-58c-24 0-43 18-43 40v64c0 3 1 5 3 7 4 3 8 2 12 0v6c-12 4-21 17-21 31 0 15 10 28 23 32 6 19 22 35 39 46 0 0-25 3-47 22a99 99 0 0 0-34 75zm191-189a18 18 0 0 1 0 28v-28zm-150 28a18 18 0 0 1 0-28v28zm144 119c7-3 7-10 6-18 16 14 26 36 26 60 0 7-5 13-12 13h-82v-52l35-15 14 11c4 2 9 3 13 1zm-69-14l-15-16v-14c12 5 18 5 30 0v14l-15 16zm39-24l8 3c7 4 11 9 13 17-17-12-15-12-32-5 3-3 2-4 2-17l9 2zM180 190v-55c0-15 13-26 28-26h59c12 0 23 8 27 19 0 2 1 4 3 5 4 2 6 0 11 0h6c8 0 15 6 15 14v25c0 5-4 9-10 9h-11c-7 0-13-4-15-10-3-8-14-8-16 0l-6 10-6-11c-4-5-12-5-15 1l-6 9v-18c-2-7-12-9-16-3a83 83 0 0 1-48 31zm19 85c-4-9-3-21-3-74 10-4 21-9 31-19l-5 9c-8 5-2 17 7 14 8-2 19-7 28-17v2c-2 7 5 13 12 10 3-1 11-6 16-13 6 6 14 9 23 9h8c0 53 1 69-3 79a90 90 0 0 1-56 44c-15 0-48-21-58-44zm27 60c0 13-1 15 1 17l-8-3c-5-3-10-1-12 1l-11 7c3-15 14-19 30-22zm-45 22c-1 8-1 15 6 18 4 2 9 1 13-1l14-11 34 15v52h-81c-7 0-12-6-12-13 0-23 9-44 26-60z"/></svg>