<svg xmlns="http://www.w3.org/2000/svg" version="1" viewBox="0 0 496 496"><linearGradient id="a" x1="-39" x2="503" y1="2" y2="543" gradientUnits="userSpaceOnUse"><stop offset="0" stop-color="#66cc91"/><stop offset="1" stop-color="#e5ff66"/></linearGradient><path fill="url(#a)" d="M320 480v-57l2-10 27-59c2-6 3-11 3-17v-17h104V40h-56V0h-88c-28 0-52 16-64 39a72 72 0 0 0-64-39H96v40H40v280h104v16c0 6 2 13 5 19l32 58c2 3 3 7 3 11v56H0v16h496v-16H320zM440 56v248H272v8c0 13-11 24-24 24h-3c-4-18-13-34-26-48h181V56h40zM112 16h72c31 0 56 25 56 56v64h16V72c0-31 25-56 56-56h72v256H256V152h-16v120h-32v-40c0-26-21-48-48-48-9 0-16 7-16 16v72h-32V16zM56 304V56h40v232h48v16H56zm107 43c-2-3-3-7-3-11V200c18 0 32 14 32 32v51l14 14c17 17 26 39 26 63h16v-8c19 0 36-14 39-32h49v17l-2 10-27 60-2 9H199l-4-11-32-58zm37 117h72v-16h-72v-16h104v16h-16v16h16v16H200v-16z"/><linearGradient id="b" x1="34" x2="575" y1="-71" y2="471" gradientUnits="userSpaceOnUse"><stop offset="0" stop-color="#66cc91"/><stop offset="1" stop-color="#e5ff66"/></linearGradient><path fill="url(#b)" d="M312 208h16v16h-16v-16z"/><linearGradient id="c" x1="50" x2="591" y1="-87" y2="455" gradientUnits="userSpaceOnUse"><stop offset="0" stop-color="#66cc91"/><stop offset="1" stop-color="#e5ff66"/></linearGradient><path fill="url(#c)" d="M344 208h16v16h-16v-16z"/><linearGradient id="d" x1="18" x2="559" y1="-55" y2="487" gradientUnits="userSpaceOnUse"><stop offset="0" stop-color="#66cc91"/><stop offset="1" stop-color="#e5ff66"/></linearGradient><path fill="url(#d)" d="M280 208h16v16h-16v-16z"/><linearGradient id="e" x1="18" x2="559" y1="-55" y2="487" gradientUnits="userSpaceOnUse"><stop offset="0" stop-color="#66cc91"/><stop offset="1" stop-color="#e5ff66"/></linearGradient><path fill="url(#e)" d="M272 240h96v16h-96v-16z"/><linearGradient id="f" x1="50" x2="591" y1="-87" y2="455" gradientUnits="userSpaceOnUse"><stop offset="0" stop-color="#66cc91"/><stop offset="1" stop-color="#e5ff66"/></linearGradient><path fill="url(#f)" d="M272 176h96v16h-96v-16z"/><linearGradient id="g" x1="78" x2="619" y1="-115" y2="427" gradientUnits="userSpaceOnUse"><stop offset="0" stop-color="#66cc91"/><stop offset="1" stop-color="#e5ff66"/></linearGradient><path fill="url(#g)" d="M272 120h96v16h-96v-16z"/><linearGradient id="h" x1="94" x2="635" y1="-131" y2="411" gradientUnits="userSpaceOnUse"><stop offset="0" stop-color="#66cc91"/><stop offset="1" stop-color="#e5ff66"/></linearGradient><path fill="url(#h)" d="M272 88h96v16h-96V88z"/><linearGradient id="i" x1="110" x2="651" y1="-147" y2="395" gradientUnits="userSpaceOnUse"><stop offset="0" stop-color="#66cc91"/><stop offset="1" stop-color="#e5ff66"/></linearGradient><path fill="url(#i)" d="M272 56h96v16h-96V56z"/><linearGradient id="j" x1="22" x2="563" y1="-59" y2="483" gradientUnits="userSpaceOnUse"><stop offset="0" stop-color="#66cc91"/><stop offset="1" stop-color="#e5ff66"/></linearGradient><path fill="url(#j)" d="M168 88h16v16h-16V88z"/><linearGradient id="k" x1="38" x2="579" y1="-75" y2="467" gradientUnits="userSpaceOnUse"><stop offset="0" stop-color="#66cc91"/><stop offset="1" stop-color="#e5ff66"/></linearGradient><path fill="url(#k)" d="M200 88h16v16h-16V88z"/><linearGradient id="l" x1="6" x2="547" y1="-43" y2="499" gradientUnits="userSpaceOnUse"><stop offset="0" stop-color="#66cc91"/><stop offset="1" stop-color="#e5ff66"/></linearGradient><path fill="url(#l)" d="M136 88h16v16h-16V88z"/><linearGradient id="m" x1="38" x2="579" y1="-75" y2="467" gradientUnits="userSpaceOnUse"><stop offset="0" stop-color="#66cc91"/><stop offset="1" stop-color="#e5ff66"/></linearGradient><path fill="url(#m)" d="M128 56h96v16h-96V56z"/><linearGradient id="n" x1="6" x2="547" y1="-43" y2="499" gradientUnits="userSpaceOnUse"><stop offset="0" stop-color="#66cc91"/><stop offset="1" stop-color="#e5ff66"/></linearGradient><path fill="url(#n)" d="M128 120h96v16h-96v-16z"/><linearGradient id="o" x1="-11" x2="531" y1="-27" y2="515" gradientUnits="userSpaceOnUse"><stop offset="0" stop-color="#66cc91"/><stop offset="1" stop-color="#e5ff66"/></linearGradient><path fill="url(#o)" d="M128 152h96v16h-96v-16z"/></svg>