<svg xmlns="http://www.w3.org/2000/svg" version="1" viewBox="0 0 512 512"><linearGradient id="a" x1="23" x2="537" y1="538" y2="25" gradientUnits="userSpaceOnUse"><stop offset="0" stop-color="#08c"/><stop offset="1" stop-color="#f66"/></linearGradient><path fill="url(#a)" d="M463 438l-52-73-8-13-22-136-5-24v-1L321 25a36 36 0 0 0-65-7l-4-5a36 36 0 0 0-61 12l-55 166v1l-5 24-22 136-8 13-51 73c-2 3-2 5-2 8s2 5 4 7l87 57c2 2 4 2 6 2 3 0 6-1 8-4l53-73 37-50 1-5 12-92 12 92 2 5 36 50 53 73a10 10 0 0 0 14 2l87-58c2-1 4-3 4-6 1-3 0-5-1-8zm-321 50l-70-47 40-57 72 47-42 57zm104-280l-21 167-29 40-73-47 4-7 1-4 23-137 4-23 55-166c2-7 8-11 15-11 4 0 9 2 12 6 3 3 4 8 3 12l-13 92-1 1-2 33a41 41 0 0 0-40 36l-7 55-1 8a10 10 0 1 0 20 2l8-62c1-6 3-11 8-14 4-4 10-5 15-4h4c10 3 16 13 15 23zm10-29c-3-4-8-7-12-10l2-36 10-64 10 64 2 36c-4 2-9 6-12 10zm31 196l-21-167v-2c0-10 6-18 15-21h4c5-1 11 0 15 4s7 8 8 14l8 62a10 10 0 1 0 20-2l-1-8-7-55c-1-10-7-20-16-27-3-3-7-5-11-6-4-2-8-2-13-3l-2-33-1-1-13-92c-1-4 0-9 3-12 3-4 8-6 12-6 7 0 13 4 15 11l55 166 4 23 23 137 1 4 4 7-73 47-29-40zm83 113l-42-57 72-47 40 57-70 47z"/><linearGradient id="b" x1="57" x2="570" y1="573" y2="60" gradientUnits="userSpaceOnUse"><stop offset="0" stop-color="#08c"/><stop offset="1" stop-color="#f66"/></linearGradient><path fill="url(#b)" d="M340 298l-1-2-1-2-1-1-1-1-2-1-2-1h-4l-2 1-1 1-2 1-1 1-1 2v2l-1 2 1 2v2l1 1 1 2 2 1 2 1 1 1h4l2-1 2-1 2-1 2-7v-2z"/><linearGradient id="c" x1="-17" x2="496" y1="498" y2="-15" gradientUnits="userSpaceOnUse"><stop offset="0" stop-color="#08c"/><stop offset="1" stop-color="#f66"/></linearGradient><path fill="url(#c)" d="M192 298l-1-2-1-2-1-1-2-1-1-1-2-1h-4l-2 1-2 1-1 1-2 1v2l-1 2v4l1 2v1l2 2 1 1 2 1 2 1h4l2-1 1-1 2-1 1-2 1-1 1-2v-2-2z"/><linearGradient id="d" x1="20" x2="532" y1="534" y2="22" gradientUnits="userSpaceOnUse"><stop offset="0" stop-color="#08c"/><stop offset="1" stop-color="#f66"/></linearGradient><path fill="url(#d)" d="M447 115h-36c-5 0-10 5-10 10 0 6 5 10 10 10h36c5 0 10-4 10-10 0-5-5-10-10-10z"/><linearGradient id="e" x1="48" x2="557" y1="558" y2="49" gradientUnits="userSpaceOnUse"><stop offset="0" stop-color="#08c"/><stop offset="1" stop-color="#f66"/></linearGradient><path fill="url(#e)" d="M441 190l-25-25a10 10 0 1 0-14 14l25 26c2 2 4 2 7 2s5-1 7-2c4-4 4-11 0-15z"/><g><linearGradient id="f" x1="-14" x2="499" y1="501" y2="-12" gradientUnits="userSpaceOnUse"><stop offset="0" stop-color="#08c"/><stop offset="1" stop-color="#f66"/></linearGradient><path fill="url(#f)" d="M441 47c-4-4-10-4-14 0l-25 25a10 10 0 0 0 7 17c2 0 5-1 7-3l25-25c4-4 4-10 0-14z"/></g><g><linearGradient id="g" x1="-152" x2="360" y1="361" y2="-151" gradientUnits="userSpaceOnUse"><stop offset="0" stop-color="#08c"/><stop offset="1" stop-color="#f66"/></linearGradient><path fill="url(#g)" d="M101 116H66c-6 0-10 5-10 10 0 6 4 10 10 10h35c6 0 10-4 10-10 0-5-4-10-10-10z"/></g><g><linearGradient id="h" x1="-176" x2="333" y1="334" y2="-176" gradientUnits="userSpaceOnUse"><stop offset="0" stop-color="#08c"/><stop offset="1" stop-color="#f66"/></linearGradient><path fill="url(#h)" d="M111 72L85 47a10 10 0 1 0-14 14l25 25c2 2 5 3 8 3s5-1 7-3c3-4 3-10 0-14z"/></g><g><linearGradient id="i" x1="-119" x2="394" y1="395" y2="-118" gradientUnits="userSpaceOnUse"><stop offset="0" stop-color="#08c"/><stop offset="1" stop-color="#f66"/></linearGradient><path fill="url(#i)" d="M111 165c-4-4-11-4-15 0l-25 25a10 10 0 0 0 7 17l8-2 25-26c3-3 3-10 0-14z"/></g></svg>