<svg xmlns="http://www.w3.org/2000/svg" fill-rule="evenodd" stroke-linejoin="round" stroke-miterlimit="2" clip-rule="evenodd" viewBox="0 0 2100 512"><clipPath id="a"><path d="M0 0h512v512H0z"/></clipPath><g fill-rule="nonzero" clip-path="url(#a)"><path fill="#4267b2" d="M483.7 0H28.2A28.3 28.3 0 0 0 0 28.3v455.5A28.3 28.3 0 0 0 28.3 512h455.4a28.3 28.3 0 0 0 28.3-28.3V28.2A28.3 28.3 0 0 0 483.7 0z"/><path fill="#fff" d="M353.5 512V314h66.8l10-77.5h-76.8v-49.4c0-22.3 6.2-37.6 38.3-37.6h40.7V80.4c-7-1-31.4-3-59.6-3-59 0-99.4 36-99.4 102v57.1H207V314h66.5v198h80z"/></g><clipPath id="b"><path d="M1589 0h511v511h-511z"/></clipPath><g clip-path="url(#b)"><path fill="#1da1f2" fill-rule="nonzero" d="M1748.7 463.2c192.9 0 298.3-159.8 298.3-298.3 0-4.5 0-9-.3-13.5A213.3 213.3 0 0 0 2099 97c-18.8 8.3-39 14-60.2 16.5 21.6-13 38.3-33.5 46.1-58a210.3 210.3 0 0 1-66.6 25.4 104.7 104.7 0 0 0-181.3 71.7c0 8.3.9 16.3 2.7 24A297.7 297.7 0 0 1 1623.6 67a104.6 104.6 0 0 0 32.4 140 104 104 0 0 1-47.5-13.1v1.3c0 50.8 36.2 93.2 84.1 102.8a105.2 105.2 0 0 1-47.3 1.8 105 105 0 0 0 98 72.8A210.3 210.3 0 0 1 1588 416a296.8 296.8 0 0 0 160.7 47.1"/></g><clipPath id="c"><path d="M529.7 0h512v512h-512z"/></clipPath><g fill-rule="nonzero" clip-path="url(#c)"><path fill="red" d="M1031.1 133A64.1 64.1 0 0 0 986 88c-40-11-200.3-11-200.3-11s-160.3 0-200.4 10.5a65.5 65.5 0 0 0-45 45.6c-10.6 40-10.6 123.1-10.6 123.1s0 83.5 10.5 123.2c6 22 23.2 39.2 45.1 45.1 40.5 11 200.4 11 200.4 11s160.2 0 200.3-10.6a64.1 64.1 0 0 0 45.1-45c10.6-40.2 10.6-123.2 10.6-123.2s.4-83.5-10.6-123.6z"/><path fill="#fff" d="M734.6 333L868 256.2l-133.3-76.7V333z"/></g><path fill="url(#_Linear4)" fill-rule="nonzero" d="M1569.8 149.5a188 188 0 0 0-12-62.2c-6.3-17-16.4-32.5-29.4-45.3a125.5 125.5 0 0 0-45.4-29.6A187.9 187.9 0 0 0 1421 .5c-27.3-1.2-36-1.5-105.6-1.5-69.5 0-78.2.3-105.5 1.5a188 188 0 0 0-62.2 12c-17 6.4-32.5 16.4-45.3 29.5a125.5 125.5 0 0 0-29.5 45.3 188 188 0 0 0-12 62.1c-1.2 27.4-1.5 36-1.5 105.6 0 69.5.3 78.2 1.6 105.5 1.2 27.3 5.5 45.9 11.9 62.2 6.4 17 16.5 32.5 29.5 45.3 12.8 13 28.3 23.1 45.3 29.6a187.8 187.8 0 0 0 62.2 11.9c27.3 1.2 36 1.5 105.5 1.5 69.6 0 78.3-.3 105.6-1.5 27.2-1.3 45.8-5.6 62.1-12a130.9 130.9 0 0 0 74.9-74.8 187.9 187.9 0 0 0 11.9-62.2c1.2-27.3 1.5-36 1.5-105.5s-.3-78.2-1.5-105.5zm-46 209c-1.2 25-5.4 38.5-8.9 47.5a84.8 84.8 0 0 1-48.6 48.6c-9 3.5-22.6 7.6-47.5 8.8-27 1.2-35.1 1.5-103.5 1.5-68.3 0-76.4-.3-103.4-1.5-25-1.2-38.5-5.3-47.6-8.8a79.3 79.3 0 0 1-29.4-19.2 79.3 79.3 0 0 1-19.1-29.4c-3.5-9-7.7-22.6-8.9-47.6-1.2-27-1.4-35-1.4-103.4s.2-76.4 1.4-103.4c1.2-25 5.4-38.6 8.9-47.6a79.4 79.4 0 0 1 19.1-29.4c8.3-8.5 18.3-15 29.4-19.2 9-3.5 22.6-7.6 47.6-8.8 27-1.2 35-1.5 103.4-1.5s76.5.3 103.5 1.5c25 1.2 38.5 5.3 47.5 8.8a79.4 79.4 0 0 1 29.4 19.2c8.5 8.2 15 18.3 19.2 29.4 3.5 9 7.7 22.6 8.8 47.6 1.2 27 1.5 35 1.5 103.4s-.3 76.5-1.5 103.4z"/><path fill="url(#_Linear5)" fill-rule="nonzero" d="M1315.3 123.5a131.5 131.5 0 1 0 0 263 131.5 131.5 0 0 0 0-263zm0 216.8a85.3 85.3 0 1 1 0-170.6 85.3 85.3 0 0 1 0 170.6z"/><path fill="url(#_Linear6)" fill-rule="nonzero" d="M1482.7 118.3a30.7 30.7 0 1 1-61.4 0 30.7 30.7 0 0 1 61.4 0z"/><defs><linearGradient id="_Linear4" x2="1" gradientTransform="rotate(-45 1116.1 -1096.6) scale(602.551)" gradientUnits="userSpaceOnUse"><stop offset="0" stop-color="#ffd600"/><stop offset=".5" stop-color="#ff0100"/><stop offset="1" stop-color="#d800b9"/></linearGradient><linearGradient id="_Linear5" x2="1" gradientTransform="rotate(-45 1031.2 -1301.6) scale(262.918)" gradientUnits="userSpaceOnUse"><stop offset="0" stop-color="#ff6400"/><stop offset=".5" stop-color="#ff0100"/><stop offset="1" stop-color="#fd0056"/></linearGradient><linearGradient id="_Linear6" x2="1" gradientTransform="scale(61.4387) rotate(-45 14.4 -27)" gradientUnits="userSpaceOnUse"><stop offset="0" stop-color="#f30072"/><stop offset="1" stop-color="#e50097"/></linearGradient></defs></svg>