<?xml version="1.0" encoding="UTF-8" standalone="no"?><!DOCTYPE svg PUBLIC "-//W3C//DTD SVG 1.1//EN" "http://www.w3.org/Graphics/SVG/1.1/DTD/svg11.dtd"><svg width="100%" height="100%" viewBox="0 0 2100 512" version="1.1" xmlns="http://www.w3.org/2000/svg" xmlns:xlink="http://www.w3.org/1999/xlink" xml:space="preserve" xmlns:serif="http://www.serif.com/" style="fill-rule:evenodd;clip-rule:evenodd;stroke-linejoin:round;stroke-miterlimit:2;"><clipPath id="_clip1"><rect id="facebook" x="0" y="0" width="512" height="512"/></clipPath><g clip-path="url(#_clip1)"><path d="M483.738,0l-455.5,0c-15.597,0.008 -28.242,12.66 -28.238,28.262l0,455.5c0.008,15.597 12.66,28.242 28.262,28.238l455.476,0c15.606,0.004 28.258,-12.645 28.262,-28.25l0,-0.012l0,-455.5c-0.008,-15.597 -12.66,-28.242 -28.262,-28.238Z" style="fill:#4267b2;fill-rule:nonzero;"/><path d="M353.5,512l0,-198l66.75,0l10,-77.5l-76.75,0l0,-49.359c0,-22.387 6.215,-37.641 38.316,-37.641l40.684,0l0,-69.129c-7.078,-0.941 -31.363,-3.047 -59.621,-3.047c-59,0 -99.379,36 -99.379,102.141l0,57.035l-66.5,0l0,77.5l66.5,0l0,198l80,0Z" style="fill:#fff;fill-rule:nonzero;"/></g><clipPath id="_clip2"><rect id="twitter" x="1589" y="0" width="511" height="511"/></clipPath><g clip-path="url(#_clip2)"><path d="M1748.71,463.199c192.842,0 298.296,-159.761 298.296,-298.295c0,-4.538 -0.094,-9.057 -0.296,-13.552c20.468,-14.799 38.261,-33.267 52.296,-54.288c-18.784,8.351 -39.002,13.968 -60.207,16.506c21.646,-12.982 38.265,-33.512 46.102,-57.988c-20.258,12.008 -42.69,20.733 -66.573,25.447c-19.131,-20.379 -46.371,-33.123 -76.53,-33.123c-57.895,0 -104.846,46.951 -104.846,104.826c0,8.23 0.92,16.23 2.717,23.907c-87.134,-4.386 -164.401,-46.102 -216.105,-109.54c-9.002,15.493 -14.195,33.493 -14.195,52.698c0,36.37 18.511,68.483 46.655,87.266c-17.2,-0.53 -33.356,-5.251 -47.481,-13.111c-0.016,0.441 -0.016,0.87 -0.016,1.338c0,50.775 36.137,93.169 84.113,102.775c-8.811,2.398 -18.082,3.688 -27.645,3.688c-6.745,0 -13.318,-0.662 -19.708,-1.891c13.349,41.657 52.055,71.969 97.942,72.819c-35.883,28.125 -81.088,44.877 -130.214,44.877c-8.453,0 -16.803,-0.483 -25.01,-1.45c46.398,29.739 101.497,47.095 160.709,47.095" style="fill:#1da1f2;fill-rule:nonzero;"/></g><clipPath id="_clip3"><rect id="youtube" x="529.667" y="0" width="512" height="512"/></clipPath><g clip-path="url(#_clip3)"><path d="M1031.12,133.094c-5.903,-21.933 -23.196,-39.222 -45.125,-45.128c-40.066,-10.965 -200.331,-10.965 -200.331,-10.965c0,0 -160.261,0 -200.328,10.547c-21.507,5.902 -39.222,23.617 -45.124,45.546c-10.543,40.063 -10.543,123.148 -10.543,123.148c0,0 0,83.504 10.543,123.148c5.906,21.93 23.195,39.223 45.128,45.129c40.485,10.965 200.328,10.965 200.328,10.965c0,0 160.261,0 200.327,-10.547c21.933,-5.903 39.222,-23.195 45.129,-45.125c10.543,-40.066 10.543,-123.148 10.543,-123.148c0,0 0.421,-83.507 -10.547,-123.57Z" style="fill:#f00;fill-rule:nonzero;"/><path d="M734.635,333l133.269,-76.758l-133.269,-76.757l0,153.515Z" style="fill:#fff;fill-rule:nonzero;"/></g><path d="M1569.79,149.453c-1.246,-27.25 -5.574,-45.859 -11.902,-62.141c-6.426,-17.082 -16.504,-32.554 -29.527,-45.343c-12.786,-13.024 -28.262,-23.106 -45.344,-29.535c-16.285,-6.325 -34.891,-10.649 -62.141,-11.887c-27.301,-1.25 -36.023,-1.547 -105.547,-1.547c-69.523,0 -78.246,0.297 -105.547,1.539c-27.25,1.246 -45.855,5.574 -62.14,11.902c-17.082,6.426 -32.555,16.504 -45.344,29.528c-13.023,12.785 -23.105,28.258 -29.535,45.34c-6.324,16.285 -10.649,34.894 -11.887,62.14c-1.25,27.305 -1.547,36.024 -1.547,105.547c0,69.527 0.297,78.25 1.547,105.551c1.242,27.246 5.571,45.855 11.899,62.14c6.425,17.079 16.504,32.555 29.527,45.34c12.785,13.024 28.262,23.102 45.344,29.528c16.281,6.332 34.89,10.656 62.14,11.902c27.305,1.246 36.024,1.539 105.547,1.539c69.524,0 78.246,-0.293 105.547,-1.539c27.25,-1.246 45.856,-5.57 62.141,-11.902c34.386,-13.297 61.57,-40.481 74.867,-74.868c6.332,-16.285 10.656,-34.894 11.902,-62.14c1.242,-27.305 1.539,-36.024 1.539,-105.547c0,-69.527 -0.297,-78.246 -1.539,-105.547Zm-46.082,208.996c-1.136,24.961 -5.308,38.516 -8.812,47.535c-8.614,22.328 -26.258,39.973 -48.586,48.586c-9.02,3.504 -22.574,7.676 -47.535,8.813c-26.989,1.234 -35.086,1.492 -103.446,1.492c-68.363,0 -76.457,-0.258 -103.449,-1.492c-24.957,-1.137 -38.512,-5.309 -47.535,-8.813c-11.117,-4.105 -21.176,-10.648 -29.434,-19.152c-8.504,-8.258 -15.047,-18.313 -19.152,-29.434c-3.504,-9.019 -7.676,-22.574 -8.812,-47.535c-1.231,-26.992 -1.493,-35.09 -1.493,-103.445c0,-68.359 0.262,-76.453 1.493,-103.449c1.14,-24.961 5.308,-38.516 8.812,-47.535c4.105,-11.122 10.652,-21.18 19.152,-29.438c8.258,-8.504 18.317,-15.047 29.438,-19.148c9.019,-3.508 22.574,-7.676 47.535,-8.817c26.992,-1.23 35.09,-1.492 103.445,-1.492l-0.004,0c68.356,0 76.454,0.262 103.45,1.496c24.961,1.137 38.511,5.309 47.535,8.813c11.117,4.105 21.176,10.648 29.433,19.148c8.504,8.258 15.047,18.316 19.149,29.438c3.508,9.019 7.68,22.574 8.816,47.535c1.231,26.992 1.492,35.09 1.492,103.445c0,68.359 -0.257,76.453 -1.492,103.449Z" style="fill:url(#_Linear4);fill-rule:nonzero;"/><path d="M1315.33,123.539c-72.601,0 -131.457,58.859 -131.457,131.461c0,72.602 58.856,131.457 131.457,131.457c72.606,0 131.461,-58.855 131.461,-131.457c0,-72.602 -58.855,-131.461 -131.461,-131.461Zm0,216.793c-47.125,-0.004 -85.332,-38.207 -85.328,-85.336c0,-47.125 38.203,-85.332 85.332,-85.332c47.129,0.004 85.332,38.207 85.332,85.332c0,47.129 -38.207,85.336 -85.336,85.336Z" style="fill:url(#_Linear5);fill-rule:nonzero;"/><path d="M1482.7,118.348c0,16.965 -13.753,30.718 -30.718,30.718c-16.969,0 -30.723,-13.754 -30.723,-30.718c0,-16.969 13.754,-30.723 30.723,-30.723c16.965,0 30.718,13.754 30.718,30.723Z" style="fill:url(#_Linear6);fill-rule:nonzero;"/><defs><linearGradient id="_Linear4" x1="0" y1="0" x2="1" y2="0" gradientUnits="userSpaceOnUse" gradientTransform="matrix(426.068,-426.068,426.068,426.068,1102.3,468.03)"><stop offset="0" style="stop-color:#ffd600;stop-opacity:1"/><stop offset="0.5" style="stop-color:#ff0100;stop-opacity:1"/><stop offset="1" style="stop-color:#d800b9;stop-opacity:1"/></linearGradient><linearGradient id="_Linear5" x1="0" y1="0" x2="1" y2="0" gradientUnits="userSpaceOnUse" gradientTransform="matrix(185.911,-185.911,185.911,185.911,1222.38,347.954)"><stop offset="0" style="stop-color:#ff6400;stop-opacity:1"/><stop offset="0.5" style="stop-color:#ff0100;stop-opacity:1"/><stop offset="1" style="stop-color:#fd0056;stop-opacity:1"/></linearGradient><linearGradient id="_Linear6" x1="0" y1="0" x2="1" y2="0" gradientUnits="userSpaceOnUse" gradientTransform="matrix(43.4437,-43.4437,43.4437,43.4437,1430.26,140.068)"><stop offset="0" style="stop-color:#f30072;stop-opacity:1"/><stop offset="1" style="stop-color:#e50097;stop-opacity:1"/></linearGradient></defs></svg>