<svg xmlns="http://www.w3.org/2000/svg" version="1" viewBox="0 0 512 512"><linearGradient id="a" x1="40" x2="513" y1="7" y2="470" gradientUnits="userSpaceOnUse"><stop offset="0" stop-color="#66cc91"/><stop offset="1" stop-color="#e5ff66"/></linearGradient><path fill="url(#a)" d="M305 258c0-5-3-8-7-8s-8 4-8 8v4c1 4 4 7 8 7s8-3 7-8v-3z"/><linearGradient id="b" x1="76" x2="549" y1="-30" y2="433" gradientUnits="userSpaceOnUse"><stop offset="0" stop-color="#66cc91"/><stop offset="1" stop-color="#e5ff66"/></linearGradient><path fill="url(#b)" d="M372 250h-1c-4 0-7 4-7 8v4c0 4 4 7 8 7s7-3 7-8v-3c0-5-3-8-7-8z"/><linearGradient id="c" x1="45" x2="518" y1="2" y2="465" gradientUnits="userSpaceOnUse"><stop offset="0" stop-color="#66cc91"/><stop offset="1" stop-color="#e5ff66"/></linearGradient><path fill="url(#c)" d="M362 280c-4-3-8-2-11 1-4 5-10 9-16 9-7 0-13-4-17-9a8 8 0 1 0-12 9c7 9 17 15 29 15s22-6 28-15c3-3 2-8-1-10z"/><linearGradient id="d" x1="-185" x2="288" y1="237" y2="700" gradientUnits="userSpaceOnUse"><stop offset="0" stop-color="#66cc91"/><stop offset="1" stop-color="#e5ff66"/></linearGradient><path fill="url(#d)" d="M34 378c-3-2-8-1-10 2-6 11-9 22-9 34v91c0 4 4 7 8 7s7-3 7-7v-91c0-9 3-18 7-26 2-4 1-8-3-10z"/><linearGradient id="e" x1="-42" x2="431" y1="91" y2="554" gradientUnits="userSpaceOnUse"><stop offset="0" stop-color="#66cc91"/><stop offset="1" stop-color="#e5ff66"/></linearGradient><path fill="url(#e)" d="M109 229c-5 1-8 4-8 8v4c0 5 4 8 8 8s7-4 7-8v-4c0-4-3-8-7-8z"/><linearGradient id="f" x1="-3" x2="470" y1="51" y2="514" gradientUnits="userSpaceOnUse"><stop offset="0" stop-color="#66cc91"/><stop offset="1" stop-color="#e5ff66"/></linearGradient><path fill="url(#f)" d="M189 249c4 0 7-4 7-8v-4a7 7 0 1 0-15 0v4c0 5 4 8 8 8z"/><linearGradient id="g" x1="-37" x2="436" y1="85" y2="548" gradientUnits="userSpaceOnUse"><stop offset="0" stop-color="#66cc91"/><stop offset="1" stop-color="#e5ff66"/></linearGradient><path fill="url(#g)" d="M179 271a8 8 0 0 0-12-8c-4 5-11 9-18 9s-14-4-18-9a8 8 0 1 0-13 8 37 37 0 0 0 61 0z"/><linearGradient id="h" x1="-176" x2="297" y1="227" y2="690" gradientUnits="userSpaceOnUse"><stop offset="0" stop-color="#66cc91"/><stop offset="1" stop-color="#e5ff66"/></linearGradient><path fill="url(#h)" d="M71 424c-4 0-8 3-8 7v73c0 5 4 8 8 8s7-3 7-7v-74c0-4-3-7-7-7z"/><linearGradient id="i" x1="-101" x2="372" y1="150" y2="613" gradientUnits="userSpaceOnUse"><stop offset="0" stop-color="#66cc91"/><stop offset="1" stop-color="#e5ff66"/></linearGradient><path fill="url(#i)" d="M224 424c-4 0-8 3-8 7v73c0 5 4 8 8 8s7-3 7-7v-74c0-4-3-7-7-7z"/><linearGradient id="j" x1="39" x2="512" y1="7" y2="470" gradientUnits="userSpaceOnUse"><stop offset="0" stop-color="#66cc91"/><stop offset="1" stop-color="#e5ff66"/></linearGradient><path fill="url(#j)" d="M477 0H325c-11 0-20 9-20 20v32c0 4 3 7 7 7 5 0 8-3 8-7V20c0-3 2-5 5-5h152c3 0 5 2 5 5v99c0 3-2 5-5 5h-83l-6 3-11 15-4 2c-1 0-3 0-4-2l-12-15c-1-2-3-3-5-3h-27c-3 0-5-2-5-5V84c0-4-3-7-8-7s-7 3-7 7v23c-17 5-32 13-45 24a122 122 0 0 0-231 75l3 13c-6 7-9 15-9 24a35 35 0 0 0 47 32c5 29 25 52 51 61v11H82c-11 0-22 3-32 8-3 2-5 7-3 10a7 7 0 0 0 10 3c8-4 16-6 25-6h15v143c0 4 4 7 8 7s7-3 7-7V362h9v5a28 28 0 1 0 56 0v-5h9v143c0 4 3 7 7 7s8-3 8-7V362h12c29 0 52 23 52 52v91c0 4 3 7 8 7 4 0 7-3 7-7v-48c13-2 33 0 51 12 1 2 3 2 4 2l5-1c22-17 48-14 59-12v46c0 5 3 8 7 8 5 0 8-3 8-8v-66c0-4-3-7-8-7-4 0-7 3-7 7v5l-16-2v-63c30 9 51 37 51 69v57c0 4 3 8 8 8 4 0 7-4 7-8v-57c0-22-9-43-23-59 6-6 9-14 10-23l2-21c0-4-3-8-7-8-4-1-8 2-8 6l-2 21c-1 6-3 11-6 15a88 88 0 0 0-53-19v-9c24-9 42-30 47-56a33 33 0 0 0 19 1l-2 15c0 4 3 8 7 8h1c4 0 7-3 7-7l3-25a33 33 0 0 0 4-41l1-16c4-34-8-66-30-90h58c11 0 20-9 20-20V20c0-11-9-20-20-20zM260 243a20 20 0 0 1-30 17l5-36 5-1c11 0 20 9 20 20zm-19 34c6 0 12-2 17-5l1 7a17 17 0 0 1-18-1v-1zM66 114a107 107 0 0 1 166 0c20 25 28 57 22 89l-2 7-12-2h-3l1-12h2c4 0 7-1 10-4 2-2 3-6 3-9v-14c0-4-3-8-7-8s-8 4-8 8v12c-37-1-52-8-53-9h-7c-2 1-4 4-4 7v2c-33-1-50-12-50-12h-7c-3 1-4 4-4 7v5c-27-1-44-8-53-13-4-2-9 0-11 3s0 8 3 10l6 3 3 24h-4l-12 2-1-7c-7-32 1-64 22-89zM38 243a20 20 0 0 1 25-19l5 36-10 2c-11 0-20-8-20-19zm46 26l-10-79c10 3 24 5 41 6a13 13 0 0 0 12-9c10 4 26 8 49 9a13 13 0 0 0 12-7c7 2 18 5 35 6l-2 23-7 51a66 66 0 0 1-130 0zm65 111c-7 0-13-6-13-13v-27a76 76 0 0 0 26 0v27c0 8-6 13-13 13zm28-33v-11c23-8 41-27 49-51l1 1 6 64c-6-2-13-3-20-3h-36zm72 10l-6-62 7 1 11-2c5 26 24 47 48 56v9c-16 0-31 5-44 12l-16-14zm31 85v-29c0-10-3-20-7-29 4-2 9-5 14-6v63l-7 1zm88-67v67c-11 2-22 5-33 12-11-6-22-10-33-11v-68l7-1v5a26 26 0 0 0 52 0v-5l7 1zm-22 4a11 11 0 1 1-22 0v-25a70 70 0 0 0 22 0v25zm-11-39c-30 0-56-23-60-53l-3-29a34 34 0 0 0-3-35c18 1 41-2 61-16 8 14 27 39 69 49l-4 31c-4 30-30 53-60 53zm76-61l3-22 6-3 5-8c7 3 13 9 13 17a18 18 0 0 1-27 16zm23-52l-1 6-5-2 2-15a7 7 0 1 0-15-2l-4 27v1h-1c-56-8-69-48-70-50l-5-5c-3 0-5 0-7 2a77 77 0 0 1-60 19l1-2c4-20 3-41-3-60 11-11 25-19 39-23 2 9 10 16 20 16h23l9 12c4 5 10 8 16 8s12-3 16-8l8-11c27 21 40 54 37 87z"/><linearGradient id="k" x1="177" x2="650" y1="-133" y2="330" gradientUnits="userSpaceOnUse"><stop offset="0" stop-color="#66cc91"/><stop offset="1" stop-color="#e5ff66"/></linearGradient><path fill="url(#k)" d="M382 46c-4 0-7 4-7 8v7h-7c-4 0-8 3-8 7s4 8 8 8h6v6c1 5 4 8 8 8s8-3 8-8v-6h6c4 0 8-4 8-8s-4-7-8-7h-6v-7c0-4-4-8-8-8z"/><linearGradient id="l" x1="199" x2="672" y1="-156" y2="307" gradientUnits="userSpaceOnUse"><stop offset="0" stop-color="#66cc91"/><stop offset="1" stop-color="#e5ff66"/></linearGradient><path fill="url(#l)" d="M436 38c-2-2-5-2-7-1l-10 5c-4 2-5 7-3 10 2 4 5 5 9 4v29h-2c-4 0-7 3-7 8 0 4 3 7 7 7h18c4 0 8-3 8-7 0-5-4-8-8-8h-1V44c0-3-2-5-4-6z"/></svg>