<?xml version="1.0" encoding="utf-8"?>
<!-- Generator: Adobe Illustrator 23.0.3, SVG Export Plug-In . SVG Version: 6.00 Build 0)  -->
<svg version="1.1" id="Camada_1" xmlns="http://www.w3.org/2000/svg" xmlns:xlink="http://www.w3.org/1999/xlink" x="0px" y="0px"
	 viewBox="0 0 512 512" style="enable-background:new 0 0 512 512;" xml:space="preserve">
<style type="text/css">
	.st0{fill:url(#SVGID_1_);}
	.st1{fill:url(#SVGID_2_);}
	.st2{fill:url(#SVGID_3_);}
	.st3{fill:url(#SVGID_4_);}
	.st4{fill:url(#SVGID_5_);}
	.st5{fill:url(#SVGID_6_);}
	.st6{fill:url(#SVGID_7_);}
	.st7{fill:url(#SVGID_8_);}
	.st8{fill:url(#SVGID_9_);}
	.st9{fill:url(#SVGID_10_);}
	.st10{fill:url(#SVGID_11_);}
	.st11{fill:url(#SVGID_12_);}
</style>
<g>
	<linearGradient id="SVGID_1_" gradientUnits="userSpaceOnUse" x1="39.7197" y1="6.984" x2="512.7197" y2="469.984">
		<stop  offset="0" style="stop-color:#66CC91"/>
		<stop  offset="1" style="stop-color:#E5FF66"/>
	</linearGradient>
	<path class="st0" d="M305.3,257.5c-0.1-4.1-3.6-7.4-7.7-7.3c-4.1,0.1-7.4,3.6-7.3,7.7l0.1,4c0.1,4.1,3.4,7.3,7.5,7.3
		c0.1,0,0.1,0,0.2,0c4.1-0.1,7.4-3.6,7.3-7.7L305.3,257.5z"/>
	<linearGradient id="SVGID_2_" gradientUnits="userSpaceOnUse" x1="75.8544" y1="-29.9312" x2="548.8544" y2="433.0688">
		<stop  offset="0" style="stop-color:#66CC91"/>
		<stop  offset="1" style="stop-color:#E5FF66"/>
	</linearGradient>
	<path class="st1" d="M371.7,250.2c-0.1,0-0.1,0-0.2,0c-4.1,0.1-7.4,3.6-7.3,7.7l0.1,4c0.1,4.1,3.4,7.3,7.5,7.3c0.1,0,0.1,0,0.2,0
		c4.1-0.1,7.4-3.6,7.3-7.7l-0.1-4C379,253.4,375.7,250.2,371.7,250.2z"/>
	<linearGradient id="SVGID_3_" gradientUnits="userSpaceOnUse" x1="44.6985" y1="1.8977" x2="517.6985" y2="464.8976">
		<stop  offset="0" style="stop-color:#66CC91"/>
		<stop  offset="1" style="stop-color:#E5FF66"/>
	</linearGradient>
	<path class="st2" d="M361.6,279.5c-3.4-2.4-8-1.7-10.5,1.7c-3.8,5.2-9.9,8.4-16.4,8.4c-6.5,0-12.6-3.1-16.4-8.4
		c-2.4-3.4-7.1-4.1-10.5-1.7s-4.1,7.1-1.7,10.5c6.6,9.1,17.3,14.6,28.5,14.6s21.9-5.4,28.5-14.6C365.7,286.6,365,281.9,361.6,279.5z
		"/>
	<linearGradient id="SVGID_4_" gradientUnits="userSpaceOnUse" x1="-185.3851" y1="236.9506" x2="287.615" y2="699.9506">
		<stop  offset="0" style="stop-color:#66CC91"/>
		<stop  offset="1" style="stop-color:#E5FF66"/>
	</linearGradient>
	<path class="st3" d="M34.1,377.6c-3.6-2.1-8.2-0.8-10.2,2.8c-5.8,10.1-8.8,21.5-8.8,33.2v91c0,4.1,3.4,7.5,7.5,7.5s7.5-3.4,7.5-7.5
		v-91c0-9,2.4-17.9,6.8-25.7C38.9,384.2,37.7,379.6,34.1,377.6z"/>
	<linearGradient id="SVGID_5_" gradientUnits="userSpaceOnUse" x1="-42.4471" y1="90.9254" x2="430.5529" y2="553.9254">
		<stop  offset="0" style="stop-color:#66CC91"/>
		<stop  offset="1" style="stop-color:#E5FF66"/>
	</linearGradient>
	<path class="st4" d="M108.6,229.4c-4.1,0.1-7.4,3.6-7.3,7.7l0.1,4.3c0.1,4.1,3.4,7.3,7.5,7.3c0.1,0,0.1,0,0.2,0
		c4.1-0.1,7.4-3.6,7.3-7.7l-0.1-4.3C116.2,232.6,112.8,229.3,108.6,229.4z"/>
	<linearGradient id="SVGID_6_" gradientUnits="userSpaceOnUse" x1="-3.4886" y1="51.1255" x2="469.5114" y2="514.1255">
		<stop  offset="0" style="stop-color:#66CC91"/>
		<stop  offset="1" style="stop-color:#E5FF66"/>
	</linearGradient>
	<path class="st5" d="M188.6,248.7c0.1,0,0.1,0,0.2,0c4.1-0.1,7.4-3.6,7.3-7.7l-0.1-4.3c-0.1-4.1-3.5-7.4-7.7-7.3
		c-4.1,0.1-7.4,3.6-7.3,7.7l0.1,4.3C181.2,245.5,184.5,248.7,188.6,248.7z"/>
	<linearGradient id="SVGID_7_" gradientUnits="userSpaceOnUse" x1="-37.0754" y1="85.4377" x2="435.9247" y2="548.4377">
		<stop  offset="0" style="stop-color:#66CC91"/>
		<stop  offset="1" style="stop-color:#E5FF66"/>
	</linearGradient>
	<path class="st6" d="M179,271.4c2.4-3.4,1.7-8-1.7-10.5c-3.4-2.4-8-1.7-10.5,1.7c-4.2,5.8-11,9.3-18.1,9.3s-13.9-3.5-18.1-9.3
		c-2.4-3.4-7.1-4.1-10.5-1.7c-3.4,2.4-4.1,7.1-1.7,10.5c7,9.7,18.3,15.5,30.3,15.5C160.6,286.9,171.9,281.1,179,271.4z"/>
	<linearGradient id="SVGID_8_" gradientUnits="userSpaceOnUse" x1="-175.5585" y1="226.9118" x2="297.4415" y2="689.9119">
		<stop  offset="0" style="stop-color:#66CC91"/>
		<stop  offset="1" style="stop-color:#E5FF66"/>
	</linearGradient>
	<path class="st7" d="M70.7,423.9c-4.1,0-7.5,3.4-7.5,7.5v73.1c0,4.1,3.4,7.5,7.5,7.5c4.1,0,7.5-3.4,7.5-7.5v-73.1
		C78.2,427.3,74.8,423.9,70.7,423.9z"/>
	<linearGradient id="SVGID_9_" gradientUnits="userSpaceOnUse" x1="-100.6153" y1="150.35" x2="372.3847" y2="613.35">
		<stop  offset="0" style="stop-color:#66CC91"/>
		<stop  offset="1" style="stop-color:#E5FF66"/>
	</linearGradient>
	<path class="st8" d="M223.9,423.9c-4.1,0-7.5,3.4-7.5,7.5v73.1c0,4.1,3.4,7.5,7.5,7.5c4.1,0,7.5-3.4,7.5-7.5v-73.1
		C231.4,427.3,228,423.9,223.9,423.9z"/>
	<linearGradient id="SVGID_10_" gradientUnits="userSpaceOnUse" x1="39.3681" y1="7.3432" x2="512.3681" y2="470.3432">
		<stop  offset="0" style="stop-color:#66CC91"/>
		<stop  offset="1" style="stop-color:#E5FF66"/>
	</linearGradient>
	<path class="st9" d="M476.9,0H324.8c-11,0-19.9,8.9-19.9,19.9v31.7c0,4.1,3.4,7.5,7.5,7.5c4.1,0,7.5-3.4,7.5-7.5V19.9
		c0-2.7,2.2-4.9,4.9-4.9h152.1c2.7,0,4.9,2.2,4.9,4.9v99.5c0,2.7-2.2,4.9-4.9,4.9h-82.9c-2.3,0-4.5,1.1-5.9,2.9L376.6,142
		c-1.3,1.7-3,1.9-3.9,1.9c-0.9,0-2.6-0.3-3.9-1.9l-11.4-14.7c-1.4-1.8-3.6-2.9-5.9-2.9h-26.7c-2.7,0-4.9-2.2-4.9-4.9V84.3
		c0-4.1-3.4-7.5-7.5-7.5s-7.5,3.4-7.5,7.5v22.8c-16.5,4.5-31.8,12.6-44.7,23.9c-4.3-9.4-9.8-18.4-16.6-26.7
		c-23.3-28.6-57.8-44.9-94.7-44.9s-71.4,16.4-94.7,44.9c-23.3,28.6-32.4,65.6-25,101.8l2.7,13.3c-5.7,6.2-9.1,14.4-9.1,23.4
		c0,19.1,15.5,34.7,34.7,34.7c4.2,0,8.3-0.8,12.1-2.2c5.3,28.5,25.4,51.4,51.6,61.1v10.6H81.9c-11.1,0-22.1,2.8-31.8,8.1
		c-3.6,2-5,6.5-3,10.2c1.4,2.5,3.9,3.9,6.6,3.9c1.2,0,2.4-0.3,3.6-0.9c7.5-4.1,16-6.2,24.6-6.2h15.5v142.7c0,4.1,3.4,7.5,7.5,7.5
		c4.1,0,7.5-3.4,7.5-7.5V361.8h8.9v5.6c0,15.3,12.4,27.7,27.7,27.7c15.3,0,27.7-12.4,27.7-27.7v-5.6h8.9v142.7
		c0,4.1,3.4,7.5,7.5,7.5c4.1,0,7.5-3.4,7.5-7.5V361.8h12.7c28.5,0,51.7,23.2,51.7,51.7v91c0,4.1,3.4,7.5,7.5,7.5
		c4.1,0,7.5-3.4,7.5-7.5v-47.8c13.1-1.2,33.2-0.1,50.8,12.8c1.3,1,2.9,1.5,4.5,1.5s3.1-0.5,4.5-1.5c21.9-16.2,48.1-13.7,59.1-11.7
		v46.6c0,4.1,3.4,7.5,7.5,7.5c4.1,0,7.5-3.4,7.5-7.5v-66.4c0-4.1-3.4-7.5-7.5-7.5c-4.1,0-7.5,3.4-7.5,7.5v4.5
		c-4.2-0.7-9.6-1.2-15.7-1.3v-63.6c29.5,9.6,50.8,37.3,50.8,69.9v56.9c0,4.1,3.4,7.5,7.5,7.5c4.1,0,7.5-3.4,7.5-7.5v-56.9
		c0-22.7-8.6-43.5-22.7-59.2c5.4-6.7,8.7-14.7,9.5-23.4l2.1-21c0.4-4.1-2.6-7.8-6.7-8.2c-4.1-0.4-7.8,2.6-8.2,6.7l-2.1,21
		c-0.5,5.3-2.5,10.3-5.6,14.5c-14.8-11.7-33.4-18.8-53.7-19v-8.9c24.2-9,42.7-30.1,47.8-56.3c3.5,1.2,7.1,1.9,10.8,1.9
		c2.6,0,5.1-0.3,7.5-0.9l-1.5,15c-0.4,4.1,2.6,7.8,6.7,8.2c0.3,0,0.5,0,0.8,0c3.8,0,7.1-2.9,7.5-6.8l2.5-25.6
		c5.7-5.9,9.2-13.9,9.2-22.7c0-6.5-1.9-12.6-5.2-17.7l1.6-16.5c3.3-33.3-7.9-65.6-30.3-89.5h58.2c11,0,19.9-8.9,19.9-19.9V19.9
		C496.8,8.9,487.8,0,476.9,0z M260,242.8c0,10.8-8.8,19.7-19.7,19.7c-3.6,0-7-1-10-2.8l4.5-35.8c1.8-0.5,3.6-0.8,5.6-0.8
		C251.2,223.1,260,231.9,260,242.8z M240.9,277.4c6.3-0.1,12.1-1.9,17.2-4.9l0.7,6c-2.6,1.5-5.6,2.3-8.7,2.3c-3.3,0-6.4-0.9-9.1-2.6
		L240.9,277.4z M65.9,113.8c20.4-25.1,50.7-39.4,83-39.4c32.3,0,62.6,14.4,83,39.4s28.4,57.6,21.9,89.3l-1.5,7.2
		c-3.8-1.4-7.8-2.2-12.1-2.2c-1.2,0-2.4,0.1-3.6,0.2l1.6-12.5c0.7,0,1.3,0,2,0h0.2c3.4,0,6.7-1.3,9.1-3.7c2.5-2.5,3.9-5.8,3.9-9.3
		v-13.9c0-4.1-3.4-7.5-7.5-7.5s-7.5,3.4-7.5,7.5v11.9c-37.9-0.9-52.1-8.1-53-8.6c-2.3-1.5-5.1-1.5-7.5-0.2c-2.4,1.3-3.8,3.9-3.8,6.7
		v2.1c-33.4-1.3-49.6-11.4-49.7-11.5c-2.3-1.5-5.3-1.6-7.7-0.3c-2.4,1.3-3.9,3.8-3.9,6.6v5.2c-27.2-1-43.9-7.3-53.2-12.5
		c-3.6-2-8.2-0.7-10.2,2.9s-0.7,8.2,2.9,10.2c1.7,0.9,3.6,1.9,5.7,2.9l3,24c-1.2-0.1-2.4-0.2-3.6-0.2c-4.2,0-8.3,0.8-12.1,2.2
		l-1.5-7.2C37.4,171.4,45.4,138.9,65.9,113.8z M37.8,242.8c0-10.8,8.8-19.7,19.7-19.7c1.9,0,3.8,0.3,5.6,0.8l4.5,35.7
		c-3,1.8-6.4,2.8-10,2.8C46.6,262.4,37.8,253.6,37.8,242.8z M83.7,268.7l-9.8-78.6c10.5,3,23.9,5.3,40.6,5.8
		c3.5,0.1,6.9-1.2,9.5-3.7c1.5-1.5,2.6-3.2,3.2-5.1c9.6,3.7,25.7,8.1,48.6,8.8c3.5,0.1,7-1.2,9.5-3.7c0.9-0.9,1.7-1.9,2.3-3
		c7.1,2.2,18.6,4.8,35.7,6l-2.8,22.6c0,0.1,0,0.1,0,0.2l-6.3,50.8c-4.1,32.8-32.1,57.5-65.2,57.5C115.8,326.2,87.8,301.5,83.7,268.7
		z M148.9,380.2c-7,0-12.7-5.7-12.7-12.7v-27.3c4.1,0.7,8.4,1,12.7,1c4.3,0,8.5-0.4,12.7-1v27.3
		C161.6,374.5,155.9,380.2,148.9,380.2z M176.6,346.8v-10.6c23.2-8.5,41.6-27.4,49.2-51.4c0.3,0.3,0.6,0.6,0.9,0.9l6.4,64.1
		c-6.3-2-13-3.1-20-3.1H176.6z M248.9,357.3l-6.2-62.4c2.4,0.6,4.9,0.9,7.5,0.9c3.8,0,7.4-0.6,10.8-1.8
		c5.1,26.2,23.6,47.3,47.8,56.3v8.9c-15.6,0.2-30.7,4.4-44,12.3C260.3,365.9,254.9,361.1,248.9,357.3z M279.8,441.7v-28.2
		c0-10.6-2.5-20.6-6.9-29.4c4.5-2.6,9.3-4.8,14.3-6.4v63.7C284.6,441.4,282.1,441.5,279.8,441.7z M367.8,374.5v67.9
		c-10.5,1.6-21.9,5.1-32.8,12.1c-10.9-7-22.3-10.5-32.8-12v-67.9c2.2-0.2,4.4-0.4,6.6-0.4v4.7c0,14.5,11.8,26.2,26.2,26.2
		c14.4,0,26.2-11.8,26.2-26.2v-4.7C363.4,374.2,365.6,374.3,367.8,374.5z M346.2,378.8c0,6.2-5,11.2-11.2,11.2s-11.2-5-11.2-11.2
		v-24.7c3.7,0.6,7.4,0.8,11.2,0.8c3.8,0,7.5-0.3,11.2-0.8V378.8z M335,340c-30.4,0-56.2-22.7-59.9-52.9l-3.6-29
		c2.3-4.6,3.6-9.8,3.6-15.3c0-7.5-2.4-14.5-6.5-20.1c18.2,1.2,41-1.4,61.4-16.1c7.6,14.1,26.9,39.7,69,48.9l-3.9,31.6
		C391.1,317.2,365.4,340,335,340z M411.1,278.5l2.7-21.6c2.2-0.5,4.2-1.4,6-2.8c2.6-2,4.6-4.7,5.6-7.8c7,2.4,12.1,9,12.1,16.8
		c0,9.8-7.9,17.7-17.7,17.7C416.7,280.8,413.7,280,411.1,278.5z M434,227.4l-0.6,6c-1.8-0.8-3.7-1.5-5.7-2l2.1-15.9
		c0.5-4.1-2.3-7.9-6.4-8.4c-4.1-0.5-7.9,2.3-8.4,6.4l-3.7,27.9c0,0.3-0.2,0.5-0.4,0.7c-0.2,0.1-0.4,0.3-0.8,0.2
		c-56.1-8.5-69.6-48.3-70.2-49.9c-0.8-2.4-2.7-4.3-5.2-5c-2.5-0.7-5.1,0-7,1.7c-18.8,17.2-41.7,19.9-59.4,18.5l0.3-1.5
		c4.2-20.3,3.1-40.8-2.7-60c11.2-10.8,24.6-18.8,39.3-23.4c1.5,9.5,9.8,16.7,19.7,16.7h23.1l9.1,11.8c3.8,4.9,9.6,7.7,15.8,7.7
		s12-2.8,15.8-7.7l8.7-11.2C423.6,161.1,437.3,193.7,434,227.4z"/>
	<linearGradient id="SVGID_11_" gradientUnits="userSpaceOnUse" x1="176.5786" y1="-132.8308" x2="649.5786" y2="330.1692">
		<stop  offset="0" style="stop-color:#66CC91"/>
		<stop  offset="1" style="stop-color:#E5FF66"/>
	</linearGradient>
	<path class="st10" d="M382,46.4c-4.1,0-7.5,3.4-7.5,7.5v6.8h-6.8c-4.1,0-7.5,3.4-7.5,7.5c0,4.1,3.4,7.5,7.5,7.5h6.8v6.8
		c0,4.1,3.4,7.5,7.5,7.5s7.5-3.4,7.5-7.5v-6.8h6.8c4.1,0,7.5-3.4,7.5-7.5c0-4.1-3.4-7.5-7.5-7.5h-6.8v-6.8
		C389.5,49.8,386.1,46.4,382,46.4z"/>
	<linearGradient id="SVGID_12_" gradientUnits="userSpaceOnUse" x1="198.8833" y1="-155.6173" x2="671.8834" y2="307.3827">
		<stop  offset="0" style="stop-color:#66CC91"/>
		<stop  offset="1" style="stop-color:#E5FF66"/>
	</linearGradient>
	<path class="st11" d="M436,37.6c-2.2-1.4-5-1.4-7.4-0.2l-9.5,5c-3.7,1.9-5.1,6.4-3.2,10.1c1.7,3.2,5.3,4.7,8.7,3.8V85H423
		c-4.1,0-7.5,3.4-7.5,7.5c0,4.1,3.4,7.5,7.5,7.5h18.2c4.1,0,7.5-3.4,7.5-7.5c0-4.1-3.4-7.5-7.5-7.5h-1.6V44
		C439.6,41.4,438.3,38.9,436,37.6z"/>
</g>
</svg>
