<svg xmlns="http://www.w3.org/2000/svg" version="1" viewBox="0 0 511 511"><linearGradient id="a" x1="62" x2="612" y1="-97" y2="437" gradientUnits="userSpaceOnUse"><stop offset="0" stop-color="#66cc91"/><stop offset="1" stop-color="#e5ff66"/></linearGradient><path fill="url(#a)" d="M219 42a14 14 0 1 1-28 0 14 14 0 0 1 28 0z"/><linearGradient id="b" x1="-62" x2="488" y1="30" y2="564" gradientUnits="userSpaceOnUse"><stop offset="0" stop-color="#66cc91"/><stop offset="1" stop-color="#e5ff66"/></linearGradient><path fill="url(#b)" d="M350 70h-99V45a46 46 0 0 0-92 0v25H60c-16 0-28 12-28 27v385c0 16 12 28 28 28h290c15 0 28-12 28-28V329a8 8 0 1 0-16 0v153c0 7-5 13-12 13H60c-7 0-13-6-13-13V97c0-7 6-12 13-12h290c7 0 13 5 13 12v197a8 8 0 1 0 15 0V97c0-15-13-27-28-27zM174 45a31 31 0 0 1 61 0v25h-61V45z"/><linearGradient id="c" x1="7" x2="557" y1="-41" y2="493" gradientUnits="userSpaceOnUse"><stop offset="0" stop-color="#66cc91"/><stop offset="1" stop-color="#e5ff66"/></linearGradient><path fill="url(#c)" d="M273 144H136a8 8 0 1 0 0 15h137c5 0 8-3 8-7s-3-8-8-8z"/><linearGradient id="d" x1="-62" x2="488" y1="30" y2="564" gradientUnits="userSpaceOnUse"><stop offset="0" stop-color="#66cc91"/><stop offset="1" stop-color="#e5ff66"/></linearGradient><path fill="url(#d)" d="M72 230c-4 0-8 4-8 8v232c0 4 4 8 8 8h266c4 0 7-4 7-8V109c0-4-3-7-7-7H72c-5 0-8 3-8 7v94a8 8 0 1 0 15 0v-86h251v346H79V238c0-4-3-8-7-8z"/><linearGradient id="e" x1="-66" x2="484" y1="34" y2="568" gradientUnits="userSpaceOnUse"><stop offset="0" stop-color="#66cc91"/><stop offset="1" stop-color="#e5ff66"/></linearGradient><path fill="url(#e)" d="M102 204v40c0 5 3 8 7 8h41c5 0 8-3 8-8v-40c0-4-3-8-8-8h-41c-4 1-7 4-7 8zm15 8h26v25h-26v-25z"/><linearGradient id="f" x1="-3" x2="547" y1="-30" y2="504" gradientUnits="userSpaceOnUse"><stop offset="0" stop-color="#66cc91"/><stop offset="1" stop-color="#e5ff66"/></linearGradient><path fill="url(#f)" d="M301 198H178a8 8 0 1 0 0 15h123a8 8 0 1 0 0-15z"/><linearGradient id="g" x1="-35" x2="515" y1="3" y2="537" gradientUnits="userSpaceOnUse"><stop offset="0" stop-color="#66cc91"/><stop offset="1" stop-color="#e5ff66"/></linearGradient><path fill="url(#g)" d="M178 252h72a8 8 0 1 0 0-15h-72a8 8 0 1 0 0 15z"/><linearGradient id="h" x1="-111" x2="439" y1="80" y2="614" gradientUnits="userSpaceOnUse"><stop offset="0" stop-color="#66cc91"/><stop offset="1" stop-color="#e5ff66"/></linearGradient><path fill="url(#h)" d="M102 334c0 4 3 8 7 8h41c5 0 8-4 8-8v-40c0-4-3-8-8-8h-41c-4 0-8 4-8 8v40zm15-33h26v26h-26v-26z"/><linearGradient id="i" x1="-48" x2="502" y1="16" y2="550" gradientUnits="userSpaceOnUse"><stop offset="0" stop-color="#66cc91"/><stop offset="1" stop-color="#e5ff66"/></linearGradient><path fill="url(#i)" d="M301 287H178a8 8 0 1 0 0 16h123a8 8 0 1 0 0-16z"/><linearGradient id="j" x1="-80" x2="470" y1="49" y2="583" gradientUnits="userSpaceOnUse"><stop offset="0" stop-color="#66cc91"/><stop offset="1" stop-color="#e5ff66"/></linearGradient><path fill="url(#j)" d="M178 342h72a8 8 0 1 0 0-16h-72a8 8 0 1 0 0 16z"/><linearGradient id="k" x1="-156" x2="394" y1="127" y2="661" gradientUnits="userSpaceOnUse"><stop offset="0" stop-color="#66cc91"/><stop offset="1" stop-color="#e5ff66"/></linearGradient><path fill="url(#k)" d="M102 424c0 4 3 7 7 7h41c5 0 8-3 8-7v-40c0-5-3-8-8-8h-41c-4 0-8 3-8 7v41zm15-33h26v25h-26v-25z"/><linearGradient id="l" x1="-93" x2="457" y1="62" y2="596" gradientUnits="userSpaceOnUse"><stop offset="0" stop-color="#66cc91"/><stop offset="1" stop-color="#e5ff66"/></linearGradient><path fill="url(#l)" d="M308 385c0-5-3-8-7-8H178a8 8 0 1 0 0 15h123c4 0 7-3 7-7z"/><linearGradient id="m" x1="-125" x2="425" y1="95" y2="629" gradientUnits="userSpaceOnUse"><stop offset="0" stop-color="#66cc91"/><stop offset="1" stop-color="#e5ff66"/></linearGradient><path fill="url(#m)" d="M178 416a8 8 0 1 0 0 16h72a8 8 0 1 0 0-16h-72z"/><linearGradient id="n" x1="67" x2="617" y1="-103" y2="431" gradientUnits="userSpaceOnUse"><stop offset="0" stop-color="#66cc91"/><stop offset="1" stop-color="#e5ff66"/></linearGradient><path fill="url(#n)" d="M458 70h-30c-13 0-23 10-23 22v337l2 5 30 37c1 2 3 3 6 3l6-3 30-37 1-5V208a8 8 0 1 0-15 0v218l-22 28-23-28V142h15v287a8 8 0 1 0 15 0V142h15v30a8 8 0 1 0 16 0V92c-1-12-11-22-23-22zm-38 57V92c0-4 3-7 8-7h30c4 0 7 3 7 7v35h-45z"/></svg>