<?xml version="1.0" encoding="utf-8"?>
<!-- Generator: Adobe Illustrator 23.0.3, SVG Export Plug-In . SVG Version: 6.00 Build 0)  -->
<svg version="1.1" id="Camada_1" xmlns="http://www.w3.org/2000/svg" xmlns:xlink="http://www.w3.org/1999/xlink" x="0px" y="0px"
	 viewBox="0 0 511 511" style="enable-background:new 0 0 511 511;" xml:space="preserve">
<style type="text/css">
	.st0{fill:url(#SVGID_1_);}
	.st1{fill:url(#SVGID_2_);}
	.st2{fill:url(#SVGID_3_);}
	.st3{fill:url(#SVGID_4_);}
	.st4{fill:url(#SVGID_5_);}
	.st5{fill:url(#SVGID_6_);}
	.st6{fill:url(#SVGID_7_);}
	.st7{fill:url(#SVGID_8_);}
	.st8{fill:url(#SVGID_9_);}
	.st9{fill:url(#SVGID_10_);}
	.st10{fill:url(#SVGID_11_);}
	.st11{fill:url(#SVGID_12_);}
	.st12{fill:url(#SVGID_13_);}
	.st13{fill:url(#SVGID_14_);}
</style>
<g>
	<linearGradient id="SVGID_1_" gradientUnits="userSpaceOnUse" x1="61.611" y1="-97.1762" x2="611.611" y2="436.8238">
		<stop  offset="0" style="stop-color:#66CC91"/>
		<stop  offset="1" style="stop-color:#E5FF66"/>
	</linearGradient>
	<path class="st0" d="M218.9,41.8c0,7.8-6.3,14.1-14.1,14.1c-7.8,0-14.1-6.3-14.1-14.1s6.3-14.1,14.1-14.1
		C212.6,27.7,218.9,34,218.9,41.8z"/>
	<linearGradient id="SVGID_2_" gradientUnits="userSpaceOnUse" x1="-62.3055" y1="30.4532" x2="487.6945" y2="564.4532">
		<stop  offset="0" style="stop-color:#66CC91"/>
		<stop  offset="1" style="stop-color:#E5FF66"/>
	</linearGradient>
	<path class="st1" d="M349.9,69.6h-99.3V44.9c0-25.3-20.6-45.9-45.9-45.9s-45.9,20.6-45.9,45.9v24.7H59.7
		c-15.3,0-27.7,12.4-27.7,27.7v385c0,15.3,12.4,27.7,27.7,27.7h290.3c15.3,0,27.7-12.4,27.7-27.7V328.6c0-4.2-3.4-7.6-7.6-7.6
		c-4.2,0-7.6,3.4-7.6,7.6v153.7c0,6.9-5.7,12.6-12.6,12.6H59.7c-6.9,0-12.6-5.7-12.6-12.6v-385c0-6.9,5.6-12.6,12.6-12.6h290.3
		c6.9,0,12.6,5.7,12.6,12.6v196.2c0,4.2,3.4,7.6,7.6,7.6c4.2,0,7.6-3.4,7.6-7.6V97.3C377.6,82,365.2,69.6,349.9,69.6z M174,44.9
		c0-17,13.8-30.7,30.7-30.7s30.7,13.8,30.7,30.7v24.7H174V44.9z"/>
	<linearGradient id="SVGID_3_" gradientUnits="userSpaceOnUse" x1="6.7045" y1="-40.6245" x2="556.7045" y2="493.3755">
		<stop  offset="0" style="stop-color:#66CC91"/>
		<stop  offset="1" style="stop-color:#E5FF66"/>
	</linearGradient>
	<path class="st2" d="M273.3,144.1H136.3c-4.2,0-7.6,3.4-7.6,7.6c0,4.2,3.4,7.6,7.6,7.6h137.1c4.2,0,7.6-3.4,7.6-7.6
		C280.9,147.5,277.5,144.1,273.3,144.1z"/>
	<linearGradient id="SVGID_4_" gradientUnits="userSpaceOnUse" x1="-62.3055" y1="30.4532" x2="487.6945" y2="564.4532">
		<stop  offset="0" style="stop-color:#66CC91"/>
		<stop  offset="1" style="stop-color:#E5FF66"/>
	</linearGradient>
	<path class="st3" d="M71.7,230.4c-4.2,0-7.6,3.4-7.6,7.6v232.2c0,4.2,3.4,7.6,7.6,7.6h266.1c4.2,0,7.6-3.4,7.6-7.6V109.4
		c0-4.2-3.4-7.6-7.6-7.6H71.7c-4.2,0-7.6,3.4-7.6,7.6v93.3c0,4.2,3.4,7.6,7.6,7.6c4.2,0,7.6-3.4,7.6-7.6v-85.8h251v345.7h-251V238
		C79.3,233.8,75.9,230.4,71.7,230.4z"/>
	<linearGradient id="SVGID_5_" gradientUnits="userSpaceOnUse" x1="-66.0002" y1="34.2586" x2="483.9998" y2="568.2586">
		<stop  offset="0" style="stop-color:#66CC91"/>
		<stop  offset="1" style="stop-color:#E5FF66"/>
	</linearGradient>
	<path class="st4" d="M101.5,204.1v40.3c0,4.2,3.4,7.6,7.6,7.6h41.3c4.2,0,7.6-3.4,7.6-7.6v-40.3c0-4.2-3.4-7.6-7.6-7.6H109
		C104.9,196.5,101.5,199.9,101.5,204.1z M116.6,211.7h26.2v25.2h-26.2V211.7z"/>
	<linearGradient id="SVGID_6_" gradientUnits="userSpaceOnUse" x1="-3.3632" y1="-30.2551" x2="546.6368" y2="503.7449">
		<stop  offset="0" style="stop-color:#66CC91"/>
		<stop  offset="1" style="stop-color:#E5FF66"/>
	</linearGradient>
	<path class="st5" d="M300.5,197.6h-123c-4.2,0-7.6,3.4-7.6,7.6c0,4.2,3.4,7.6,7.6,7.6h123c4.2,0,7.6-3.4,7.6-7.6
		C308.1,200.9,304.7,197.6,300.5,197.6z"/>
	<linearGradient id="SVGID_7_" gradientUnits="userSpaceOnUse" x1="-35.2368" y1="2.5735" x2="514.7632" y2="536.5735">
		<stop  offset="0" style="stop-color:#66CC91"/>
		<stop  offset="1" style="stop-color:#E5FF66"/>
	</linearGradient>
	<path class="st6" d="M177.6,252h72.6c4.2,0,7.6-3.4,7.6-7.6s-3.4-7.6-7.6-7.6h-72.6c-4.2,0-7.6,3.4-7.6,7.6S173.4,252,177.6,252z"
		/>
	<linearGradient id="SVGID_8_" gradientUnits="userSpaceOnUse" x1="-110.8314" y1="80.4331" x2="439.1686" y2="614.4331">
		<stop  offset="0" style="stop-color:#66CC91"/>
		<stop  offset="1" style="stop-color:#E5FF66"/>
	</linearGradient>
	<path class="st7" d="M101.5,334.1c0,4.2,3.4,7.6,7.6,7.6h41.3c4.2,0,7.6-3.4,7.6-7.6v-40.3c0-4.2-3.4-7.6-7.6-7.6H109
		c-4.2,0-7.6,3.4-7.6,7.6V334.1z M116.6,301.4h26.2v25.2h-26.2V301.4z"/>
	<linearGradient id="SVGID_9_" gradientUnits="userSpaceOnUse" x1="-48.1955" y1="15.9204" x2="501.8045" y2="549.9204">
		<stop  offset="0" style="stop-color:#66CC91"/>
		<stop  offset="1" style="stop-color:#E5FF66"/>
	</linearGradient>
	<path class="st8" d="M300.5,287.3h-123c-4.2,0-7.6,3.4-7.6,7.6c0,4.2,3.4,7.6,7.6,7.6h123c4.2,0,7.6-3.4,7.6-7.6
		C308.1,290.6,304.7,287.3,300.5,287.3z"/>
	<linearGradient id="SVGID_10_" gradientUnits="userSpaceOnUse" x1="-80.0678" y1="48.7477" x2="469.9322" y2="582.7477">
		<stop  offset="0" style="stop-color:#66CC91"/>
		<stop  offset="1" style="stop-color:#E5FF66"/>
	</linearGradient>
	<path class="st9" d="M177.6,341.7h72.6c4.2,0,7.6-3.4,7.6-7.6c0-4.2-3.4-7.6-7.6-7.6h-72.6c-4.2,0-7.6,3.4-7.6,7.6
		C170,338.3,173.4,341.7,177.6,341.7z"/>
	<linearGradient id="SVGID_11_" gradientUnits="userSpaceOnUse" x1="-155.6627" y1="126.6076" x2="394.3373" y2="660.6076">
		<stop  offset="0" style="stop-color:#66CC91"/>
		<stop  offset="1" style="stop-color:#E5FF66"/>
	</linearGradient>
	<path class="st10" d="M101.5,423.8c0,4.2,3.4,7.6,7.6,7.6h41.3c4.2,0,7.6-3.4,7.6-7.6v-40.3c0-4.2-3.4-7.6-7.6-7.6H109
		c-4.2,0-7.6,3.4-7.6,7.6V423.8z M116.6,391.1h26.2v25.2h-26.2V391.1z"/>
	<linearGradient id="SVGID_12_" gradientUnits="userSpaceOnUse" x1="-93.0274" y1="62.0956" x2="456.9727" y2="596.0956">
		<stop  offset="0" style="stop-color:#66CC91"/>
		<stop  offset="1" style="stop-color:#E5FF66"/>
	</linearGradient>
	<path class="st11" d="M308.1,384.5c0-4.2-3.4-7.6-7.6-7.6h-123c-4.2,0-7.6,3.4-7.6,7.6c0,4.2,3.4,7.6,7.6,7.6h123
		C304.7,392.1,308.1,388.7,308.1,384.5z"/>
	<linearGradient id="SVGID_13_" gradientUnits="userSpaceOnUse" x1="-124.8993" y1="94.9225" x2="425.1007" y2="628.9225">
		<stop  offset="0" style="stop-color:#66CC91"/>
		<stop  offset="1" style="stop-color:#E5FF66"/>
	</linearGradient>
	<path class="st12" d="M177.6,416.3c-4.2,0-7.6,3.4-7.6,7.6c0,4.2,3.4,7.6,7.6,7.6h72.6c4.2,0,7.6-3.4,7.6-7.6
		c0-4.2-3.4-7.6-7.6-7.6H177.6z"/>
	<linearGradient id="SVGID_14_" gradientUnits="userSpaceOnUse" x1="67.3345" y1="-103.0711" x2="617.3345" y2="430.9289">
		<stop  offset="0" style="stop-color:#66CC91"/>
		<stop  offset="1" style="stop-color:#E5FF66"/>
	</linearGradient>
	<path class="st13" d="M457.8,69.6h-30.2c-12.5,0-22.7,10.2-22.7,22.7v336.6c0,1.7,0.6,3.4,1.7,4.8l30.2,37.3
		c1.4,1.8,3.6,2.8,5.9,2.8c2.3,0,4.4-1,5.9-2.8l30.2-37.3c1.1-1.3,1.7-3,1.7-4.8V207.6c0-4.2-3.4-7.6-7.6-7.6s-7.6,3.4-7.6,7.6
		v218.6l-22.7,28l-22.7-28V142.1h15.1v286.7c0,4.2,3.4,7.6,7.6,7.6c4.2,0,7.6-3.4,7.6-7.6V142.1h15.1v30.3c0,4.2,3.4,7.6,7.6,7.6
		s7.6-3.4,7.6-7.6V92.2C480.4,79.7,470.3,69.6,457.8,69.6z M420,127V92.2c0-4.2,3.4-7.6,7.6-7.6h30.2c4.2,0,7.6,3.4,7.6,7.6V127H420
		z"/>
</g>
</svg>
