<svg xmlns="http://www.w3.org/2000/svg" id="Capa_1" version="1" viewBox="0 0 512 512"><style>.st0{fill:#fff}</style><path d="M509 356l-24-24c-4-4-11-4-14 0-4 4-4 10 0 14l24 24c2 2 5 3 7 3 3 0 5-1 7-3 4-4 4-10 0-14zM460 307c-4-4-10-4-14 0a10 10 0 0 0 7 17c2 0 5-1 7-3 4-4 4-10 0-14z" class="st0"/><path d="M375 353l97-97a38 38 0 0 0-19-63c3-5 4-11 4-16a38 38 0 0 0-31-37 38 38 0 0 0-30-49c2-4 2-8 2-12a38 38 0 0 0-55-33l-1-1a67 67 0 0 0-49-22h-79c-5 0-10 5-10 10v14l3 15a38 38 0 0 0-50 47 38 38 0 0 0-30 48c-7 2-14 5-20 11a38 38 0 0 0-7 42c-7 2-13 5-19 10a38 38 0 0 0 0 54l20 20-98 98a10 10 0 0 0 7 17c3 0 5-1 7-3l99-99a38 38 0 0 0 56-34h2c10 0 19-4 27-11 7-8 11-17 11-27v-2h1a38 38 0 0 0 38-37v-2h1a38 38 0 0 0 29-61l67-67a18 18 0 1 1 25 25l-10 10-35 36a10 10 0 0 0 7 17c3 0 5-1 7-3l36-36a18 18 0 0 1 25 25l-10 10-26 26a10 10 0 0 0 7 17c3 0 5-1 7-3l26-26a18 18 0 1 1 25 25l-13 13-13 13a10 10 0 0 0 7 17c3 0 5-1 7-3l12-12a18 18 0 0 1 25 25l-97 97c-24 24-56 38-91 39l-6 3-90 90a10 10 0 0 0 7 17c3 0 5-1 7-3l66-66c17 11 36 16 57 15l51 51c2 2 5 3 7 3s5-1 7-3c4-4 4-10 0-14l-55-55c-2-2-5-3-7-3l-4 1c-14 1-29-2-41-9l6-7c38-2 74-18 101-45zm-228-66a18 18 0 0 1-25 0l-27-27a18 18 0 0 1 25-25l27 27c7 7 7 18 0 25zm40-40c-7 7-19 7-25 0l-27-27-14-13a18 18 0 0 1 25-25l41 41c3 3 5 7 5 12s-2 9-5 12zm39-39c-7 7-18 7-25 0l-51-50a18 18 0 1 1 25-25l23 23 28 27a18 18 0 0 1 0 25zm39-39c-7 7-18 7-25 0l-50-50-10-10a18 18 0 0 1 25-25l60 60a18 18 0 0 1 0 25zm3-51l-28-27 10 1h27c6 0 10-5 10-10s-4-10-10-10h-27c-7 0-14-3-18-7-5-5-8-12-8-18v-4h69c13 0 25 6 34 15v1l-59 59z" class="st0"/></svg>