<?xml version="1.0" encoding="utf-8"?>
<!-- Generator: Adobe Illustrator 23.0.3, SVG Export Plug-In . SVG Version: 6.00 Build 0)  -->
<svg version="1.1" id="Camada_1" xmlns="http://www.w3.org/2000/svg" xmlns:xlink="http://www.w3.org/1999/xlink" x="0px" y="0px"
	 viewBox="0 0 512 512" style="enable-background:new 0 0 512 512;" xml:space="preserve">
<style type="text/css">
	.st0{fill:url(#SVGID_1_);}
	.st1{fill:url(#SVGID_2_);}
	.st2{fill:url(#SVGID_3_);}
	.st3{fill:url(#SVGID_4_);}
	.st4{fill:url(#SVGID_5_);}
	.st5{fill:url(#SVGID_6_);}
	.st6{fill:url(#SVGID_7_);}
	.st7{fill:url(#SVGID_8_);}
	.st8{fill:url(#SVGID_9_);}
	.st9{fill:url(#SVGID_10_);}
	.st10{fill:url(#SVGID_11_);}
	.st11{fill:url(#SVGID_12_);}
</style>
<g>
	<linearGradient id="SVGID_1_" gradientUnits="userSpaceOnUse" x1="57.6572" y1="-96.3804" x2="609.6572" y2="457.6196">
		<stop  offset="0" style="stop-color:#66CC91"/>
		<stop  offset="1" style="stop-color:#E5FF66"/>
	</linearGradient>
	<path class="st0" d="M393.4,36.4h-90.3V11.8c0-6.5-5.3-11.8-11.8-11.8h-70.5C214.3,0,209,5.3,209,11.8v24.6h-90.3
		C99,36.4,83,52.4,83,72.1V145c0,4.2,3.4,7.6,7.6,7.6c4.2,0,7.6-3.4,7.6-7.6V72.1c0-11.3,9.2-20.5,20.5-20.5H209v16
		c0,6.5,5.3,11.8,11.8,11.8h70.5c6.5,0,11.8-5.3,11.8-11.8v-16h90.3c11.3,0,20.5,9.2,20.5,20.5v184c0,4.2,3.4,7.6,7.6,7.6
		c4.2,0,7.6-3.4,7.6-7.6v-184C429.1,52.4,413.1,36.4,393.4,36.4z M287.9,64.2h-63.8c0-5.6,0-43.1,0-49h63.8V64.2z"/>
	<linearGradient id="SVGID_2_" gradientUnits="userSpaceOnUse" x1="-84.5565" y1="45.3198" x2="467.4435" y2="599.3198">
		<stop  offset="0" style="stop-color:#66CC91"/>
		<stop  offset="1" style="stop-color:#E5FF66"/>
	</linearGradient>
	<path class="st1" d="M421.5,278.8c-4.2,0-7.6,3.4-7.6,7.6v189.9c0,11.3-9.2,20.5-20.5,20.5H118.7c-11.3,0-20.5-9.2-20.5-20.5v-301
		c0-4.2-3.4-7.6-7.6-7.6c-4.2,0-7.6,3.4-7.6,7.6v301C83,496,99,512,118.7,512h274.7c19.7,0,35.7-16,35.7-35.7V286.4
		C429.1,282.2,425.7,278.8,421.5,278.8z"/>
	<linearGradient id="SVGID_3_" gradientUnits="userSpaceOnUse" x1="-148.6699" y1="109.2018" x2="403.3301" y2="663.2018">
		<stop  offset="0" style="stop-color:#66CC91"/>
		<stop  offset="1" style="stop-color:#E5FF66"/>
	</linearGradient>
	<path class="st2" d="M128.4,471c0,4.2,3.4,7.6,7.6,7.6h151.7c4.2,0,7.6-3.4,7.6-7.6c0-4.2-3.4-7.6-7.6-7.6H136
		C131.8,463.5,128.4,466.9,128.4,471z"/>
	<linearGradient id="SVGID_4_" gradientUnits="userSpaceOnUse" x1="-80.8294" y1="41.6062" x2="471.1706" y2="595.6061">
		<stop  offset="0" style="stop-color:#66CC91"/>
		<stop  offset="1" style="stop-color:#E5FF66"/>
	</linearGradient>
	<path class="st3" d="M310.5,471c0,4.2,3.4,7.6,7.6,7.6h58c4.2,0,7.6-3.4,7.6-7.6c0-4.2-3.4-7.6-7.6-7.6h-58
		C313.9,463.5,310.5,466.9,310.5,471z"/>
	<linearGradient id="SVGID_5_" gradientUnits="userSpaceOnUse" x1="-24.0397" y1="-14.9785" x2="527.9603" y2="539.0215">
		<stop  offset="0" style="stop-color:#66CC91"/>
		<stop  offset="1" style="stop-color:#E5FF66"/>
	</linearGradient>
	<path class="st4" d="M269.5,255.7c-4.2,0-7.6,3.4-7.6,7.6c0,3.3-2.7,6-5.9,6s-6-2.7-6-6c0-4.2-3.4-7.6-7.6-7.6
		c-14.2,0-7.6,28.7,13.5,28.7S283.7,255.7,269.5,255.7z"/>
	<linearGradient id="SVGID_6_" gradientUnits="userSpaceOnUse" x1="8.5179" y1="-47.4186" x2="560.5179" y2="506.5814">
		<stop  offset="0" style="stop-color:#66CC91"/>
		<stop  offset="1" style="stop-color:#E5FF66"/>
	</linearGradient>
	<path class="st5" d="M298.8,235.8c0,4.4-3.6,8-8,8c-4.4,0-8-3.6-8-8c0-4.4,3.6-8,8-8C295.2,227.8,298.8,231.4,298.8,235.8z"/>
	<linearGradient id="SVGID_7_" gradientUnits="userSpaceOnUse" x1="-26.3875" y1="-12.6392" x2="525.6125" y2="541.3608">
		<stop  offset="0" style="stop-color:#66CC91"/>
		<stop  offset="1" style="stop-color:#E5FF66"/>
	</linearGradient>
	<path class="st6" d="M229.2,235.8c0,4.4-3.6,8-8,8s-8-3.6-8-8c0-4.4,3.6-8,8-8S229.2,231.4,229.2,235.8z"/>
	<linearGradient id="SVGID_8_" gradientUnits="userSpaceOnUse" x1="18.2754" y1="-57.1408" x2="570.2754" y2="496.8592">
		<stop  offset="0" style="stop-color:#66CC91"/>
		<stop  offset="1" style="stop-color:#E5FF66"/>
	</linearGradient>
	<path class="st7" d="M281.4,224.9c4.6-1,15.7-1.9,20.9,1.4c1.3,0.8,2.7,1.2,4,1.2c7.6,0,10.5-10,4-14c-11.7-7.3-30-3.8-32-3.4
		c-4.1,0.9-6.7,4.9-5.9,9C273.3,223.2,277.3,225.8,281.4,224.9z"/>
	<linearGradient id="SVGID_9_" gradientUnits="userSpaceOnUse" x1="-19.0339" y1="-19.9662" x2="532.9661" y2="534.0338">
		<stop  offset="0" style="stop-color:#66CC91"/>
		<stop  offset="1" style="stop-color:#E5FF66"/>
	</linearGradient>
	<path class="st8" d="M239.4,219.1c0.9-4.1-1.8-8.1-5.9-9c-2.1-0.4-20.4-4-32,3.4c-3.5,2.2-4.6,6.9-2.4,10.5
		c2.2,3.5,6.9,4.6,10.5,2.4c4.9-3.1,15.4-2.5,20.9-1.4C234.6,225.8,238.6,223.2,239.4,219.1z"/>
	<linearGradient id="SVGID_10_" gradientUnits="userSpaceOnUse" x1="-68.5865" y1="29.4075" x2="483.4135" y2="583.4075">
		<stop  offset="0" style="stop-color:#66CC91"/>
		<stop  offset="1" style="stop-color:#E5FF66"/>
	</linearGradient>
	<path class="st9" d="M284,412.5c0,4.2,3.4,7.6,7.6,7.6h43.2c4.2,0,7.6-3.4,7.6-7.6c0-4.2-3.4-7.6-7.6-7.6h-43.2
		C287.4,405,284,408.4,284,412.5z"/>
	<linearGradient id="SVGID_11_" gradientUnits="userSpaceOnUse" x1="-126.0201" y1="86.6337" x2="425.9799" y2="640.6337">
		<stop  offset="0" style="stop-color:#66CC91"/>
		<stop  offset="1" style="stop-color:#E5FF66"/>
	</linearGradient>
	<path class="st10" d="M177.1,420.1h43.2c4.2,0,7.6-3.4,7.6-7.6c0-4.2-3.4-7.6-7.6-7.6h-43.2c-4.2,0-7.6,3.4-7.6,7.6
		C169.5,416.7,172.9,420.1,177.1,420.1z"/>
	<linearGradient id="SVGID_12_" gradientUnits="userSpaceOnUse" x1="-39.0427" y1="-2.970109e-02" x2="512.9573" y2="553.9703">
		<stop  offset="0" style="stop-color:#66CC91"/>
		<stop  offset="1" style="stop-color:#E5FF66"/>
	</linearGradient>
	<path class="st11" d="M139.5,417.4c0,15,12.1,27.4,27.4,27.4h177.9c15.1,0,27.4-12.3,27.4-27.4c0-45.5-31.2-87.3-81.5-96.9
		c16.7-11,33-27.3,38.6-46.7c13.7-4.1,23.7-16.8,23.7-31.8c0-14.3-9.1-26.5-21.8-31.2v-18c7.6-4.1,12.8-11.9,12.8-20.8v-25.6
		c0-16.1-13.7-29.1-30.5-29.1c-6.6,0-6.8,0-8,0.1c-6.9-14.3-22.1-23.9-39.1-23.9h-58.2c-23.7,0-43.1,18.3-43.1,40.9v63.6
		c0,2.5,1.1,4.9,3,6.5c3.6,3.1,7.5,2,12.3,0.9v5.3c-12.7,4.7-21.8,16.9-21.8,31.2c0,15,10,27.7,23.7,31.8
		c5.5,19.4,21.9,35.8,38.6,46.7c0,0-24.5,3.1-46.6,21.8C152.2,361.1,139.5,388.5,139.5,417.4z M331.4,228.1c4,3.3,6.6,8.3,6.6,13.9
		c0,5.6-2.6,10.6-6.6,13.9V228.1z M180.5,256c-4-3.3-6.6-8.3-6.6-13.9c0-5.6,2.6-10.6,6.6-13.9V256z M324.5,375.3
		c7.5-3.2,7.5-10.4,6.4-18.5c15.8,14.5,26.2,36.3,26.2,60.6c0,6.8-5.5,12.3-12.3,12.3h-81.4v-52.2l34.2-14.5l14.6,10.6
		C315.7,376.4,320.5,377.1,324.5,375.3z M255.6,361.1l-14.7-16.5V331c11.7,4.5,18.4,4.5,30.1,0v13.5L255.6,361.1z M295,337
		c0.7,0,6.3,1.9,8.3,2.6c6.8,3.9,10.9,9.7,12.4,17.6c-16.4-11.8-14.2-12.3-31.2-5.1c2.1-2.7,1.6-4.1,1.6-17
		C289.3,335.7,291.9,336.2,295,337z M180.4,190v-55.5c0-14.2,12.5-25.7,27.9-25.7h58.2c12.7,0,23.8,7.9,27,19.2
		c0.5,1.9,1.9,3.6,3.6,4.6c3.9,2.2,5.8,0,10.5,0h6.1c8.5,0,15.3,6.3,15.3,14v25.6c0,4.8-4.3,8.6-9.7,8.6h-11.7
		c-6.8,0-12.8-4.1-14.7-10c-2.6-8-14-7.9-16.4,0.3c-1.2,4.1-3.4,7.2-5.8,9.6c-1.6-4.5-4.1-8.4-6.1-11c-3.9-5.1-11.9-4.3-14.6,1.6
		c-1.6,3.5-3.7,6.4-6.2,8.8c1.4-7.9,0.3-14.8-0.3-17.9c-1.5-7.4-11.2-9.3-15.5-3.1C214.5,178.8,192.5,186.9,180.4,190z M198.8,274.5
		c-3.8-8.9-3.3-21-3.1-73.4c9.8-3.6,21.4-9.4,31.7-18.6c-1.2,2.8-3.1,5.6-5.9,8c-7.1,5.9-1.1,17.5,7.9,14.8
		c7.2-2.2,18.9-7,27.6-17.1c0.1,0.6,0,1.2-0.1,1.6c-2.3,7.1,4.9,13.6,11.7,10.5c3.7-1.7,11.1-5.9,16.7-13.5
		c5.6,5.7,13.6,9.2,22.3,9.2h8.7c0.1,52.9,1,69-3.1,78.6c-10.2,24-43.2,43.4-55.9,44.6C241.7,319.1,208.6,297.5,198.8,274.5z
		 M225.7,335.2c0,12.8-0.5,14.4,1.8,17.1l-8.3-3.6c-4.9-2.2-9.9-0.8-12.3,0.9l-10.7,7.7C199,342,209.8,337.5,225.7,335.2z
		 M180.9,356.8c-1.1,8-1.1,15.2,6.4,18.5c4.1,1.8,8.8,1.1,12.2-1.7l14.6-10.6c41.8,18.2,31.4,13.6,34.2,15v51.7H167
		c-6.7,0-12.3-5.4-12.3-12.3C154.7,394.4,164.2,372.5,180.9,356.8z"/>
</g>
</svg>
